<svg xmlns="http://www.w3.org/2000/svg" width="1440" height="580" data-name="Layer 1" viewBox="0 0 1440 580"><path fill="none" stroke="#5e54af" stroke-linecap="round" stroke-linejoin="round" stroke-width="6" d="M83.8 194.7v54"/><circle cx="83.8" cy="183" r="26" fill="#fff" stroke="#5e54af" stroke-linecap="round" stroke-linejoin="round" stroke-width="6"/><path fill="#fff" stroke="#5e54af" stroke-linecap="round" stroke-linejoin="round" stroke-width="6" d="M114.2 363.9H53.4l5-136.9h50.8l5 136.9z"/><path fill="none" stroke="#5e54af" stroke-linecap="round" stroke-linejoin="round" stroke-width="6" d="M63.6 363.6l-6.9 88.8v84h-25m71.2-172.8l6.8 88.8v84h25M58.6 226.8l-21.9 78.9v81l5.8 17.7M108 226.8l21.7 78.9v81l-5.6 17.7"/><circle cx="74.7" cy="180.4" r="5.6" fill="#5e54af"/><circle cx="92.9" cy="180.4" r="5.6" fill="#5e54af"/><path fill="none" stroke="#5e54af" stroke-linecap="round" stroke-linejoin="round" stroke-width="6" d="M236.8 194.7v54"/><circle cx="236.8" cy="183" r="26" fill="#fff" stroke="#5e54af" stroke-linecap="round" stroke-linejoin="round" stroke-width="6"/><path fill="#fff" stroke="#5e54af" stroke-linecap="round" stroke-linejoin="round" stroke-width="6" d="M267.2 363.9h-60.8l5-136.9h50.8l5 136.9z"/><path fill="none" stroke="#5e54af" stroke-linecap="round" stroke-linejoin="round" stroke-width="6" d="M216.6 363.6l-6.9 88.8v84h-25m71.2-172.8l6.8 88.8v84h25m-76.1-309.6l-21.9 78.9v81l5.8 17.7M261 226.8l21.7 78.9v81l-5.6 17.7"/><circle cx="251.4" cy="180.4" r="5.6" fill="#5e54af"/><path fill="none" stroke="#5e54af" stroke-linecap="round" stroke-linejoin="round" stroke-width="6" d="M261.1 173.8l8.6 17.2-8.6 1.3m198.7 2.4v54"/><circle cx="459.8" cy="183" r="26" fill="#fff" stroke="#5e54af" stroke-linecap="round" stroke-linejoin="round" stroke-width="6"/><path fill="#fff" stroke="#5e54af" stroke-linecap="round" stroke-linejoin="round" stroke-width="6" d="M490.2 363.9h-60.8l5-136.9h50.8l5 136.9z"/><path fill="none" stroke="#5e54af" stroke-linecap="round" stroke-linejoin="round" stroke-width="6" d="M439.6 363.6l-6.9 88.8v84h-25m71.2-172.8l6.8 88.8v84h25m-26.9-310h70.7l-.2-80h26.4m-145.8 80.4l-70.6-.2.3 79.8h-26.9"/><circle cx="474.4" cy="180.4" r="5.6" fill="#5e54af"/><path fill="none" stroke="#5e54af" stroke-linecap="round" stroke-linejoin="round" stroke-width="6" d="M484.1 173.8l8.6 17.2-8.6 1.3m557.7 2.4v54"/><circle cx="1041.8" cy="183" r="26" fill="#fff" stroke="#5e54af" stroke-linecap="round" stroke-linejoin="round" stroke-width="6"/><path fill="#fff" stroke="#5e54af" stroke-linecap="round" stroke-linejoin="round" stroke-width="6" d="M1072.2 363.9h-60.8l5-136.9h50.8l5 136.9z"/><path fill="none" stroke="#5e54af" stroke-linecap="round" stroke-linejoin="round" stroke-width="6" d="M1021.6 363.6l-6.9 88.8v84h-25m71.2-172.8l6.8 88.8v84h25m-26.9-310h70.7l-.2-80h26.4m-145.8 80.4l-70.6-.2.3 79.8h-26.9"/><circle cx="1056.4" cy="180.4" r="5.6" fill="#5e54af"/><path fill="none" stroke="#5e54af" stroke-linecap="round" stroke-linejoin="round" stroke-width="6" d="M1066.1 173.8l8.6 17.2-8.6 1.3m240.7 2.4v54"/><circle cx="1306.8" cy="183" r="26" fill="#fff" stroke="#5e54af" stroke-linecap="round" stroke-linejoin="round" stroke-width="6"/><path fill="#fff" stroke="#5e54af" stroke-linecap="round" stroke-linejoin="round" stroke-width="6" d="M1337.2 363.9h-60.8l5-136.9h50.8l5 136.9z"/><path fill="none" stroke="#5e54af" stroke-linecap="round" stroke-linejoin="round" stroke-width="6" d="M1286.6 363.6l-6.9 88.8v84h-25m71.2-172.8l6.8 88.8v84h25m-26.9-310h70.7l-20.2-75h26.4m-125.8 75.4l-70.6-.2 20.3 74.8h-26.9"/><circle cx="1321.4" cy="180.4" r="5.6" fill="#5e54af"/><path fill="none" stroke="#5e54af" stroke-linecap="round" stroke-linejoin="round" stroke-width="6" d="M1331.1 173.8l8.6 17.2-8.6 1.3m-589.3 2.4v54"/><circle cx="741.8" cy="183" r="26" fill="#fff" stroke="#5e54af" stroke-linecap="round" stroke-linejoin="round" stroke-width="6"/><path fill="#fff" stroke="#5e54af" stroke-linecap="round" stroke-linejoin="round" stroke-width="6" d="M772.2 363.9h-60.8l5-136.9h50.8l5 136.9z"/><path fill="none" stroke="#5e54af" stroke-linecap="round" stroke-linejoin="round" stroke-width="6" d="M721.6 363.6l-6.9 88.8v84h-25m71.2-172.8l6.8 88.8v84h25m-26.9-310h70.7l39.8-73h26.4m-185.8 73.4l-70.6-.2-39.7 72.8h-26.9"/><circle cx="756.4" cy="180.4" r="5.6" fill="#5e54af"/><path fill="none" stroke="#5e54af" stroke-linecap="round" stroke-linejoin="round" stroke-width="6" d="M766.1 173.8l8.6 17.2-8.6 1.3"/><circle cx="83.8" cy="76.9" r="31.8" fill="#3c3670"/><path fill="#fff" d="M87.9 66.4q-.3 3.3-.4 7.2t-.1 7.7a5.7 5.7 0 0 0 .5 2.9 2.1 2.1 0 0 0 1.9.8h2.7v.3l-.5 3.6H81.2l-2.8.2-3 .3.4-3.5 2.4-.4a3.5 3.5 0 0 0 1.5-.9 3.4 3.4 0 0 0 .8-1.5 8.9 8.9 0 0 0 .2-2.3v-12a3.5 3.5 0 0 0-.7-2.6 3.3 3.3 0 0 0-2.2-.6h-2.6l-.3-.4.3-3.2H78l1.9-.2 2-.3 5.7-.8 1.8-.3.6 1.7a5.4 5.4 0 0 0-1.4 1.7 8.2 8.2 0 0 0-.7 2.6z"/><circle cx="236.8" cy="76.9" r="31.8" fill="#3c3670"/><path fill="#fff" d="M224.2 87.4l4.2-4.6 3.8-4.6a43 43 0 0 0 2.6-3.6 15.7 15.7 0 0 0 1.4-2.7 6.3 6.3 0 0 0 .4-2.2q0-3.4-3.4-3.4a5.8 5.8 0 0 0-3.3 1.1 10.7 10.7 0 0 0-2.9 3.1h-.8l-.9-4.1a15.9 15.9 0 0 1 5-4.4 11.8 11.8 0 0 1 5.9-1.6 9.5 9.5 0 0 1 6.3 2 6.4 6.4 0 0 1 2.4 5.2 8.2 8.2 0 0 1-.5 2.7 13.7 13.7 0 0 1-1.7 3.1 51.6 51.6 0 0 1-3.2 4.1l-5 5.6.2.4h5.3l2.2-.2a3.3 3.3 0 0 0 1.5-.8 4.1 4.1 0 0 0 1-1.6 15.2 15.2 0 0 0 .6-2.5l4.2-.4q-.3 1.7-.6 3.6l-.6 3.4q-.3 1.8-.4 3.5l-.8.7-7.5-.2h-11.4l-3.6.5z"/><circle cx="459.8" cy="76.9" r="31.8" fill="#3c3670"/><path fill="#fff" d="M449.2 87.8a14.5 14.5 0 0 0 4.7.7 12.8 12.8 0 0 0 3.2-.4 8.4 8.4 0 0 0 2.6-1.1 5.8 5.8 0 0 0 1.7-1.7 3.8 3.8 0 0 0 .6-2.1 3.6 3.6 0 0 0-2-3.4 13.9 13.9 0 0 0-6.2-1.1l-.5-.6-.4-3.4 3.6-.8a7.7 7.7 0 0 0 3-2.3 4.9 4.9 0 0 0 1.1-3.1 2.7 2.7 0 0 0-1-2.2 3.6 3.6 0 0 0-2.4-.8 7.5 7.5 0 0 0-3.1.7 12 12 0 0 0-3.1 2h-.7l-1.2-3.9 1.7-1.2 2.6-1.4 3-1.1a10.3 10.3 0 0 1 3-.5 9.5 9.5 0 0 1 6 1.7 5.7 5.7 0 0 1 2.2 4.7 6.8 6.8 0 0 1-1.6 4.4 11 11 0 0 1-4.5 3.2v.4q7.7 2.1 7.7 7.3a7.7 7.7 0 0 1-1.5 4.3 15.9 15.9 0 0 1-3.8 3.9 20.8 20.8 0 0 1-5.3 2.8 17.7 17.7 0 0 1-6 1.1 3.9 3.9 0 0 1-3.3-1.3 8.5 8.5 0 0 1-1.2-4.4z"/><circle cx="741.8" cy="76.9" r="31.8" fill="#3c3670"/><path fill="#fff" d="M729.1 80.9l14.7-20.4h.3l4.7.6V80h4.5l.4.6-.5 4.6h-4.4q0 1.6.1 3t.1 2.6.2 2.5l-.4.5-6.4.7-.4-.6v-9l-6.8-.2h-6.5zm5.7-.9h7.5v-9.9h-.6z"/><circle cx="1041.8" cy="76.9" r="31.8" fill="#3c3670"/><path fill="#fff" d="M1051.2 81.5a8.7 8.7 0 0 1-1.5 4.8 15.7 15.7 0 0 1-3.9 4.1 20.6 20.6 0 0 1-5.4 2.8 17.8 17.8 0 0 1-5.9 1.1 5.6 5.6 0 0 1-1.9-.3 2.9 2.9 0 0 1-1.3-.9 4.9 4.9 0 0 1-.8-1.7 13.4 13.4 0 0 1-.4-2.7l.7-.8 2.3.6 2.4.2a13.3 13.3 0 0 0 3.3-.4 9.6 9.6 0 0 0 2.7-1.1 5.4 5.4 0 0 0 1.8-1.7 3.9 3.9 0 0 0 .6-2.2 3.6 3.6 0 0 0-.5-1.9 4.3 4.3 0 0 0-1.8-1.5 15.6 15.6 0 0 0-3.2-1.1l-4.9-.9-.5-.6q.3-2.7.5-5.4t.3-4.8.3-4.8l.4-.4 10.7-.4a5.7 5.7 0 0 0 2.3-.5 3 3 0 0 0 1.2-1.7l3.1-.2-1.4 8.2-.7.7-3.3-.2-3.5-.2h-4.3l-.4 4.9a45.9 45.9 0 0 1 5.6 1.4 17 17 0 0 1 4.1 1.9 8.4 8.4 0 0 1 2.6 2.6 6.3 6.3 0 0 1 .7 3.1z"/><circle cx="1306.8" cy="76.9" r="31.8" fill="#3c3670"/><path fill="#fff" d="M1316.4 58.9a27.1 27.1 0 0 0-5 2.7 26 26 0 0 0-4.1 3.6 16.5 16.5 0 0 0-3.4 5.3l.3.3.7-.4 1.3-.6 1.4-.6 1.2-.4a9.7 9.7 0 0 1 4 .8 9.3 9.3 0 0 1 3 2.1 8.3 8.3 0 0 1 1.8 3 10.7 10.7 0 0 1 .6 3.6 11.7 11.7 0 0 1-.9 4.5 10.5 10.5 0 0 1-2.4 3.6 10.8 10.8 0 0 1-3.8 2.3 14.2 14.2 0 0 1-5 .8 10.8 10.8 0 0 1-4.5-.9 10 10 0 0 1-3.4-2.5 10.8 10.8 0 0 1-2.2-3.8 14.9 14.9 0 0 1-.7-4.9 18.6 18.6 0 0 1 .8-5.7 21.1 21.1 0 0 1 2.2-4.7 19.9 19.9 0 0 1 3.1-3.8 28.7 28.7 0 0 1 3.6-2.9 34.3 34.3 0 0 1 9.7-4.7l.6.3zm-9.6 14.7a6.2 6.2 0 0 0-2.6.6l-1.8 1q-.1.6-.1 1.2t0 1.2a9.8 9.8 0 0 0 1.3 5.5 4.2 4.2 0 0 0 3.7 2 4.1 4.1 0 0 0 3.3-1.4 6 6 0 0 0 1.2-4 6.8 6.8 0 0 0-1.3-4.2 4.3 4.3 0 0 0-3.7-1.9z"/></svg>