<svg xmlns="http://www.w3.org/2000/svg" width="1280" height="720" data-name="Layer 1" viewBox="0 0 1280 720"><rect width="183.3" height="754.2" x="758" y="-228.5" fill="none" stroke="#bcbec0" stroke-dasharray="1 5" stroke-miterlimit="10" rx="22" ry="22" transform="rotate(90 849.6 148.6)"/><rect width="734.2" height="163.29" x="482.5" y="67" fill="#fff" stroke="#bcbec0" stroke-miterlimit="10" stroke-width="10" rx="12" ry="12"/><path fill="#939598" d="M790.9 83.9h1.2l-1.9 9.4h5.2l-.2 1.1h-6.5zm9.4 8.7a3.4 3.4 0 0 1 .1-.8l.9-4.2h-2.8l.2-1h4.1l-1.2 5.3a3.2 3.2 0 0 0-.1.5 1.1 1.1 0 0 0 1.2 1.2 3.6 3.6 0 0 0 1.5-.4l.3.9a4.7 4.7 0 0 1-2.1.5 1.9 1.9 0 0 1-2.1-2zm1.1-8.5a1.1 1.1 0 0 1 1.1-1.1.8.8 0 0 1 .9.8 1.1 1.1 0 0 1-1.1 1.1.8.8 0 0 1-.9-.8zm7.1 2.5h1l-.2 1.6h.1a5.1 5.1 0 0 1 3.5-1.8 1.8 1.8 0 0 1 2 1.9 6.8 6.8 0 0 1-.1 1.3l-1 4.8h-1.2l.9-4.6a4.5 4.5 0 0 0 .1-1.1 1.1 1.1 0 0 0-1.2-1.2 4.7 4.7 0 0 0-3.2 1.9l-1 5H807zm8.5 4.6a4.6 4.6 0 0 1 4.4-4.8 2.8 2.8 0 0 1 3 3 5 5 0 0 1-.2 1.4h-6a2.5 2.5 0 0 0 0 .4 2.2 2.2 0 0 0 2.3 2.4 4.3 4.3 0 0 0 2.7-1l.5.8a5.5 5.5 0 0 1-3.4 1.2 3.1 3.1 0 0 1-3.3-3.4zm1.4-1.4h4.8a2.4 2.4 0 0 0 0-.5 1.8 1.8 0 0 0-1.9-2 3.3 3.3 0 0 0-2.9 2.6zm8.1 3.4l.7-.8a3.9 3.9 0 0 0 3 1.2c1.1 0 1.9-.4 1.9-1.2s-.8-1.1-2-1.5-2.3-1.2-2.3-2.3 1.3-2.2 2.9-2.2a4.6 4.6 0 0 1 3.2 1.3l-.7.8a4.1 4.1 0 0 0-2.7-1.1c-1 0-1.6.4-1.6 1.1s.7 1 1.9 1.5 2.5 1 2.5 2.3-1.5 2.4-3.3 2.4a4.7 4.7 0 0 1-3.5-1.5zm19-2a4.6 4.6 0 0 1 4.5-4.8 3.1 3.1 0 0 1 3.2 3.4 4.6 4.6 0 0 1-4.5 4.8 3.1 3.1 0 0 1-3.2-3.4zm6.5-1.3c0-1.5-.8-2.5-2.1-2.5a3.5 3.5 0 0 0-3.1 3.7c0 1.5.8 2.5 2.1 2.5a3.5 3.5 0 0 0 3.1-3.7zm6.5-2.3h-2.2l.2-.9h2.3l.2-.9c.4-2.1 1.6-2.9 3.4-2.9a3.5 3.5 0 0 1 2.3.8l-.6.8a2.5 2.5 0 0 0-1.6-.6 2.1 2.1 0 0 0-2.2 2l-.2.8h3.3l-.2 1h-3.3l-1.4 6.8h-1.2zm16.2 3.6a4.7 4.7 0 0 1 4.7-4.7 3.6 3.6 0 0 1 2.9 1.4l-.8.7a2.7 2.7 0 0 0-2.3-1.1 3.6 3.6 0 0 0-3.3 3.6 2.3 2.3 0 0 0 2.5 2.5 3.9 3.9 0 0 0 2.5-1.1l.5.8a4.8 4.8 0 0 1-3.1 1.3 3.3 3.3 0 0 1-3.6-3.4zm9.2 0a4.6 4.6 0 0 1 4.5-4.8 3.1 3.1 0 0 1 3.2 3.4 4.6 4.6 0 0 1-4.5 4.8 3.1 3.1 0 0 1-3.2-3.4zm6.5-1.3c0-1.5-.8-2.5-2.1-2.5a3.5 3.5 0 0 0-3.1 3.7c0 1.5.8 2.5 2.1 2.5a3.5 3.5 0 0 0 3.1-3.7zm3.2 1.7c0-2.8 1.9-5.2 4.3-5.2a2.7 2.7 0 0 1 2.4 1.1l.3-1.5.6-3h1.2l-2.3 11.4h-1v-1.2h-.1a4.2 4.2 0 0 1-2.9 1.4c-1.4 0-2.5-1-2.5-3zm5.7.4l.7-3.5a2.3 2.3 0 0 0-2-1.2c-1.8 0-3.2 1.9-3.2 4s.7 2.1 1.8 2.1a3.8 3.8 0 0 0 2.7-1.3zm4.1-.8a4.6 4.6 0 0 1 4.4-4.8 2.8 2.8 0 0 1 3 3 5 5 0 0 1-.2 1.4h-6a2.5 2.5 0 0 0 0 .4 2.2 2.2 0 0 0 2.3 2.4 4.3 4.3 0 0 0 2.7-1l.5.8a5.5 5.5 0 0 1-3.4 1.2 3.1 3.1 0 0 1-3.3-3.4zm1.4-1.4h4.8a2.5 2.5 0 0 0 0-.5 1.8 1.8 0 0 0-1.9-2 3.3 3.3 0 0 0-2.9 2.6z"/><path fill="#58595b" d="M573.4 116.3v1.9h-7.3v-1.9h2.6v-5.9h-2.1v-1.5a7.8 7.8 0 0 0 2.7-.9h1.7v8.3zm132.3.5c2.9-2.4 4.9-4.2 4.9-5.6a1.5 1.5 0 0 0-1.7-1.5 3.1 3.1 0 0 0-2 1l-1.3-1.3a4.7 4.7 0 0 1 3.6-1.6c2.1 0 3.6 1.3 3.6 3.2s-1.8 3.5-3.7 5.3h4.3v2h-7.6zm140.9-1.4a3.8 3.8 0 0 0 2.5 1c1.1 0 1.9-.4 1.9-1.2s-.7-1.5-3.1-1.5V112c2 0 2.7-.5 2.7-1.4s-.6-1.1-1.5-1.1a3.4 3.4 0 0 0-2.2.9l-1.2-1.4a5.4 5.4 0 0 1 3.5-1.3c2.2 0 3.7 1 3.7 2.8s-.7 1.8-1.9 2.3a2.7 2.7 0 0 1 2.3 2.5c0 1.9-1.9 3-4 3a4.9 4.9 0 0 1-3.8-1.4zm147.1.3h-1.3v2.4h-2.2v-2.4h-4.9v-1.6l4.2-6.1h2.8v6h1.3zm-3.5-1.8v-1.7c0-.6 0-1.6.1-2.2h-.1l-1.1 1.7-1.5 2.2zm136.4 1.6a3.7 3.7 0 0 0 2.4 1c1.2 0 2-.5 2-1.6s-.8-1.6-1.9-1.6a3 3 0 0 0-1.7.5l-1-.7.3-5.1h6.2v2h-4.2l-.2 1.9 1.3-.2c1.9 0 3.5 1 3.5 3.2s-1.9 3.6-4 3.6a5.2 5.2 0 0 1-3.8-1.4z"/><path fill="#fff" d="M627.1 236.1v-96.4a12 12 0 0 0-12-12h-91a12 12 0 0 0-12 12v96.4"/><path fill="none" stroke="#bcbec0" stroke-linecap="round" stroke-linejoin="round" stroke-width="3" d="M627.1 236.1v-.5"/><path fill="none" stroke="#bcbec0" stroke-dasharray=".99 4.96" stroke-linecap="round" stroke-linejoin="round" stroke-width="3" d="M627.1 230.6v-90.9a12 12 0 0 0-12-12h-91a12 12 0 0 0-12 12v93.4"/><path fill="none" stroke="#bcbec0" stroke-linecap="round" stroke-linejoin="round" stroke-width="3" d="M512.1 235.6v.5"/><path fill="#fff" d="M1187.1 236.1v-96.4a12 12 0 0 0-12-12h-91a12 12 0 0 0-12 12v96.4"/><path fill="none" stroke="#bcbec0" stroke-linecap="round" stroke-linejoin="round" stroke-width="3" d="M1187.1 236.1v-.5"/><path fill="none" stroke="#bcbec0" stroke-dasharray=".99 4.96" stroke-linecap="round" stroke-linejoin="round" stroke-width="3" d="M1187.1 230.6v-90.9a12 12 0 0 0-12-12h-91a12 12 0 0 0-12 12v93.4"/><path fill="none" stroke="#bcbec0" stroke-linecap="round" stroke-linejoin="round" stroke-width="3" d="M1072.1 235.6v.5"/><path fill="#fff" d="M1047.1 236.1v-96.4a12 12 0 0 0-12-12h-91a12 12 0 0 0-12 12v96.4"/><path fill="none" stroke="#bcbec0" stroke-linecap="round" stroke-linejoin="round" stroke-width="3" d="M1047.1 236.1v-.5"/><path fill="none" stroke="#bcbec0" stroke-dasharray=".99 4.96" stroke-linecap="round" stroke-linejoin="round" stroke-width="3" d="M1047.1 230.6v-90.9a12 12 0 0 0-12-12h-91a12 12 0 0 0-12 12v93.4"/><path fill="none" stroke="#bcbec0" stroke-linecap="round" stroke-linejoin="round" stroke-width="3" d="M932.1 235.6v.5"/><path fill="#fff" d="M907.1 236.1v-96.4a12 12 0 0 0-12-12h-91a12 12 0 0 0-12 12v96.4"/><path fill="none" stroke="#bcbec0" stroke-linecap="round" stroke-linejoin="round" stroke-width="3" d="M907.1 236.1v-.5"/><path fill="none" stroke="#bcbec0" stroke-dasharray=".99 4.96" stroke-linecap="round" stroke-linejoin="round" stroke-width="3" d="M907.1 230.6v-90.9a12 12 0 0 0-12-12h-91a12 12 0 0 0-12 12v93.4"/><path fill="none" stroke="#bcbec0" stroke-linecap="round" stroke-linejoin="round" stroke-width="3" d="M792.1 235.6v.5"/><path fill="#fff" d="M767.1 236.1v-96.4a12 12 0 0 0-12-12h-91a12 12 0 0 0-12 12v96.4"/><path fill="none" stroke="#bcbec0" stroke-linecap="round" stroke-linejoin="round" stroke-width="3" d="M767.1 236.1v-.5"/><path fill="none" stroke="#bcbec0" stroke-dasharray=".99 4.96" stroke-linecap="round" stroke-linejoin="round" stroke-width="3" d="M767.1 230.6v-90.9a12 12 0 0 0-12-12h-91a12 12 0 0 0-12 12v93.4"/><path fill="none" stroke="#bcbec0" stroke-linecap="round" stroke-linejoin="round" stroke-width="3" d="M652.1 235.6v.5"/><rect width="115" height="115" x="1072.1" y="127.4" fill="#b4d44f" rx="12" ry="12"/><rect width="95" height="95" x="1082.1" y="137.4" fill="none" stroke="#849f3a" stroke-miterlimit="10" stroke-width="8" rx="2" ry="2" transform="rotate(90 1129.6 184.9)"/><path fill="#657d2b" d="M1117.2 176.4a4.4 4.4 0 0 0 2.8 1.2c1.3 0 2-.5 2-1.3s-.7-1.1-1.8-1.5l-1.4-.6a3 3 0 0 1-2.2-2.8c0-1.7 1.5-2.9 3.6-2.9a4.9 4.9 0 0 1 3.4 1.3l-1 1.2a3.7 3.7 0 0 0-2.4-.9c-1.1 0-1.8.5-1.8 1.2s.8 1.1 1.8 1.5l1.4.6c1.3.5 2.3 1.3 2.3 2.8s-1.4 3.1-3.9 3.1a5.7 5.7 0 0 1-3.9-1.5zm12.6-5.4a3.4 3.4 0 0 1 3.6 3.7 5.4 5.4 0 0 1-.1.9h-5.7a2.5 2.5 0 0 0 2.6 2.2 4.4 4.4 0 0 0 2.2-.6l.6 1.2a5.9 5.9 0 0 1-3.1.9 4.1 4.1 0 1 1-.3-8.2zm2 3.4a1.8 1.8 0 0 0-1.9-2 2.2 2.2 0 0 0-2.2 2zm5.6-1.8h-2.1v-1.4h2.2l.2-2.1h1.5v2.1h3.6v1.5h-3.6v3.2c0 1.3.5 1.9 1.8 1.9a4.9 4.9 0 0 0 1.7-.3l.3 1.3a7.8 7.8 0 0 1-2.5.4c-2.4 0-3.2-1.3-3.2-3.4zm-45.8 15.2h2l1.5 5.3.9 3.4h.1c.4-1.2.6-2.2.9-3.4l1.5-5.3h1.9l-3.2 10.5h-2.2zm15.8 5.4c-.1-.9-.6-1.5-1.9-1.5a5.6 5.6 0 0 0-2.6.8l-.7-1.2a7.3 7.3 0 0 1 3.6-1.1 3.1 3.1 0 0 1 3.4 3.4v4.7h-1.5v-1a5.1 5.1 0 0 1-2.9 1.2 2.4 2.4 0 0 1-2.6-2.3c-.3-1.8 1.3-2.7 5.2-3zm-2.2 3.8a3.7 3.7 0 0 0 2.2-1v-1.7c-2.8.2-3.6.8-3.6 1.6s.5 1.1 1.3 1.1zm7.3-6.6h1.5l.2 1.8a3.9 3.9 0 0 1 3.3-2 3.2 3.2 0 0 1 1.5.3l-.4 1.6-1.4-.2a3.3 3.3 0 0 0-2.9 2.1v4.3h-1.9zm8.8 0h5.3v7.9h-1.8v-6.4h-3.4zm2.9-2.6a1.3 1.3 0 0 1 2.6 0 1.3 1.3 0 0 1-2.6 0zm12 5.4c-.1-.9-.6-1.5-1.9-1.5a5.6 5.6 0 0 0-2.6.8l-.7-1.2a7.3 7.3 0 0 1 3.6-1.1 3.1 3.1 0 0 1 3.4 3.4v4.7h-1.5v-1a5.1 5.1 0 0 1-2.9 1.2 2.4 2.4 0 0 1-2.6-2.3c-.3-1.8 1.3-2.7 5.2-3zm-2.2 3.8a3.7 3.7 0 0 0 2.2-1v-1.7c-2.8.2-3.6.8-3.6 1.6s.5 1.1 1.3 1.1zm6.5-10.1h1.9v4.3a3.7 3.7 0 0 1 2.4-1c2 0 3.2 1.6 3.2 4s-1.7 4.3-3.5 4.3a3.5 3.5 0 0 1-2.3-1.1l-.2.9h-1.5zm3.6 10c1.1 0 2-.9 2-2.7s-.5-2.5-1.8-2.5a2.6 2.6 0 0 0-1.9.9v3.5a2.6 2.6 0 0 0 1.7.8zm5.8-10h4.3v8.5a1.3 1.3 0 0 0 1.4 1.5l1.3-.3.4 1.4a6.1 6.1 0 0 1-2.2.4c-1.8 0-2.8-1.1-2.8-3.1v-7h-2.5zm13.5 3.3a3.4 3.4 0 0 1 3.6 3.7 5.4 5.4 0 0 1-.1.9h-5.7a2.5 2.5 0 0 0 2.6 2.2 4.4 4.4 0 0 0 2.2-.6l.6 1.2a5.9 5.9 0 0 1-3.1.9 4.1 4.1 0 1 1-.3-8.2zm2 3.4a1.8 1.8 0 0 0-1.9-2 2.2 2.2 0 0 0-2.2 2z"/><rect width="115" height="115" x="512.1" y="127.4" fill="#fbef4b" rx="12" ry="12"/><rect width="95" height="95" x="522.1" y="137.4" fill="none" stroke="#b4ae39" stroke-miterlimit="10" stroke-width="8" rx="2" ry="2" transform="rotate(90 569.6 184.9)"/><path fill="#807d24" d="M551.6 168.6h1.9l1.3 4.1.4 1.6.4-1.6 1.2-4.1h1.9V179h-1.5v-4.6c0-1 .1-3 .2-4l-.8 2.6-1.1 3.2h-.9l-1.1-3.2-.7-2.6c.1 1 .2 3 .2 4v4.6h-1.5zm13.2 2.4a4.1 4.1 0 1 1-4 4.1 3.9 3.9 0 0 1 4-4.1zm0 6.7c1.3 0 2-1 2-2.6s-.8-2.6-2-2.6-2 1-2 2.6.7 2.6 2 2.6zm5.5-6.5h1.9l1.5 4.1.8 2.4h.1l.8-2.4 1.5-4.1h1.8l-3.1 7.9h-2.1zm13.9-.2a3.4 3.4 0 0 1 3.6 3.7 5.4 5.4 0 0 1-.1.9H582a2.5 2.5 0 0 0 2.6 2.2 4.4 4.4 0 0 0 2.2-.6l.6 1.2a5.9 5.9 0 0 1-3.1.9 4.1 4.1 0 1 1-.3-8.2zm2 3.4a1.8 1.8 0 0 0-1.9-2 2.2 2.2 0 0 0-2.2 2zm-41.3 14.1a4.5 4.5 0 0 0-1.7-.3 1.5 1.5 0 0 0-1.7 1.7v.5h3v1.5h-3v6.4h-1.8v-6.4h-2.2v-1.4h2.2v-.5a3 3 0 0 1 3.3-3.2 6.5 6.5 0 0 1 2.3.4zm5.5 1.7a4.1 4.1 0 1 1-4 4.1 3.9 3.9 0 0 1 4-4.1zm0 6.7c1.3 0 2-1 2-2.6s-.8-2.6-2-2.6-2 1-2 2.6.7 2.6 2 2.6zm6.9-6.5h1.5l.2 1.8a3.9 3.9 0 0 1 3.3-2 3.2 3.2 0 0 1 1.5.3l-.4 1.6-1.4-.2a3.3 3.3 0 0 0-2.9 2.1v4.3h-1.9zm7.6 0h1.8l.7 4.1c.1.8.2 1.5.3 2.3h.1c.1-.8.2-1.5.4-2.3l.7-3.3h1.4l.8 3.3c.2.8.3 1.5.4 2.3h.1c.1-.8.2-1.5.3-2.3l.7-4.1h1.7l-1.5 7.9h-2.2l-.6-3.3-.4-2.3h-.1c-.1.6-.2 1.3-.4 2.3l-.7 3.3h-2.1zm16.1 2.8c-.1-.9-.6-1.5-1.9-1.5a5.6 5.6 0 0 0-2.6.8l-.7-1.2a7.3 7.3 0 0 1 3.6-1.1 3.1 3.1 0 0 1 3.4 3.4v4.7h-1.5v-1a5.1 5.1 0 0 1-2.9 1.2 2.4 2.4 0 0 1-2.6-2.3c-.3-1.8 1.3-2.7 5.2-3zm-2.2 3.8a3.7 3.7 0 0 0 2.2-1v-1.7c-2.8.2-3.6.8-3.6 1.6s.5 1.1 1.3 1.1zm7.3-6.6h1.5l.2 1.8a3.9 3.9 0 0 1 3.3-2 3.2 3.2 0 0 1 1.5.3l-.4 1.6-1.4-.2a3.3 3.3 0 0 0-2.9 2.1v4.3H586zm11.8-.2a3.1 3.1 0 0 1 2.2.9v-4.2h1.9v11.3h-1.5v-.9a3.5 3.5 0 0 1-2.4 1.1c-2 0-3.4-1.5-3.4-4.1s1.4-4.1 3.2-4.1zm.3 6.7a2.3 2.3 0 0 0 1.8-.9v-3.5a2.3 2.3 0 0 0-1.7-.7c-1.1 0-2 .9-2 2.6s.8 2.5 2 2.5z"/><rect width="115" height="115" x="652.1" y="127.4" fill="#fbef4b" rx="12" ry="12"/><rect width="95" height="95" x="662.1" y="137.4" fill="none" stroke="#b4ae39" stroke-miterlimit="10" stroke-width="8" rx="2" ry="2" transform="rotate(90 709.6 184.9)"/><path fill="#807d24" d="M691.6 168.6h1.9l1.3 4.1.4 1.6.4-1.6 1.2-4.1h1.9V179h-1.5v-4.6c0-1 .1-3 .2-4l-.8 2.6-1.1 3.2h-.9l-1.1-3.2-.7-2.6c.1 1 .2 3 .2 4v4.6h-1.5zm13.2 2.4a4.1 4.1 0 1 1-4 4.1 3.9 3.9 0 0 1 4-4.1zm0 6.7c1.3 0 2-1 2-2.6s-.8-2.6-2-2.6-2 1-2 2.6.7 2.6 2 2.6zm5.5-6.5h1.9l1.5 4.1.8 2.4h.1l.8-2.4 1.5-4.1h1.8l-3.1 7.9h-2.1zm13.9-.2a3.4 3.4 0 0 1 3.6 3.7 5.4 5.4 0 0 1-.1.9H722a2.5 2.5 0 0 0 2.6 2.2 4.4 4.4 0 0 0 2.2-.6l.6 1.2a5.9 5.9 0 0 1-3.1.9 4.1 4.1 0 1 1-.3-8.2zm2 3.4a1.8 1.8 0 0 0-1.9-2 2.2 2.2 0 0 0-2.2 2zm-41.3 14.1a4.5 4.5 0 0 0-1.7-.3 1.5 1.5 0 0 0-1.7 1.7v.5h3v1.5h-3v6.4h-1.8v-6.4h-2.2v-1.4h2.2v-.5a3 3 0 0 1 3.3-3.2 6.5 6.5 0 0 1 2.3.4zm5.5 1.7a4.1 4.1 0 1 1-4 4.1 3.9 3.9 0 0 1 4-4.1zm0 6.7c1.3 0 2-1 2-2.6s-.8-2.6-2-2.6-2 1-2 2.6.7 2.6 2 2.6zm6.9-6.5h1.5l.2 1.8a3.9 3.9 0 0 1 3.3-2 3.2 3.2 0 0 1 1.5.3l-.4 1.6-1.4-.2a3.3 3.3 0 0 0-2.9 2.1v4.3h-1.9zm7.6 0h1.8l.7 4.1c.1.8.2 1.5.3 2.3h.1c.1-.8.2-1.5.4-2.3l.7-3.3h1.4l.8 3.3c.2.8.3 1.5.4 2.3h.1c.1-.8.2-1.5.3-2.3l.7-4.1h1.7l-1.5 7.9h-2.2l-.6-3.3-.4-2.3h-.1c-.1.6-.2 1.3-.4 2.3l-.7 3.3h-2.1zm16.1 2.8c-.1-.9-.6-1.5-1.9-1.5a5.6 5.6 0 0 0-2.6.8l-.7-1.2a7.3 7.3 0 0 1 3.6-1.1 3.1 3.1 0 0 1 3.4 3.4v4.7h-1.5v-1a5.1 5.1 0 0 1-2.9 1.2 2.4 2.4 0 0 1-2.6-2.3c-.3-1.8 1.3-2.7 5.2-3zm-2.2 3.8a3.7 3.7 0 0 0 2.2-1v-1.7c-2.8.2-3.6.8-3.6 1.6s.5 1.1 1.3 1.1zm7.3-6.6h1.5l.2 1.8a3.9 3.9 0 0 1 3.3-2 3.2 3.2 0 0 1 1.5.3l-.4 1.6-1.4-.2a3.3 3.3 0 0 0-2.9 2.1v4.3H726zm11.8-.2a3.1 3.1 0 0 1 2.2.9v-4.2h1.9v11.3h-1.5v-.9a3.5 3.5 0 0 1-2.4 1.1c-2 0-3.4-1.5-3.4-4.1s1.4-4.1 3.2-4.1zm.3 6.7a2.3 2.3 0 0 0 1.8-.9v-3.5a2.3 2.3 0 0 0-1.7-.7c-1.1 0-2 .9-2 2.6s.8 2.5 2 2.5z"/><rect width="115" height="115" x="932.1" y="127.4" fill="#fbef4b" rx="12" ry="12"/><rect width="95" height="95" x="942.1" y="137.4" fill="none" stroke="#b4ae39" stroke-miterlimit="10" stroke-width="8" rx="2" ry="2" transform="rotate(90 989.6 184.9)"/><path fill="#807d24" d="M971.6 168.6h1.9l1.3 4.1.4 1.6.4-1.6 1.2-4.1h1.9V179h-1.5v-4.6c0-1 .1-3 .2-4l-.8 2.6-1.1 3.2h-.9l-1.1-3.2-.7-2.6c.1 1 .2 3 .2 4v4.6h-1.5zm13.2 2.4a4.1 4.1 0 1 1-4 4.1 3.9 3.9 0 0 1 4-4.1zm0 6.7c1.3 0 2-1 2-2.6s-.8-2.6-2-2.6-2 1-2 2.6.7 2.6 2 2.6zm5.5-6.5h1.9l1.5 4.1.8 2.4h.1l.8-2.4 1.5-4.1h1.8l-3.1 7.9h-2.1zm13.9-.2a3.4 3.4 0 0 1 3.6 3.7 5.4 5.4 0 0 1-.1.9h-5.7a2.5 2.5 0 0 0 2.6 2.2 4.4 4.4 0 0 0 2.2-.6l.6 1.2a5.9 5.9 0 0 1-3.1.9 4.1 4.1 0 1 1-.3-8.2zm2 3.4a1.8 1.8 0 0 0-1.9-2 2.2 2.2 0 0 0-2.2 2zm-41.3 14.1a4.5 4.5 0 0 0-1.7-.3 1.5 1.5 0 0 0-1.7 1.7v.5h3v1.5h-3v6.4h-1.8v-6.4h-2.2v-1.4h2.2v-.5a3 3 0 0 1 3.3-3.2 6.5 6.5 0 0 1 2.3.4zm5.5 1.7a4.1 4.1 0 1 1-4 4.1 3.9 3.9 0 0 1 4-4.1zm0 6.7c1.3 0 2-1 2-2.6s-.8-2.6-2-2.6-2 1-2 2.6.7 2.6 2 2.6zm6.9-6.5h1.5l.2 1.8a3.9 3.9 0 0 1 3.3-2 3.2 3.2 0 0 1 1.5.3l-.4 1.6-1.4-.2a3.3 3.3 0 0 0-2.9 2.1v4.3h-1.9zm7.6 0h1.8l.7 4.1c.1.8.2 1.5.3 2.3h.1c.1-.8.2-1.5.4-2.3l.7-3.3h1.4l.8 3.3c.2.8.3 1.5.4 2.3h.1c.1-.8.2-1.5.3-2.3l.7-4.1h1.7l-1.5 7.9h-2.2l-.6-3.3-.4-2.3h-.1c-.1.6-.2 1.3-.4 2.3l-.7 3.3h-2.1zm16.1 2.8c-.1-.9-.6-1.5-1.9-1.5a5.6 5.6 0 0 0-2.6.8l-.7-1.2a7.3 7.3 0 0 1 3.6-1.1 3.1 3.1 0 0 1 3.4 3.4v4.7h-1.5v-1a5.1 5.1 0 0 1-2.9 1.2 2.4 2.4 0 0 1-2.6-2.3c-.3-1.8 1.3-2.7 5.2-3zm-2.2 3.8a3.7 3.7 0 0 0 2.2-1v-1.7c-2.8.2-3.6.8-3.6 1.6s.5 1.1 1.3 1.1zm7.3-6.6h1.5l.2 1.8a3.9 3.9 0 0 1 3.3-2 3.2 3.2 0 0 1 1.5.3l-.4 1.6-1.4-.2a3.3 3.3 0 0 0-2.9 2.1v4.3h-1.9zm11.8-.2a3.1 3.1 0 0 1 2.2.9v-4.2h1.9v11.3h-1.5v-.9a3.5 3.5 0 0 1-2.4 1.1c-2 0-3.4-1.5-3.4-4.1s1.4-4.1 3.2-4.1zm.3 6.7a2.3 2.3 0 0 0 1.8-.9v-3.5a2.3 2.3 0 0 0-1.7-.7c-1.1 0-2 .9-2 2.6s.8 2.5 2 2.5z"/><path fill="#e6e7e8" stroke="#bcbec0" stroke-dasharray=".84 4.19" stroke-linecap="round" stroke-linejoin="round" stroke-width="2.51" d="M147 579.2h85.7v85.65H147z"/><path fill="#fff" stroke="#bcbec0" stroke-dasharray=".84 4.19" stroke-linecap="round" stroke-linejoin="round" stroke-width="2.51" d="M147 493.6h85.7v85.65H147zm0-85.7h85.7v85.65H147z"/><path fill="#fff" stroke="#bcbec0" stroke-dasharray=".84 4.19" stroke-linecap="round" stroke-linejoin="round" stroke-width="2.51" d="M147 322.3h85.7v85.65H147zm0-85.7h85.7v85.65H147z"/><path fill="#fff" stroke="#bcbec0" stroke-dasharray=".84 4.19" stroke-linecap="round" stroke-linejoin="round" stroke-width="2.51" d="M147 151h85.7v85.65H147zm0-85.7h85.7v85.65H147zm171.3 513.9H404v85.65h-85.7z"/><path fill="#fff" stroke="#bcbec0" stroke-dasharray=".84 4.19" stroke-linecap="round" stroke-linejoin="round" stroke-width="2.51" d="M318.3 493.6H404v85.65h-85.7zm0-85.7H404v85.65h-85.7z"/><path fill="#fff" stroke="#bcbec0" stroke-dasharray=".84 4.19" stroke-linecap="round" stroke-linejoin="round" stroke-width="2.51" d="M318.3 322.3H404v85.65h-85.7zm0-85.7H404v85.65h-85.7z"/><path fill="#fff" stroke="#bcbec0" stroke-dasharray=".84 4.19" stroke-linecap="round" stroke-linejoin="round" stroke-width="2.51" d="M318.3 151H404v85.65h-85.7zm0-85.7H404v85.65h-85.7z"/><path fill="#fff" stroke="#bcbec0" stroke-dasharray=".84 4.19" stroke-linecap="round" stroke-linejoin="round" stroke-width="2.51" d="M232.7 65.3h85.7v85.65h-85.7zm0 513.9h85.7v85.65h-85.7zM61.4 407.9h85.7v85.65H61.4z"/><path fill="#231f20" d="M162.8 627l1-.8a3.6 3.6 0 0 0 3.2 1.7c1.5 0 2.7-.9 2.7-2.3s-.6-1.5-1.5-2l-1.4-.8a3.5 3.5 0 0 1-2-3c0-1.9 1.6-3.3 3.7-3.3a4.4 4.4 0 0 1 3.6 1.8l-1 .8a3.4 3.4 0 0 0-2.7-1.4 2 2 0 0 0-2.2 1.9 2.3 2.3 0 0 0 1.4 1.9l1.5.9a3.4 3.4 0 0 1 2 3c0 2.3-1.8 3.6-4.1 3.6a4.6 4.6 0 0 1-4.2-2zm13.3-.4a6.7 6.7 0 0 1 .1-1.2l.9-4.3h-2.6l.2-1.1h2.7l.8-2.9h1.2l-.6 2.9h4.4l-.2 1.1h-4.4l-.9 4.4a3.6 3.6 0 0 0-.1.8 1.5 1.5 0 0 0 1.7 1.7 4.9 4.9 0 0 0 2.3-.6l.5 1a6.2 6.2 0 0 1-3.2.8c-1.9-.1-2.8-1.1-2.8-2.6zm9.2-.9c0-3.2 2.2-6 4.9-6a3.1 3.1 0 0 1 2.8 1.3h.1l.4-1.1h1.1l-1.8 9h-1.2v-1.4h-.1a4.8 4.8 0 0 1-3.3 1.6c-1.7 0-2.9-1.2-2.9-3.4zm6.6.5l.8-4a2.7 2.7 0 0 0-2.3-1.3c-2.1 0-3.7 2.2-3.7 4.6s.8 2.5 2.1 2.5a4.4 4.4 0 0 0 3.1-1.8zm7.1-6.3h1.2l-.4 2.6h.1c1-1.5 2.5-2.8 4-2.8a3.1 3.1 0 0 1 1.8.5l-.6 1.2a2.6 2.6 0 0 0-1.5-.4c-1.4 0-2.8 1.3-4.1 3.2l-.9 4.7h-1.4zm10.5 6.7a6.7 6.7 0 0 1 .1-1.2l.9-4.3h-2.6l.2-1.1h2.7l.8-2.9h1.2l-.6 2.9h4.4l-.2 1.1H212l-.9 4.4a3.6 3.6 0 0 0-.1.8 1.5 1.5 0 0 0 1.7 1.7 4.9 4.9 0 0 0 2.3-.6l.5 1a6.2 6.2 0 0 1-3.2.8c-2-.1-2.8-1.1-2.8-2.6z"/><path fill="#2865b0" d="M383.5 445.6H338a1 1 0 1 1 0-2.1h45.5a1 1 0 1 1 0 2.1z"/><path fill="#2865b0" d="M385.4 444.5a1 1 0 0 0-.1-.6l-8.1-14.9h-31.8l-8.3 14.8v.2a1 1 0 0 0 .1 1.2l23.3 27.5h1.6l23.3-27.5a1 1 0 0 0 0-.7zm-24.3 26l-22-26 7.8-13.9h28.7l7.6 13.8z"/><path fill="#2865b0" d="M351.7 444.7h-.4a1 1 0 0 1-.5-1.4l6.2-13.7a1 1 0 1 1 1.9.9l-6.2 13.7a1 1 0 0 1-1 .5zm19.2 0a1 1 0 0 1-1-.6l-6.2-13.8a1 1 0 1 1 1.9-.9l6.2 13.8a1 1 0 0 1-.5 1.4z"/><path fill="#2865b0" d="M371.3 444.3a1 1 0 0 0-1.3.6c-1.3 3.6-2.7 7.1-4 10.6s-3.3 8.4-4.7 12.6l-8.5-23.2a1 1 0 0 0-2 .7l9.1 24.9a13.5 13.5 0 0 0 1.3 1.1h.3a1 1 0 0 0 1-.7c1.6-4.9 3.5-9.6 5.5-14.7 1.4-3.5 2.8-7.1 4.1-10.6a1 1 0 0 0-.8-1.3zm12.2 87H338a1 1 0 1 1 0-2.1h45.5a1 1 0 1 1 0 2.1z"/><path fill="#2865b0" d="M385.4 530.1a1 1 0 0 0-.1-.6l-8.1-14.9h-31.8l-8.3 14.8v.2a1 1 0 0 0 .1 1.2l23.3 27.5h1.6l23.3-27.5a1 1 0 0 0 0-.7zm-24.3 26l-22-26 7.8-13.9h28.7l7.6 13.8z"/><path fill="#2865b0" d="M351.7 530.3h-.4a1 1 0 0 1-.5-1.4l6.2-13.7a1 1 0 1 1 1.9.9l-6.2 13.7a1 1 0 0 1-1 .5zm19.2 0a1 1 0 0 1-1-.6l-6.2-13.8a1 1 0 1 1 1.9-.9l6.2 13.8a1 1 0 0 1-.5 1.4z"/><path fill="#2865b0" d="M371.3 530a1 1 0 0 0-1.3.6c-1.3 3.6-2.7 7.1-4 10.6s-3.3 8.4-4.7 12.6l-8.5-23.2a1 1 0 0 0-2 .7l9.1 24.9a13.5 13.5 0 0 0 1.3 1.1h.3a1 1 0 0 0 1-.7c1.6-4.9 3.5-9.6 5.5-14.7 1.4-3.5 2.8-7.1 4.1-10.6a1 1 0 0 0-.8-1.3zm12.2 86.9H338a1 1 0 1 1 0-2.1h45.5a1 1 0 1 1 0 2.1z"/><path fill="#2865b0" d="M385.4 615.8a1 1 0 0 0-.1-.6l-8.1-14.9h-31.8l-8.3 14.7v.2a1 1 0 0 0 .1 1.2l23.1 27.6h1.6l23.3-27.5a1 1 0 0 0 .2-.7zm-24.3 26l-22-26 7.8-13.9h28.7l7.6 13.8z"/><path fill="#2865b0" d="M351.7 616h-.4a1 1 0 0 1-.5-1.4l6.2-13.7a1 1 0 1 1 1.9.9l-6.2 13.7a1 1 0 0 1-1 .5zm19.2 0a1 1 0 0 1-1-.6l-6.2-13.8a1 1 0 1 1 1.9-.9l6.2 13.8a1 1 0 0 1-.5 1.4z"/><path fill="#2865b0" d="M371.3 615.6a1 1 0 0 0-1.3.6c-1.3 3.6-2.7 7.1-4 10.6s-3.3 8.4-4.7 12.6l-8.5-23.2a1 1 0 0 0-2 .7l9.1 24.9a13.5 13.5 0 0 0 1.3 1.1h.3a1 1 0 0 0 1-.7c1.6-4.9 3.5-9.6 5.5-14.7 1.4-3.5 2.8-7.1 4.1-10.6a1 1 0 0 0-.8-1.3zM383.5 360H338a1 1 0 1 1 0-2.1h45.5a1 1 0 1 1 0 2.1z"/><path fill="#2865b0" d="M385.4 358.8a1 1 0 0 0-.1-.6l-8.1-14.9h-31.8l-8.3 14.8v.2a1 1 0 0 0 .1 1.2l23.3 27.5h1.6l23.3-27.5a1 1 0 0 0 0-.7zm-24.3 26l-22-26 7.8-13.9h28.7l7.6 13.8z"/><path fill="#2865b0" d="M351.7 359h-.4a1 1 0 0 1-.5-1.4l6.2-13.7a1 1 0 1 1 1.9.9l-6.2 13.7a1 1 0 0 1-1 .5zm19.2 0a1 1 0 0 1-1-.6l-6.2-13.8a1 1 0 1 1 1.9-.9l6.2 13.8a1 1 0 0 1-.5 1.4z"/><path fill="#2865b0" d="M371.3 358.7a1 1 0 0 0-1.3.6c-1.3 3.6-2.7 7.1-4 10.6s-3.3 8.4-4.7 12.6l-8.5-23.2a1 1 0 0 0-2 .7l9.1 24.9a13.5 13.5 0 0 0 1.3 1.1h.3a1 1 0 0 0 1-.7c1.6-4.9 3.5-9.6 5.5-14.7 1.4-3.5 2.8-7.1 4.1-10.6a1 1 0 0 0-.8-1.3z"/><path fill="none" stroke="#253979" stroke-miterlimit="10" stroke-width="2.09" d="M88.1 465.7l-12.8-14.9 12.8-15h32.2l12.8 15-12.8 14.9H88.1zm-9-10.5l8.9-10.1"/><path fill="none" stroke="#72c6ef" stroke-miterlimit="10" stroke-width="2.09" d="M173.8 380l-12.9-14.9 12.9-14.9h32.1l12.9 14.9-12.9 14.9h-32.1zm26.6-18.8H215"/><path fill="none" stroke="#bcbec0" stroke-miterlimit="10" stroke-width="2.09" d="M210.6 195.1l-8.9-10.1m-27.9 23.7l-12.9-14.9 12.9-14.9h32.1l12.9 14.9-12.9 14.9h-32.1z"/><path fill="#579577" d="M361.1 169.9a23.9 23.9 0 1 0 23.9 23.9 24 24 0 0 0-23.9-23.9zm13.4 23.3l-3.5-8.3 5.5-5.5a21 21 0 0 1 5.7 13.9zm-22.4 10.6l8.3 3.5v7.9a21.3 21.3 0 0 1-13.9-5.7zm9.7 3.5l8.3-3.5 5.5 5.5a21 21 0 0 1-13.9 5.7zm8-4.7l-8.7 3.6-8.7-3.6-3.6-8.7 3.6-8.7 8.7-3.6 8.7 3.6 3.6 8.7zm.3-18.6l-8.3-3.5v-7.9a21.3 21.3 0 0 1 13.9 5.7zm-9.6-3.5l-8.3 3.5-5.6-5.5a21 21 0 0 1 13.9-5.7v7.8zm-14.8-1.2l5.5 5.5-3.5 8.3h-7.9a21.2 21.2 0 0 1 5.9-13.8zm-5.8 15.3h7.9l3.5 8.3-5.5 5.5a21.2 21.2 0 0 1-5.9-13.9zm36.7 13.9l-5.5-5.6 3.5-8.3h7.9a21.2 21.2 0 0 1-5.9 13.8z"/><path fill="#231f20" d="M404 65.3v599.6H147V493.6H61.4v-85.7H147V65.3h257M232.7 579.2h85.7V151h-85.7v428.2M412.3 57H138.6v342.6H53V502h85.7v171.3h273.6V57zM241 159.4h68.9v411.5H241V159.4z"/><rect width="115" height="115" x="792.1" y="127.4" fill="#fbef4b" rx="12" ry="12"/><rect width="95" height="95" x="802.1" y="137.4" fill="none" stroke="#b4ae39" stroke-miterlimit="10" stroke-width="8" rx="2" ry="2" transform="rotate(90 849.6 184.9)"/><path fill="#807d24" d="M834.3 156.5H831v-1.6h8.5v1.6h-3.3v8.9h-1.9zm13.9 8.9h-1.5v-1.2h-.1a3.6 3.6 0 0 1-2.8 1.4c-1.8 0-2.6-1.2-2.6-3.2v-4.9h1.8v4.6c0 1.3.4 1.8 1.5 1.8a2.4 2.4 0 0 0 2-1.2v-5.3h1.8zm3.5-7.9h1.5l.2 1.8a3.9 3.9 0 0 1 3.3-2 3.2 3.2 0 0 1 1.5.3l-.4 1.6-1.4-.2a3.3 3.3 0 0 0-2.9 2.1v4.3h-1.9zm8.8 0h1.5v1.2h.1a3.9 3.9 0 0 1 2.8-1.4c1.8 0 2.6 1.2 2.6 3.2v4.9h-1.9v-4.6c0-1.3-.4-1.8-1.5-1.8a2.7 2.7 0 0 0-2 1.1v5.4h-1.9z"/><rect width="73.4" height="40.91" x="812.9" y="180.2" fill="none" stroke="#b4ae39" stroke-dasharray="1 5" stroke-linecap="round" stroke-linejoin="round" stroke-width="3" rx="7.3" ry="7.3"/><path fill="#807d24" d="M829.6 194.9h1.5l1.5 7.2 1.4-7.2h1.1l-1.7 8.7H832l-1.5-7.2-1.4 7.2H828zm6.4 6.2l.8-4.1h1.1l-.8 4.1v.8a.9.9 0 0 0 .3.7 1.1 1.1 0 0 0 .8.2 1.7 1.7 0 0 0 1.3-.5 3 3 0 0 0 .7-1.5l.7-3.7h1.1l-1.3 6.6h-1.1l.2-1a3 3 0 0 1-.9.9 2.3 2.3 0 0 1-1.1.3 1.7 1.7 0 0 1-1.2-.4 1.6 1.6 0 0 1-.4-1.2v-.5zm10.8-3.4a1.6 1.6 0 0 1 .6-.6l.8-.2a1.1 1.1 0 0 1 .8.3 1.2 1.2 0 0 1 .3.9 5.5 5.5 0 0 1-.1.7l-.2 1-.7 3.8h-1l.7-3.8.2-.9v-.5a.8.8 0 0 0-.1-.5l-.4-.2a.8.8 0 0 0-.7.4 5.6 5.6 0 0 0-.5 1.7l-.7 3.8h-1l.7-3.8.2-.9v-.5a.8.8 0 0 0-.1-.5l-.4-.2a.8.8 0 0 0-.7.3 5.7 5.7 0 0 0-.5 1.7l-.7 3.8h-1l1.3-6.6h1v.6l.6-.5.7-.2.7.2a.9.9 0 0 1 .2.7zm5.4.2a2.5 2.5 0 0 1 .8-.7l1.1-.3a1.9 1.9 0 0 1 1.5.6 2.5 2.5 0 0 1 .5 1.7 6.2 6.2 0 0 1-.2 1.7 5.2 5.2 0 0 1-.7 1.5 3.3 3.3 0 0 1-1.1 1 2.7 2.7 0 0 1-1.4.4 1.7 1.7 0 0 1-1-.3 1.5 1.5 0 0 1-.6-.7l-.2.8h-.9l1.8-9.1h1.1zm.6 5l.9-.3a2.1 2.1 0 0 0 .7-.8 5.8 5.8 0 0 0 .6-2.5 1.8 1.8 0 0 0-.3-1.1 1.1 1.1 0 0 0-.9-.4l-.9.3a2.3 2.3 0 0 0-.7.8 4.8 4.8 0 0 0-.5 1.2 5.5 5.5 0 0 0-.2 1.3 1.7 1.7 0 0 0 .3 1.1 1.1 1.1 0 0 0 1 .4zm9.7.4l-1.2.4h-1.2a2.8 2.8 0 0 1-2-.7 2.5 2.5 0 0 1-.7-1.9 4.8 4.8 0 0 1 .4-1.8 4.6 4.6 0 0 1 1-1.5 3.5 3.5 0 0 1 1.1-.8l1.2-.3a2.3 2.3 0 0 1 1.7.7 2.5 2.5 0 0 1 .7 1.8v1.3h-4.7v.6a1.6 1.6 0 0 0 .5 1.2 1.8 1.8 0 0 0 1.3.4l1.1-.2 1.3-.5zm-.1-3.5v-.5a1.5 1.5 0 0 0-.4-1.1 1.4 1.4 0 0 0-1.1-.4 1.9 1.9 0 0 0-1.3.5 2.9 2.9 0 0 0-.9 1.4zm8.6-1.4l-.6-.4h-.8a2.3 2.3 0 0 0-1.6.7 3.4 3.4 0 0 0-.9 1.8l-.6 3.2h-1.1l1.3-6.6h1.1l-.2 1.3a2.8 2.8 0 0 1 1-1.1 2.7 2.7 0 0 1 1.4-.4h.8l.6.3z"/><path fill="#f9f294" d="M819.8 221.8c1.8 0 1.9-2.6 0-6.6 1.7-2 1.7-4.3 1.2-6.7s-.5-2.5-.8-3.8a19.6 19.6 0 0 1-.5-3.9c2.3-1.8 5.7-3.5 2-5.2s-5.2-3.3-2-4.9c1.1-1.6 4.2-3-1.8-4.3 8.8-1.3-4.9-2.5 1.8-3.5 11.8-2-1.7-3.1 0-3.1h59.1c12.3 0 4.8.6 1 1.8-.5.6-7.4 1.3-5.6 2.1-.9.8 13.8 1.7 4.6 2.7s7.9 2-.7 3.2c8.3 1.1-2.9 2.3.7 3.5-13.1 1.3-2.8 2.5 1.2 3.8s.3 2.6-1.2 3.9-3.2 2.6-3.6 3.9a5.4 5.4 0 0 0 .4 3.8c1.1 2.5 3.2 4.8 3.2 6.7 1.5 3.9-5.4 6.6 0 6.6h-59z"/><path fill="#231f20" d="M840.7 192.8l.8-.8 1.4-1.5 1.8-1.8 1.9-1.7 1.8-1.3a2.8 2.8 0 0 1 1.4-.5 4 4 0 0 1 1.8.5 7 7 0 0 1 1.7 1.2 6.9 6.9 0 0 1 1.3 1.8 4.2 4.2 0 0 1 .5 2v11.7q0 2.6-.1 4.9-.1 2.2-.3 3.8a4.1 4.1 0 0 1-.5 1.9 2.3 2.3 0 0 1-1.7.3 9.4 9.4 0 0 1-2.4-.5 8.4 8.4 0 0 1-2.2-1.2 2.6 2.6 0 0 1-1.1-1.6 11.9 11.9 0 0 1 0-2.2l.2-3.7q.1-2.1.2-4.4t.1-4.2a25.3 25.3 0 0 0-.1-3.2q-.1-1.3-.5-1.3a3.1 3.1 0 0 0-1.4.3l-1.4.8-1.3 1-1 .8a1.2 1.2 0 0 1-.8.3l-.5-.2a.7.7 0 0 1-.1-.6 1 1 0 0 1 .5-.6z"/></svg>