<svg xmlns="http://www.w3.org/2000/svg" width="1280" height="720" viewBox="0 0 1280 720"><defs><style>.a,.ab,.ac,.f,.g,.i,.o,.p,.q,.t,.v,.y{fill:none}.a,.b,.f,.g,.k,.l,.q{stroke:#bcbec0}.a,.b,.i,.o,.p,.q,.t,.y{stroke-miterlimit:10}.a,.v,.z{stroke-dasharray:1 5}.b,.e,.l{fill:#fff}.b{stroke-width:10px}.c{fill:#939598}.d{fill:#58595b}.ab,.ac,.f,.g,.k,.l,.v,.z{stroke-linecap:round;stroke-linejoin:round}.ab,.ac,.f,.g,.v,.z{stroke-width:3px}.g{stroke-dasharray:.99 4.96}.h{fill:#b4d44f}.i{stroke:#849f3a}.i,.t,.y{stroke-width:8px}.j{fill:#657d2b}.k{fill:#e6e7e8}.k,.l{stroke-width:2.51px;stroke-dasharray:.84 4.19}.m{fill:#231f20}.n{fill:#2865b0}.o{stroke:#253979}.o,.p,.q{stroke-width:2.09px}.p{stroke:#72c6ef}.r{fill:#579577}.s{fill:#fbef4b}.t,.v{stroke:#b4ae39}.u{fill:#807d24}.w{fill:#f9f294}.x,.z{fill:#f9a11b}.ab,.ac,.y,.z{stroke:#b97810}.aa{fill:#905d00}.ac{stroke-dasharray:.99 4.96}</style></defs><rect width="183.3" height="754.2" x="758" y="-228.5" class="a" rx="22" ry="22" transform="rotate(90 849.6 148.6)"/><rect width="734.2" height="163.29" x="482.5" y="67" class="b" rx="12" ry="12"/><path d="M789.9 82.7h1.6l-2 10.3h5.6l-.3 1.3h-7.2zm9.5 3h3.7l-1.5 7.6h2.9l-.2 1.1h-7.1l.2-1.1h2.9l1.3-6.5h-2.2zm2.9-3.4h1.4l-.4 1.8H802zm12.3 6.7l-1.1 5.4h-1.4l1.1-5.4a4.5 4.5 0 0 0 .1-.9 1.3 1.3 0 0 0-.4-1 1.5 1.5 0 0 0-1-.3 2.2 2.2 0 0 0-1.7.7 4 4 0 0 0-1 2l-1 4.9h-1.4l1.7-8.7h1.4l-.1 1.3a4.3 4.3 0 0 1 1.3-1.1 2.9 2.9 0 0 1 1.4-.4 2.4 2.4 0 0 1 1.7.6 2.1 2.1 0 0 1 .6 1.6 5.3 5.3 0 0 1 0 .6v.7zm8.8 5l-1.6.5-1.6.2a3.7 3.7 0 0 1-2.6-.9 3.4 3.4 0 0 1-.9-2.5 6.4 6.4 0 0 1 .5-2.4 6.1 6.1 0 0 1 1.3-2 4.6 4.6 0 0 1 1.4-1 4 4 0 0 1 1.6-.4 3.1 3.1 0 0 1 2.3.9 3.3 3.3 0 0 1 .9 2.4v1.7h-6.3v.5a3.2 3.2 0 0 0 0 .4 2.2 2.2 0 0 0 .6 1.7 2.5 2.5 0 0 0 1.8.6l1.5-.2 1.7-.7zm-.2-4.7v-.6a2 2 0 0 0-.5-1.5 1.9 1.9 0 0 0-1.4-.5 2.6 2.6 0 0 0-1.8.7 3.9 3.9 0 0 0-1.1 1.9h4.7zm10.7-3.3l-.3 1.4-1.2-.5-1.2-.2a2.9 2.9 0 0 0-1.7.4 1.3 1.3 0 0 0-.6 1.1q0 .8 1.7 1.2h.7a2.8 2.8 0 0 1 1.4.7 1.7 1.7 0 0 1 .5 1.2 2.8 2.8 0 0 1-1.1 2.3 4.7 4.7 0 0 1-3 .9h-1.3l-1.5-.4.3-1.5 1.4.6 1.3.2a2.9 2.9 0 0 0 1.7-.5 1.4 1.4 0 0 0 .7-1.2q0-.8-1.5-1.2h-.7a3 3 0 0 1-1.5-.8 1.8 1.8 0 0 1-.5-1.3 2.5 2.5 0 0 1 1-2.1 4.5 4.5 0 0 1 2.8-.8h1.3zm16.5-.6a3.1 3.1 0 0 1 2.3.8 3.4 3.4 0 0 1 .8 2.4 7.4 7.4 0 0 1-.3 2.1 6.9 6.9 0 0 1-.9 1.9 4.1 4.1 0 0 1-1.5 1.4 4.3 4.3 0 0 1-2 .5 2.9 2.9 0 0 1-2.2-.9 3.5 3.5 0 0 1-.8-2.4 7.2 7.2 0 0 1 .3-2.1 7.4 7.4 0 0 1 .9-1.9 4.2 4.2 0 0 1 1.5-1.4 4 4 0 0 1 1.9-.4zm-.1 1.2a2.5 2.5 0 0 0-2.1 1.3 6.2 6.2 0 0 0-.9 3.4 2.3 2.3 0 0 0 .4 1.5 1.6 1.6 0 0 0 1.3.5 2.5 2.5 0 0 0 2.1-1.3 6.2 6.2 0 0 0 .9-3.4 2.3 2.3 0 0 0-.4-1.5 1.6 1.6 0 0 0-1.4-.4zm13.8-4.3l-.2 1.2h-1.6a1.7 1.7 0 0 0-1.1.3 1.9 1.9 0 0 0-.5 1.1l-.2.8h3l-.2 1.1h-3l-1.5 7.6h-1.4l1.5-7.6h-2.3l.2-1.1h2.2v-.6a3.7 3.7 0 0 1 1.1-2.2 3.3 3.3 0 0 1 2.2-.6h1.7zM881 94l-1.2.5-1.4.2a3.6 3.6 0 0 1-2.6-.9 3.5 3.5 0 0 1-.9-2.6 6.5 6.5 0 0 1 .4-2.3 5.6 5.6 0 0 1 1.1-1.9 4.9 4.9 0 0 1 1.6-1.2 4.7 4.7 0 0 1 1.9-.4l1.3.2 1.3.5-.3 1.4-1.1-.7-1.2-.2a3.2 3.2 0 0 0-1.5.3 3.1 3.1 0 0 0-1.1 1 5.2 5.2 0 0 0-.7 1.5 5.7 5.7 0 0 0-.2 1.6 2.4 2.4 0 0 0 .5 1.7 2.1 2.1 0 0 0 1.6.6l1.4-.2 1.3-.7zm7.9-8.6a3.1 3.1 0 0 1 2.3.8 3.4 3.4 0 0 1 .8 2.4 7.4 7.4 0 0 1-.3 2.1 6.9 6.9 0 0 1-.9 1.9 4.1 4.1 0 0 1-1.5 1.4 4.3 4.3 0 0 1-2 .5 2.9 2.9 0 0 1-2.2-.9 3.5 3.5 0 0 1-.8-2.4 7.2 7.2 0 0 1 .3-2.1 7.4 7.4 0 0 1 .9-1.9 4.2 4.2 0 0 1 1.5-1.4 4 4 0 0 1 1.9-.4zm-.1 1.2a2.5 2.5 0 0 0-2.1 1.3 6.2 6.2 0 0 0-.9 3.4 2.3 2.3 0 0 0 .4 1.5 1.6 1.6 0 0 0 1.3.5 2.5 2.5 0 0 0 2.1-1.3 6.2 6.2 0 0 0 .9-3.4 2.3 2.3 0 0 0-.4-1.5 1.6 1.6 0 0 0-1.3-.4zm11.6.2l.9-4.5h1.4l-2.4 12.2h-1.4l.2-1.1a3.5 3.5 0 0 1-1.2 1 3 3 0 0 1-1.4.3 2.5 2.5 0 0 1-2-.8 3.4 3.4 0 0 1-.7-2.3 8.4 8.4 0 0 1 .3-2.2 7.2 7.2 0 0 1 .9-2 4.2 4.2 0 0 1 1.4-1.4 3.4 3.4 0 0 1 1.8-.5 2.5 2.5 0 0 1 1.3.3 2.3 2.3 0 0 1 .9 1zm-2.1-.1a2.2 2.2 0 0 0-1.2.3 2.7 2.7 0 0 0-.9 1 6.4 6.4 0 0 0-.6 1.6 7.8 7.8 0 0 0-.2 1.8 2.4 2.4 0 0 0 .4 1.5 1.4 1.4 0 0 0 1.2.5 2.1 2.1 0 0 0 1.2-.4 2.8 2.8 0 0 0 .9-1 6.1 6.1 0 0 0 .6-1.6 7.6 7.6 0 0 0 .2-1.8 2.3 2.3 0 0 0-.4-1.5 1.4 1.4 0 0 0-1.2-.4zm11.8 7.3l-1.6.5-1.6.2a3.7 3.7 0 0 1-2.6-.9 3.4 3.4 0 0 1-.9-2.5 6.4 6.4 0 0 1 .5-2.4 6.1 6.1 0 0 1 1.3-2 4.6 4.6 0 0 1 1.4-1 4 4 0 0 1 1.6-.4 3.1 3.1 0 0 1 2.3.9 3.3 3.3 0 0 1 .9 2.4v1.7h-6.3v.5a3.2 3.2 0 0 0 0 .4 2.2 2.2 0 0 0 .6 1.7 2.5 2.5 0 0 0 1.8.6l1.5-.2 1.7-.7zm-.2-4.7v-.6a2 2 0 0 0-.5-1.5 1.9 1.9 0 0 0-1.4-.5 2.6 2.6 0 0 0-1.8.7 3.9 3.9 0 0 0-1.1 1.9h4.7z" class="c"/><path d="M566.3 116.2h2.6v-7.6l-2.4.6v-2.1l2.4-.6h2.2v9.6h2.6v2h-7.4v-2zm141.9 0h4.9v2h-7.4v-2l1.3-1.3 2.7-2.9a5.9 5.9 0 0 0 .8-1.2 2.3 2.3 0 0 0 .3-1 1.5 1.5 0 0 0-.5-1.2 1.9 1.9 0 0 0-1.3-.4l-1.4.2-1.6.7V107l1.6-.5 1.5-.2a4.5 4.5 0 0 1 2.9.9 2.9 2.9 0 0 1 1.1 2.4 3.6 3.6 0 0 1-.2 1.3 5.5 5.5 0 0 1-.8 1.3l-2.3 2.4zm140.9-3.2h-1.2v-2h1.2a2.3 2.3 0 0 0 1.3-.3 1.1 1.1 0 0 0 .5-1 1.2 1.2 0 0 0-.5-1 2.1 2.1 0 0 0-1.3-.4l-1.4.2-1.6.5v-2.1l1.6-.4h1.5a4.6 4.6 0 0 1 2.9.8 2.7 2.7 0 0 1 1 2.2 2.4 2.4 0 0 1-.6 1.7 2.9 2.9 0 0 1-1.7.9 3.1 3.1 0 0 1 1.9 1 3.1 3.1 0 0 1 .7 2 3.2 3.2 0 0 1-1.1 2.6 4.9 4.9 0 0 1-3.2.9h-1.7l-1.6-.4v-2.1l1.6.6 1.8.2a2.3 2.3 0 0 0 1.5-.4 1.4 1.4 0 0 0 .5-1.2 1.8 1.8 0 0 0-.5-1.4 2.2 2.2 0 0 0-1.6-.9zm140.9-6.5h2.4v7.2h1.3v2h-1.3v2.5h-2.2v-2.5h-4.6v-2.2zm.2 2.6l-2.9 4.6h2.9v-4.6zm136.1-2.6h6.3v2h-4.5v2.2l.6-.2h.7a3.8 3.8 0 0 1 2.8 1.1 3.9 3.9 0 0 1 1.1 2.8 3.7 3.7 0 0 1-1.2 2.9 4.5 4.5 0 0 1-3.2 1.1h-1.5l-1.6-.4v-2.1l1.3.5 1.4.2a2.9 2.9 0 0 0 1.9-.5 2.1 2.1 0 0 0 0-3 2.5 2.5 0 0 0-1.7-.6l-1.2.2-1.3.5v-6.5z" class="d"/><path d="M627.1 236.1v-96.4a12 12 0 0 0-12-12h-91a12 12 0 0 0-12 12v96.4" class="e"/><path d="M627.1 236.1v-.5" class="f"/><path d="M627.1 230.6v-90.9a12 12 0 0 0-12-12h-91a12 12 0 0 0-12 12v93.4" class="g"/><path d="M512.1 235.6v.5" class="f"/><path d="M1187.1 236.1v-96.4a12 12 0 0 0-12-12h-91a12 12 0 0 0-12 12v96.4" class="e"/><path d="M1187.1 236.1v-.5" class="f"/><path d="M1187.1 230.6v-90.9a12 12 0 0 0-12-12h-91a12 12 0 0 0-12 12v93.4" class="g"/><path d="M1072.1 235.6v.5" class="f"/><path d="M1047.1 236.1v-96.4a12 12 0 0 0-12-12h-91a12 12 0 0 0-12 12v96.4" class="e"/><path d="M1047.1 236.1v-.5" class="f"/><path d="M1047.1 230.6v-90.9a12 12 0 0 0-12-12h-91a12 12 0 0 0-12 12v93.4" class="g"/><path d="M932.1 235.6v.5" class="f"/><path d="M907.1 236.1v-96.4a12 12 0 0 0-12-12h-91a12 12 0 0 0-12 12v96.4" class="e"/><path d="M907.1 236.1v-.5" class="f"/><path d="M907.1 230.6v-90.9a12 12 0 0 0-12-12h-91a12 12 0 0 0-12 12v93.4" class="g"/><path d="M792.1 235.6v.5" class="f"/><path d="M767.1 236.1v-96.4a12 12 0 0 0-12-12h-91a12 12 0 0 0-12 12v96.4" class="e"/><path d="M767.1 236.1v-.5" class="f"/><path d="M767.1 230.6v-90.9a12 12 0 0 0-12-12h-91a12 12 0 0 0-12 12v93.4" class="g"/><path d="M652.1 235.6v.5" class="f"/><rect width="115" height="115" x="652.1" y="127.5" class="h" rx="12" ry="12"/><rect width="95" height="95" x="662.1" y="137.5" class="i" rx="2" ry="2" transform="rotate(90 709.6 185)"/><path d="M699.1 174.1a5.9 5.9 0 0 1-2.4-1.4 2.9 2.9 0 0 1-.6-2 3.2 3.2 0 0 1 1-2.5 4 4 0 0 1 2.8-.9l1.6.2 1.6.5v2.3l-1.5-.8-1.5-.3a2.1 2.1 0 0 0-1.3.3 1.1 1.1 0 0 0-.4 1 1.1 1.1 0 0 0 .3.8l1.4.7 1 .4a4.5 4.5 0 0 1 2.1 1.4 3.4 3.4 0 0 1 .7 2.1 3.2 3.2 0 0 1-1 2.6 4.8 4.8 0 0 1-3.2.9l-1.7-.2-1.7-.6v-2.4a7.8 7.8 0 0 0 1.8 1 4.9 4.9 0 0 0 1.7.3 2 2 0 0 0 1.3-.4 1.3 1.3 0 0 0 .5-1.1 1.4 1.4 0 0 0-.3-.9 2.1 2.1 0 0 0-.9-.6zm14.3 4.6l-1.6.5-1.7.2a4.5 4.5 0 0 1-3.4-1.2 4.6 4.6 0 0 1-1.2-3.4 4.9 4.9 0 0 1 1.1-3.4 4.4 4.4 0 0 1 6.1-.1 4.6 4.6 0 0 1 1.1 3.2v.9h-5.9a1.9 1.9 0 0 0 .6 1.5 2.7 2.7 0 0 0 1.8.5l1.6-.2 1.6-.7v2.1zm-1.9-4.9a2 2 0 0 0-.5-1.4 1.8 1.8 0 0 0-1.3-.5 1.7 1.7 0 0 0-1.3.5 2.2 2.2 0 0 0-.6 1.4h3.6zm8.3-5.9v2.5h3v1.8h-3v4.1a1.1 1.1 0 0 0 .3.8 1.4 1.4 0 0 0 .9.3h1.8v1.8h-1.9a4.1 4.1 0 0 1-2.7-.6 3.1 3.1 0 0 1-.7-2.3v-4h-2.2v-1.8h2.2V168h2.3zm-43.9 28.5l2.1-9.7h2.3l-2.8 11.7h-3.2l-2.8-11.7h2.3zm13.5-3v5h-2.3v-1a2.8 2.8 0 0 1-1.1.9 3.7 3.7 0 0 1-3.8-.5 2.9 2.9 0 0 1-.8-2.2 2.6 2.6 0 0 1 1-2.3 5.2 5.2 0 0 1 3.1-.7h1.6v-.4a1 1 0 0 0-.4-.8 2 2 0 0 0-1.2-.3l-1.6.2-1.6.7v-2l1.5-.5h1.7a4.2 4.2 0 0 1 3 .9 4.4 4.4 0 0 1 .9 3zm-3.2.9a3.5 3.5 0 0 0-1.8.3 1.2 1.2 0 0 0-.5 1.1 1.2 1.2 0 0 0 1.3 1.3 1.6 1.6 0 0 0 1.4-.7 3.2 3.2 0 0 0 .5-1.9v-.2h-.9zm13.1-2.3l-.9-.5-1.1-.2-1.3.3a1.9 1.9 0 0 0-.8.7 2 2 0 0 0-.3.7 8 8 0 0 0-.1 1.3v4h-2.3v-8.7h2.3v1.4a2.5 2.5 0 0 1 1-1.2 3.1 3.1 0 0 1 1.6-.4h.9l.9.3v2.3zm2.4-2.4h4.5v7h2.8v1.8h-8v-1.8h2.9v-5.2h-2.2v-1.8zm2.2-4.3h2.3v2.7h-2.3v-2.7zm14.4 8.1v5H716v-1a2.8 2.8 0 0 1-1.1.9 3.7 3.7 0 0 1-3.8-.5 2.9 2.9 0 0 1-.8-2.2 2.6 2.6 0 0 1 1-2.3 5.2 5.2 0 0 1 3.1-.7h1.6v-.4a1 1 0 0 0-.4-.8 2 2 0 0 0-1.2-.3l-1.6.2-1.6.7v-2l1.5-.5h1.7a4.2 4.2 0 0 1 3 .9 4.4 4.4 0 0 1 .9 3zm-3.2.9a3.5 3.5 0 0 0-1.8.3 1.2 1.2 0 0 0-.5 1.1 1.2 1.2 0 0 0 1.3 1.3 1.6 1.6 0 0 0 1.4-.7 3.2 3.2 0 0 0 .5-1.9v-.2h-.9zm7.6-3.4a3.2 3.2 0 0 1 1-1.1 2.3 2.3 0 0 1 1.3-.4 2.8 2.8 0 0 1 2.4 1.2 5.9 5.9 0 0 1 .8 3.4 5.9 5.9 0 0 1-.8 3.4 2.7 2.7 0 0 1-2.3 1.2 2.5 2.5 0 0 1-1.4-.4 2.7 2.7 0 0 1-.9-1.1v1.3h-2.3v-12.2h2.3v4.6zm3.2 3.2a3.9 3.9 0 0 0-.4-2 1.3 1.3 0 0 0-1.2-.7 1.3 1.3 0 0 0-1.2.7 4.8 4.8 0 0 0 0 4 1.3 1.3 0 0 0 1.2.7 1.3 1.3 0 0 0 1.2-.7 3.9 3.9 0 0 0 .4-2.1zm6 .6V188h-2.3v-1.8h4.6v8.5a2.5 2.5 0 0 0 .3 1.5 1.3 1.3 0 0 0 1.1.4h1.8v1.8h-2.5a2.9 2.9 0 0 1-2.3-.8 4.4 4.4 0 0 1-.7-2.9zm15.2 3.2l-1.6.5-1.7.2a4.5 4.5 0 0 1-3.4-1.2 4.6 4.6 0 0 1-1.2-3.4 4.9 4.9 0 0 1 1.1-3.4 4.4 4.4 0 0 1 6.1-.1 4.6 4.6 0 0 1 1.1 3.2v.9h-5.9a1.9 1.9 0 0 0 .6 1.5 2.7 2.7 0 0 0 1.8.5l1.6-.2 1.6-.7v2.1zm-1.9-4.9a2 2 0 0 0-.5-1.4 1.8 1.8 0 0 0-1.3-.5 1.7 1.7 0 0 0-1.3.5 2.2 2.2 0 0 0-.6 1.4h3.6z" class="j"/><path d="M147 579.2h85.7v85.65H147z" class="k"/><path d="M147 493.6h85.7v85.65H147zm0-85.7h85.7v85.65H147zm0-85.6h85.7v85.65H147zm0-85.7h85.7v85.65H147zm0-85.6h85.7v85.65H147zm0-85.7h85.7v85.65H147zm171.3 513.9H404v85.65h-85.7zm0-85.6H404v85.65h-85.7zm0-85.7H404v85.65h-85.7zm0-85.6H404v85.65h-85.7zm0-85.7H404v85.65h-85.7zm0-85.6H404v85.65h-85.7zm0-85.7H404v85.65h-85.7zm-85.6 0h85.7v85.65h-85.7zm0 513.9h85.7v85.65h-85.7zM61.4 407.9h85.7v85.65H61.4z" class="l"/><path d="M172.3 615.9l-.4 1.9-1.5-.8-1.6-.3a3.8 3.8 0 0 0-2.4.7 2.3 2.3 0 0 0-.9 1.9 1.3 1.3 0 0 0 .4 1 4.5 4.5 0 0 0 1.6.8l1.1.4a4.7 4.7 0 0 1 2.2 1.2 2.8 2.8 0 0 1 .7 1.9 4.1 4.1 0 0 1-1.5 3.4 6.2 6.2 0 0 1-4.1 1.2l-1.9-.2-1.8-.6.4-1.9a6.8 6.8 0 0 0 1.8.9 6.1 6.1 0 0 0 1.9.3 3.6 3.6 0 0 0 2.4-.8 2.5 2.5 0 0 0 .9-2 1.6 1.6 0 0 0-.4-1.1 4 4 0 0 0-1.6-.8l-.9-.3a5.8 5.8 0 0 1-2.3-1.2 2.4 2.4 0 0 1-.7-1.8 4.1 4.1 0 0 1 1.5-3.3 5.8 5.8 0 0 1 3.9-1.3l1.5.2zm7.8 0l-.6 2.9h3.8l-.3 1.3h-3.8l-1.1 5.5v.5a3.8 3.8 0 0 0 0 .4.9.9 0 0 0 .4.8 2.4 2.4 0 0 0 1.3.2h1.9l-.3 1.3h-2a3.9 3.9 0 0 1-2.2-.5 1.8 1.8 0 0 1-.7-1.6 4.4 4.4 0 0 1 0-.5v-.7l1.1-5.5h-2.7l.3-1.3h2.7l.6-2.9h1.7zm13.8 7.2l-1.1 5.8h-1.7l.3-1.5a4.5 4.5 0 0 1-1.5 1.3 4 4 0 0 1-1.9.5 3.2 3.2 0 0 1-2.2-.8 2.6 2.6 0 0 1-.8-2 3.4 3.4 0 0 1 1.4-2.8 6.1 6.1 0 0 1 3.8-1.1h2.2v-1a1.4 1.4 0 0 0-.6-1.2 2.8 2.8 0 0 0-1.6-.4l-1.7.2-1.9.7.3-1.6 1.9-.5 1.7-.2a4.1 4.1 0 0 1 2.6.7 2.5 2.5 0 0 1 .9 2.1 7 7 0 0 1-.1.8zm-3.4.7h-1.6l-.9.2a2.1 2.1 0 0 0-1 .8 2.2 2.2 0 0 0-.4 1.2 1.6 1.6 0 0 0 .5 1.2 1.7 1.7 0 0 0 1.3.4 3.2 3.2 0 0 0 2.3-1 5 5 0 0 0 1.3-2.6v-.4h-1.6zm15.6-2.9l-.9-.6-1.2-.2a3.5 3.5 0 0 0-2.5 1 5.2 5.2 0 0 0-1.5 2.9l-1 5h-1.7l2-10.1h1.7l-.4 2a4.3 4.3 0 0 1 1.6-1.7 4.2 4.2 0 0 1 2.2-.6l1.2.2.9.5zm7.4-5l-.6 2.9h3.8l-.3 1.3h-3.8l-1.1 5.5v.5a3.6 3.6 0 0 0 0 .4.9.9 0 0 0 .4.8 2.4 2.4 0 0 0 1.3.2h1.8l-.3 1.3h-2a3.9 3.9 0 0 1-2.2-.5 1.8 1.8 0 0 1-.7-1.6 4.8 4.8 0 0 1 0-.5v-.7l1.1-5.5h-2.7l.3-1.3h2.7l.6-2.9h1.7z" class="m"/><path d="M383.5 445.6H338a1 1 0 1 1 0-2.1h45.5a1 1 0 1 1 0 2.1zm1.9-1.1a1 1 0 0 0-.1-.6l-8.1-14.9h-31.8l-8.3 14.8v.2a1 1 0 0 0 .1 1.2l23.3 27.5h1.6l23.3-27.5a1 1 0 0 0 0-.7zm-24.3 26l-22-26 7.8-13.9h28.7l7.6 13.8zm-9.4-25.8h-.4a1 1 0 0 1-.5-1.4l6.2-13.7a1 1 0 1 1 1.9.9l-6.2 13.7a1 1 0 0 1-1 .5zm19.2 0a1 1 0 0 1-1-.6l-6.2-13.8a1 1 0 1 1 1.9-.9l6.2 13.8a1 1 0 0 1-.5 1.4h-.4zm.4-.4a1 1 0 0 0-1.3.6c-1.3 3.6-2.7 7.1-4 10.6s-3.3 8.4-4.7 12.6l-8.5-23.2a1 1 0 0 0-2 .7l9.1 24.9a13.5 13.5 0 0 0 1.3 1.1h.3a1 1 0 0 0 1-.7c1.6-4.9 3.5-9.6 5.5-14.7 1.4-3.5 2.8-7.1 4.1-10.6a1 1 0 0 0-.8-1.3zm12.2 87H338a1 1 0 1 1 0-2.1h45.5a1 1 0 1 1 0 2.1zm1.9-1.2a1 1 0 0 0-.1-.6l-8.1-14.9h-31.8l-8.3 14.8v.2a1 1 0 0 0 .1 1.2l23.3 27.5h1.6l23.3-27.5a1 1 0 0 0 0-.7zm-24.3 26l-22-26 7.8-13.9h28.7l7.6 13.8zm-9.4-25.8h-.4a1 1 0 0 1-.5-1.4l6.2-13.7a1 1 0 1 1 1.9.9l-6.2 13.7a1 1 0 0 1-1 .5zm19.2 0a1 1 0 0 1-1-.6l-6.2-13.8a1 1 0 1 1 1.9-.9l6.2 13.8a1 1 0 0 1-.5 1.4h-.4zm.4-.3a1 1 0 0 0-1.3.6c-1.3 3.6-2.7 7.1-4 10.6s-3.3 8.4-4.7 12.6l-8.5-23.2a1 1 0 0 0-2 .7l9.1 24.9a13.5 13.5 0 0 0 1.3 1.1h.3a1 1 0 0 0 1-.7c1.6-4.9 3.5-9.6 5.5-14.7 1.4-3.5 2.8-7.1 4.1-10.6a1 1 0 0 0-.8-1.3zm12.2 86.9H338a1 1 0 1 1 0-2.1h45.5a1 1 0 1 1 0 2.1zm1.9-1.1a1 1 0 0 0-.1-.6l-8.1-14.9h-31.8l-8.3 14.7v.2a1 1 0 0 0 .1 1.2l23.1 27.6h1.6l23.3-27.5a1 1 0 0 0 .2-.7zm-24.3 26l-22-26 7.8-13.9h28.7l7.6 13.8zm-9.4-25.8h-.4a1 1 0 0 1-.5-1.4l6.2-13.7a1 1 0 1 1 1.9.9l-6.2 13.7a1 1 0 0 1-1 .5zm19.2 0a1 1 0 0 1-1-.6l-6.2-13.8a1 1 0 1 1 1.9-.9l6.2 13.8a1 1 0 0 1-.5 1.4h-.4zm.4-.4a1 1 0 0 0-1.3.6c-1.3 3.6-2.7 7.1-4 10.6s-3.3 8.4-4.7 12.6l-8.5-23.2a1 1 0 0 0-2 .7l9.1 24.9a13.5 13.5 0 0 0 1.3 1.1h.3a1 1 0 0 0 1-.7c1.6-4.9 3.5-9.6 5.5-14.7 1.4-3.5 2.8-7.1 4.1-10.6a1 1 0 0 0-.8-1.3zM383.5 360H338a1 1 0 1 1 0-2.1h45.5a1 1 0 1 1 0 2.1zm1.9-1.2a1 1 0 0 0-.1-.6l-8.1-14.9h-31.8l-8.3 14.8v.2a1 1 0 0 0 .1 1.2l23.3 27.5h1.6l23.3-27.5a1 1 0 0 0 0-.7zm-24.3 26l-22-26 7.8-13.9h28.7l7.6 13.8zm-9.4-25.8h-.4a1 1 0 0 1-.5-1.4l6.2-13.7a1 1 0 1 1 1.9.9l-6.2 13.7a1 1 0 0 1-1 .5zm19.2 0a1 1 0 0 1-1-.6l-6.2-13.8a1 1 0 1 1 1.9-.9l6.2 13.8a1 1 0 0 1-.5 1.4h-.4zm.4-.3a1 1 0 0 0-1.3.6c-1.3 3.6-2.7 7.1-4 10.6s-3.3 8.4-4.7 12.6l-8.5-23.2a1 1 0 0 0-2 .7l9.1 24.9a13.5 13.5 0 0 0 1.3 1.1h.3a1 1 0 0 0 1-.7c1.6-4.9 3.5-9.6 5.5-14.7 1.4-3.5 2.8-7.1 4.1-10.6a1 1 0 0 0-.8-1.3z" class="n"/><path d="M88.1 465.7l-12.8-14.9 12.8-15h32.2l12.8 15-12.8 14.9H88.1zm-9-10.5l8.9-10.1" class="o"/><path d="M173.8 380l-12.9-14.9 12.9-14.9h32.1l12.9 14.9-12.9 14.9h-32.1zm26.6-18.8H215" class="p"/><path d="M210.6 195.1l-8.9-10.1m-27.9 23.7l-12.9-14.9 12.9-14.9h32.1l12.9 14.9-12.9 14.9h-32.1z" class="q"/><path d="M361.1 169.9a23.9 23.9 0 1 0 23.9 23.9 24 24 0 0 0-23.9-23.9zm13.4 23.3l-3.5-8.3 5.5-5.5a21 21 0 0 1 5.7 13.9h-7.8zm-22.4 10.6l8.3 3.5v7.9a21.3 21.3 0 0 1-13.9-5.7zm9.7 3.5l8.3-3.5 5.5 5.5a21 21 0 0 1-13.9 5.7v-7.8zm8-4.7l-8.7 3.6-8.7-3.6-3.6-8.7 3.6-8.7 8.7-3.6 8.7 3.6 3.6 8.7zm.3-18.6l-8.3-3.5v-7.9a21.3 21.3 0 0 1 13.9 5.7zm-9.6-3.5l-8.3 3.5-5.6-5.5a21 21 0 0 1 13.9-5.7v7.8h.1zm-14.8-1.2l5.5 5.5-3.5 8.3h-7.9a21.2 21.2 0 0 1 5.9-13.8zm-5.8 15.3h7.9l3.5 8.3-5.5 5.5a21.2 21.2 0 0 1-5.9-13.9zm36.7 13.9l-5.5-5.6 3.5-8.3h7.9a21.2 21.2 0 0 1-5.9 13.8z" class="r"/><path d="M404 65.3v599.6H147V493.6H61.4v-85.7H147V65.3h257M232.7 579.2h85.7V151h-85.7v428.2M412.3 57H138.6v342.6H53V502h85.7v171.3h273.6V57zM241 159.4h68.9v411.5H241V159.4z" class="m"/><rect width="115" height="115" x="792.1" y="127.5" class="s" rx="12" ry="12"/><rect width="95" height="95" x="802.1" y="137.5" class="t" rx="2" ry="2" transform="rotate(90 849.6 185)"/><path d="M836.3 165.5H834v-9.6h-3v-2h8.2v2h-3v9.6zm4.9-3v-5.7h2.3v5.3a2.6 2.6 0 0 0 .3 1.4 1 1 0 0 0 .9.4 1.1 1.1 0 0 0 1-.5 2.9 2.9 0 0 0 .3-1.5v-5h2.3v8.8H846v-1.3a2.1 2.1 0 0 1-.8 1.1 2.4 2.4 0 0 1-1.4.4 2.2 2.2 0 0 1-1.9-.8 4 4 0 0 1-.7-2.6zm17.4-3.3l-.9-.5-1.1-.2-1.3.3a1.9 1.9 0 0 0-.8.7 2 2 0 0 0-.3.7 8 8 0 0 0-.1 1.3v4h-2.3v-8.7h2.3v1.4a2.5 2.5 0 0 1 1-1.2 3.1 3.1 0 0 1 1.6-.4h.9l.9.3v2.2zm9 .6v5.7h-2.3v-5.3a2.6 2.6 0 0 0-.3-1.4 1 1 0 0 0-.9-.4 1.1 1.1 0 0 0-1 .6 2.8 2.8 0 0 0-.4 1.5v5h-2.3v-8.7h2.3v1.3a2.1 2.1 0 0 1 .8-1.1 2.5 2.5 0 0 1 1.4-.4 2.2 2.2 0 0 1 1.9.8 4 4 0 0 1 .8 2.4z" class="u"/><rect width="73.4" height="40.91" x="812.9" y="180.3" class="v" rx="7.3" ry="7.3"/><path d="M829.6 195h1.5l1.5 7.2 1.4-7.2h1.1l-1.7 8.7H832l-1.5-7.2-1.4 7.2H828zm6.4 6.2l.8-4.1h1.1l-.8 4.1v.8a.9.9 0 0 0 .3.7 1.1 1.1 0 0 0 .8.2 1.7 1.7 0 0 0 1.3-.5 3 3 0 0 0 .7-1.5l.7-3.7h1.1l-1.3 6.6h-1.1l.2-1a3 3 0 0 1-.9.9 2.3 2.3 0 0 1-1.1.3 1.7 1.7 0 0 1-1.2-.4 1.6 1.6 0 0 1-.4-1.2v-1.1zm10.8-3.4a1.6 1.6 0 0 1 .6-.6l.8-.2a1.1 1.1 0 0 1 .8.3 1.2 1.2 0 0 1 .3.9 5.5 5.5 0 0 1-.1.7l-.2 1-.7 3.8h-1l.7-3.8.2-.9v-.5a.8.8 0 0 0-.1-.5l-.4-.2a.8.8 0 0 0-.7.4 5.6 5.6 0 0 0-.5 1.7l-.7 3.8h-1l.7-3.8.2-.9v-.5a.8.8 0 0 0-.1-.5l-.4-.2a.8.8 0 0 0-.7.3 5.7 5.7 0 0 0-.5 1.7l-.7 3.8h-1l1.3-6.6h1v.6l.6-.5.7-.2.7.2a.9.9 0 0 1 .2.7zm5.4.2a2.5 2.5 0 0 1 .8-.7l1.1-.3a1.9 1.9 0 0 1 1.5.6 2.5 2.5 0 0 1 .5 1.7 6.2 6.2 0 0 1-.2 1.7 5.2 5.2 0 0 1-.7 1.5 3.3 3.3 0 0 1-1.1 1 2.7 2.7 0 0 1-1.4.4 1.7 1.7 0 0 1-1-.3 1.5 1.5 0 0 1-.6-.7l-.2.8h-.9l1.8-9.1h1.1zm.6 5l.9-.3a2.1 2.1 0 0 0 .7-.8 5.8 5.8 0 0 0 .6-2.5 1.8 1.8 0 0 0-.3-1.1 1.1 1.1 0 0 0-.9-.4l-.9.3a2.3 2.3 0 0 0-.7.8 4.8 4.8 0 0 0-.5 1.2 5.5 5.5 0 0 0-.2 1.3 1.7 1.7 0 0 0 .3 1.1 1.1 1.1 0 0 0 1 .4zm9.7.4l-1.2.4h-1.2a2.8 2.8 0 0 1-2-.7 2.5 2.5 0 0 1-.7-1.9 4.8 4.8 0 0 1 .4-1.8 4.6 4.6 0 0 1 1-1.5 3.5 3.5 0 0 1 1.1-.8l1.2-.3a2.3 2.3 0 0 1 1.7.7 2.5 2.5 0 0 1 .7 1.8v1.3h-4.7v.6a1.6 1.6 0 0 0 .5 1.2 1.8 1.8 0 0 0 1.3.4l1.1-.2 1.3-.5zm-.1-3.5v-.5a1.5 1.5 0 0 0-.4-1.1 1.4 1.4 0 0 0-1.1-.4 1.9 1.9 0 0 0-1.3.5 2.9 2.9 0 0 0-.9 1.4h3.6zm8.6-1.4l-.6-.4h-.8a2.3 2.3 0 0 0-1.6.7 3.4 3.4 0 0 0-.9 1.8l-.6 3.2h-1.1l1.3-6.6h1.1l-.2 1.3a2.8 2.8 0 0 1 1-1.1 2.7 2.7 0 0 1 1.4-.4h.8l.6.3z" class="u"/><path d="M818.8 221.7c1.8 0 1.9-2.6 0-6.6 1.7-2 1.7-4.3 1.2-6.7s-.5-2.5-.8-3.8a19.6 19.6 0 0 1-.5-3.9c2.3-1.8 5.7-3.5 2-5.2s-5.2-3.3-2-4.9c1.1-1.6 4.2-3-1.8-4.3 8.8-1.3-4.9-2.5 1.8-3.5 11.8-2-1.7-3.1 0-3.1h59.1c12.3 0 4.8.6 1 1.8-.5.6-7.4 1.3-5.6 2.1-.9.8 13.8 1.7 4.6 2.7s7.9 2-.7 3.2c8.3 1.1-2.9 2.3.7 3.5-13.1 1.3-2.8 2.5 1.2 3.8s.3 2.6-1.2 3.9-3.2 2.6-3.6 3.9a5.4 5.4 0 0 0 .4 3.8c1.1 2.5 3.2 4.8 3.2 6.7 1.5 3.9-5.4 6.6 0 6.6h-59z" class="w"/><path d="M839.7 193.5a1.1 1.1 0 0 1-.8.4l-.5-.2a.8.8 0 0 1-.1-.5.7.7 0 0 1 .2-.4l1.1-1.2 2.5-2.3a23.9 23.9 0 0 1 3.4-2.3 9.5 9.5 0 0 1 3.8-1.3 6.5 6.5 0 0 1 3.8.8 9.2 9.2 0 0 1 3.4 4 7.4 7.4 0 0 1-.9 9 13.8 13.8 0 0 1-3.7 2.9 38.4 38.4 0 0 1-4.2 2l-3.4 1.3a3.4 3.4 0 0 0-1.5.6q0 .2 1 .3h12.3l1.4.2a.9.9 0 0 1 .2.9 6.6 6.6 0 0 1-.3 1.5 10.1 10.1 0 0 1-.6 1.5l-.7 1.1-1.4.3-2.9.2h-11.9a1.7 1.7 0 0 1-.9-1 13.7 13.7 0 0 1-1.4-4 2.8 2.8 0 0 1 0-1.4.9.9 0 0 1 .6-.5l1.6-.4 2.8-.7 4.3-1.4a7.2 7.2 0 0 0 3-2 6.8 6.8 0 0 0 1.4-2.7 6.9 6.9 0 0 0 .1-2.9 8.1 8.1 0 0 0-.9-2.7 6.1 6.1 0 0 0-1.7-1.9 3.5 3.5 0 0 0-2.1-.7 9.6 9.6 0 0 0-2.9.4l-2.1.9-1.4 1z" class="m"/><rect width="115" height="546" x="512.1" y="127.4" class="x" rx="12" ry="12"/><rect width="526" height="95" x="306.6" y="352.9" class="y" rx="2" ry="2" transform="rotate(90 569.6 400.4)"/><rect width="73.4" height="40.91" x="532.9" y="180.2" class="z" rx="7.3" ry="7.3"/><path d="M552.1 165.4v-11.7h2.3v9.6h4.9v2h-7.2zm8.6-4.4a4.9 4.9 0 0 1 1.1-3.4 4.1 4.1 0 0 1 5.9 0 5.7 5.7 0 0 1 0 6.7 4.1 4.1 0 0 1-5.9 0 4.9 4.9 0 0 1-1.1-3.3zm4-2.7a1.5 1.5 0 0 0-1.3.7 4.6 4.6 0 0 0 0 4 1.5 1.5 0 0 0 2.6 0 4.6 4.6 0 0 0 0-4 1.5 1.5 0 0 0-1.2-.7zm5.7 2.7a4.9 4.9 0 0 1 1.1-3.4 4.1 4.1 0 0 1 5.9 0 5.7 5.7 0 0 1 0 6.7 4.1 4.1 0 0 1-5.9 0 4.9 4.9 0 0 1-1.1-3.3zm4-2.7a1.5 1.5 0 0 0-1.3.7 4.6 4.6 0 0 0 0 4 1.5 1.5 0 0 0 2.6 0 4.6 4.6 0 0 0 0-4 1.5 1.5 0 0 0-1.3-.7zm8.3 5.9v4.6h-2.3v-12.2h2.3v1.3a2.7 2.7 0 0 1 .9-1.1 2.5 2.5 0 0 1 1.4-.4 2.7 2.7 0 0 1 2.3 1.2 5.9 5.9 0 0 1 .8 3.4 5.9 5.9 0 0 1-.8 3.4 2.8 2.8 0 0 1-2.4 1.2 2.3 2.3 0 0 1-1.3-.4 3.1 3.1 0 0 1-.9-1zm3.2-3.1a3.9 3.9 0 0 0-.4-2 1.3 1.3 0 0 0-1.2-.7 1.3 1.3 0 0 0-1.2.7 4.8 4.8 0 0 0 0 4 1.3 1.3 0 0 0 1.2.7 1.3 1.3 0 0 0 1.2-.7 3.9 3.9 0 0 0 .4-2.1zm-36.3 33.8h1.5l1.5 7.2 1.4-7.2h1.1l-1.7 8.7H552l-1.5-7.2-1.4 7.2H548zm6.4 6.2l.8-4.1h1.1l-.8 4.1v.8a.9.9 0 0 0 .3.7 1.1 1.1 0 0 0 .8.2 1.7 1.7 0 0 0 1.3-.5 3 3 0 0 0 .7-1.5l.7-3.7h1.1l-1.3 6.6h-1.1l.2-1a3 3 0 0 1-.9.9 2.3 2.3 0 0 1-1.1.3 1.7 1.7 0 0 1-1.2-.4 1.6 1.6 0 0 1-.4-1.2v-1.1zm10.8-3.4a1.6 1.6 0 0 1 .6-.6l.8-.2a1.1 1.1 0 0 1 .8.3 1.2 1.2 0 0 1 .3.9 5.5 5.5 0 0 1-.1.7l-.2 1-.7 3.8h-1l.7-3.8.2-.9v-.5a.8.8 0 0 0-.1-.5l-.4-.2a.8.8 0 0 0-.7.4 5.6 5.6 0 0 0-.5 1.7l-.7 3.8h-1l.7-3.8.2-.9v-.5a.8.8 0 0 0-.1-.5l-.4-.2a.8.8 0 0 0-.7.3 5.7 5.7 0 0 0-.5 1.7l-.7 3.8h-1l1.3-6.6h1v.6l.6-.5.7-.2.7.2a.9.9 0 0 1 .2.7zm5.4.2a2.5 2.5 0 0 1 .8-.7l1.1-.3a1.9 1.9 0 0 1 1.5.6 2.5 2.5 0 0 1 .5 1.7 6.2 6.2 0 0 1-.2 1.7 5.2 5.2 0 0 1-.7 1.5 3.3 3.3 0 0 1-1.1 1 2.7 2.7 0 0 1-1.4.4 1.7 1.7 0 0 1-1-.3 1.5 1.5 0 0 1-.6-.7l-.2.8h-.9l1.8-9.1h1.1zm.6 5l.9-.3a2.1 2.1 0 0 0 .7-.8 5.9 5.9 0 0 0 .6-2.5 1.8 1.8 0 0 0-.3-1.1 1.1 1.1 0 0 0-.9-.4l-.9.3a2.3 2.3 0 0 0-.7.8 4.8 4.8 0 0 0-.5 1.2 5.5 5.5 0 0 0-.2 1.3 1.7 1.7 0 0 0 .3 1.1 1.1 1.1 0 0 0 1 .4zm9.7.4l-1.2.4h-1.2a2.8 2.8 0 0 1-2-.7 2.5 2.5 0 0 1-.7-1.9 4.8 4.8 0 0 1 .4-1.8 4.6 4.6 0 0 1 1-1.5 3.4 3.4 0 0 1 1.1-.8l1.2-.3a2.3 2.3 0 0 1 1.7.7 2.5 2.5 0 0 1 .7 1.8v1.3h-4.7v.6a1.6 1.6 0 0 0 .5 1.2 1.8 1.8 0 0 0 1.3.4l1.1-.2 1.3-.5zm-.1-3.5v-.5a1.5 1.5 0 0 0-.4-1.1 1.4 1.4 0 0 0-1.1-.4 1.9 1.9 0 0 0-1.3.5 2.9 2.9 0 0 0-.9 1.4h3.6zm8.6-1.4l-.6-.4h-.8a2.3 2.3 0 0 0-1.6.7 3.4 3.4 0 0 0-.9 1.8l-.6 3.2h-1.1l1.3-6.6h1.1l-.2 1.3a2.8 2.8 0 0 1 1-1.1 2.7 2.7 0 0 1 1.4-.4h.8l.6.3z" class="aa"/><path d="M621.9 385.6h-57.6a12 12 0 0 0-12 12v91a12 12 0 0 0 12 12h57.6" class="x"/><path d="M621.9 385.6h-.5" class="ab"/><path d="M616.5 385.6h-52.2a12 12 0 0 0-12 12v91a12 12 0 0 0 12 12h54.6" class="ac"/><path d="M621.4 500.6h.5" class="ab"/><path d="M538 444.8h4.9v2h-7.4v-2l1.3-1.3 2.7-2.9a5.9 5.9 0 0 0 .8-1.2 2.3 2.3 0 0 0 .3-1 1.5 1.5 0 0 0-.5-1.2 1.9 1.9 0 0 0-1.3-.4l-1.4.2-1.6.7v-2.1l1.6-.5 1.5-.2a4.5 4.5 0 0 1 2.9.9 2.9 2.9 0 0 1 1.1 2.4 3.6 3.6 0 0 1-.2 1.3 5.5 5.5 0 0 1-.8 1.3l-2.3 2.4z" class="aa"/><path d="M621.9 245.6h-57.6a12 12 0 0 0-12 12v91a12 12 0 0 0 12 12h57.6" class="x"/><path d="M621.9 245.6h-.5" class="ab"/><path d="M616.5 245.6h-52.2a12 12 0 0 0-12 12v91a12 12 0 0 0 12 12h54.6" class="ac"/><path d="M621.4 360.6h.5" class="ab"/><path d="M536 304.8h2.6v-7.6l-2.4.6v-2.1l2.4-.6h2.2v9.6h2.6v2H536v-2z" class="aa"/><path d="M621.9 525.6h-57.6a12 12 0 0 0-12 12v91a12 12 0 0 0 12 12h57.6" class="x"/><path d="M621.9 525.6h-.5" class="ab"/><path d="M616.5 525.6h-52.2a12 12 0 0 0-12 12v91a12 12 0 0 0 12 12h54.6" class="ac"/><path d="M621.4 640.6h.5" class="ab"/><path d="M538.9 581.6h-1.2v-2h1.2a2.3 2.3 0 0 0 1.3-.3 1.1 1.1 0 0 0 .5-1 1.2 1.2 0 0 0-.5-1 2.1 2.1 0 0 0-1.3-.4l-1.4.2-1.6.5v-2.1l1.6-.4h1.5a4.6 4.6 0 0 1 2.9.8 2.7 2.7 0 0 1 1 2.2 2.4 2.4 0 0 1-.6 1.7 2.9 2.9 0 0 1-1.7.9 3.1 3.1 0 0 1 1.9 1 3.1 3.1 0 0 1 .7 2 3.2 3.2 0 0 1-1.1 2.6 4.9 4.9 0 0 1-3.2.9h-1.7l-1.6-.4v-2.1l1.6.6 1.8.2a2.3 2.3 0 0 0 1.5-.4 1.4 1.4 0 0 0 .5-1.2 1.8 1.8 0 0 0-.5-1.4 2.2 2.2 0 0 0-1.6-.9z" class="aa"/><rect width="115" height="115" x="552.6" y="245.6" class="s" rx="12" ry="12"/><rect width="95" height="95" x="562.6" y="255.6" class="t" rx="2" ry="2" transform="rotate(90 610.1 303.1)"/><path d="M591.5 285.6h2.8l1.4 5.1 1.4-5.1h2.8v11.7h-2V288l-1.2 5.1h-1.8l-1.2-5.1v9.3h-2v-11.7zm9.7 7.3a4.9 4.9 0 0 1 1.1-3.4 4.1 4.1 0 0 1 5.9 0 5.7 5.7 0 0 1 0 6.7 4.1 4.1 0 0 1-5.9 0 4.9 4.9 0 0 1-1.1-3.3zm4-2.7a1.5 1.5 0 0 0-1.3.7 4.6 4.6 0 0 0 0 4 1.5 1.5 0 0 0 2.6 0 4.6 4.6 0 0 0 0-4 1.5 1.5 0 0 0-1.2-.8zm13.9-1.7l-2.8 8.8h-2.8l-2.8-8.7h2.3l1.9 6.8 1.9-6.8h2.3zm9.2 8.3l-1.6.5-1.7.2a4.5 4.5 0 0 1-3.4-1.2 4.6 4.6 0 0 1-1.2-3.4 4.9 4.9 0 0 1 1.1-3.4 4.4 4.4 0 0 1 6.1-.1 4.6 4.6 0 0 1 1.1 3.2v.9h-5.9a1.9 1.9 0 0 0 .6 1.5 2.7 2.7 0 0 0 1.8.5l1.6-.2 1.6-.7v2.1zm-1.9-4.9a2 2 0 0 0-.5-1.4 1.8 1.8 0 0 0-1.3-.5 1.7 1.7 0 0 0-1.3.5 2.2 2.2 0 0 0-.6 1.4h3.6zm-44.2 15v.8h2.7v1.8h-2.7v7h-2.3v-7h-2.1v-1.8h2.1v-.6a2.9 2.9 0 0 1 .7-2.2 3.6 3.6 0 0 1 2.4-.6h1.9v1.7h-1.8l-.7.2a1.1 1.1 0 0 0-.2.7zm4.6 5.2a4.9 4.9 0 0 1 1.1-3.4 4.1 4.1 0 0 1 5.9 0 5.7 5.7 0 0 1 0 6.7 4.1 4.1 0 0 1-5.9 0 4.9 4.9 0 0 1-1.1-3.3zm4-2.7a1.5 1.5 0 0 0-1.3.7 4.6 4.6 0 0 0 0 4 1.5 1.5 0 0 0 2.6 0 4.6 4.6 0 0 0 0-4 1.5 1.5 0 0 0-1.3-.8zm13.8.7l-.9-.5-1.1-.2-1.3.3a1.9 1.9 0 0 0-.8.7 2 2 0 0 0-.3.7 8 8 0 0 0-.1 1.3v4h-2.3v-8.7h2.3v1.3a2.5 2.5 0 0 1 1-1.2 3.1 3.1 0 0 1 1.6-.4h.9l.9.3v2.2zm.7-2.4h1.9l1 6.7.9-4.4h1.9l.9 4.4 1.1-6.7h1.9l-1.6 8.8h-2.2L610 312l-1.1 4.5h-2.2zm18.3 3.7v5h-2.3v-1a2.8 2.8 0 0 1-1.1.9 3.7 3.7 0 0 1-3.8-.5 2.9 2.9 0 0 1-.8-2.2 2.6 2.6 0 0 1 1-2.3 5.2 5.2 0 0 1 3.1-.7h1.6v-.4a1 1 0 0 0-.4-.8 2 2 0 0 0-1.2-.3l-1.6.2-1.6.7v-2l1.5-.5h1.7a4.2 4.2 0 0 1 3 .9 4.4 4.4 0 0 1 .9 3zm-3.2.9a3.5 3.5 0 0 0-1.8.3 1.2 1.2 0 0 0-.5 1.1 1.2 1.2 0 0 0 1.3 1.3 1.6 1.6 0 0 0 1.4-.7 3.2 3.2 0 0 0 .5-1.9v-.2h-.9zm13.1-2.2l-.9-.5-1.1-.2-1.3.3a1.9 1.9 0 0 0-.8.7 2 2 0 0 0-.3.7 8 8 0 0 0-.1 1.3v4h-2.3v-8.7h2.3v1.3a2.5 2.5 0 0 1 1-1.2 3.1 3.1 0 0 1 1.6-.4h.9l.9.3v2.2zm6.9-1.2v-4.6h2.3v12.2h-2.3v-1.3a2.8 2.8 0 0 1-.9 1.1 2.4 2.4 0 0 1-1.4.4 2.7 2.7 0 0 1-2.3-1.2 5.9 5.9 0 0 1-.8-3.4 5.9 5.9 0 0 1 .8-3.4 2.8 2.8 0 0 1 2.4-1.2 2.3 2.3 0 0 1 1.3.4 3.2 3.2 0 0 1 .9 1zm-3.2 3.2a3.9 3.9 0 0 0 .4 2 1.3 1.3 0 0 0 1.2.7 1.3 1.3 0 0 0 1.2-.7 4.8 4.8 0 0 0 0-4 1.3 1.3 0 0 0-1.2-.7 1.3 1.3 0 0 0-1.2.7 3.9 3.9 0 0 0-.4 2z" class="u"/><path d="M539.8 222.7c1.8 0 1.9-2.6 0-6.6 1.7-2 1.7-4.3 1.2-6.7s-.5-2.5-.8-3.8a19.6 19.6 0 0 1-.5-3.9c2.3-1.8 5.7-3.5 2-5.2s-5.2-3.3-2-4.9c1.1-1.6 4.2-3-1.8-4.3 8.8-1.3-4.9-2.5 1.8-3.5 11.8-2-1.7-3.1 0-3.1h59.1c12.3 0 4.8.6 1 1.8-.5.6-7.4 1.3-5.6 2.1-.9.8 13.8 1.7 4.6 2.7s7.9 2-.7 3.2c8.3 1.1-2.9 2.3.7 3.5-13.1 1.3-2.8 2.5 1.2 3.8s.3 2.6-1.2 3.9-3.2 2.6-3.6 3.9a5.4 5.4 0 0 0 .4 3.8c1.1 2.5 3.2 4.8 3.2 6.7 1.5 3.9-5.4 6.6 0 6.6h-59z" class="w"/><path d="M558.7 205.9l1.1.7 2 1 2.7.9a13.2 13.2 0 0 0 3.2.4 4.5 4.5 0 0 0 3-1.1 4.8 4.8 0 0 0 1.7-2.7 4.5 4.5 0 0 0-.7-3.3 7.5 7.5 0 0 0-3.9-2.8l-2.8-.9-2.6-.7-2.1-.4-1.4-.3a.8.8 0 0 1-.3-.8 12.7 12.7 0 0 1 .1-1.8q.1-1.1.4-2.3t.6-2.3a18.2 18.2 0 0 1 .6-1.8 1.2 1.2 0 0 1 .6-.8h12l2.9.2 1.4.3.7 1.1a10.5 10.5 0 0 1 .6 1.5 5.7 5.7 0 0 1 .3 1.5.9.9 0 0 1-.3.9 4.4 4.4 0 0 1-1.8.2h-11.3a.9.9 0 0 0-.7.5 4.8 4.8 0 0 0-.6 1.1l-.3 1.1v.7a2.8 2.8 0 0 0 1.5.4l3.5.7a31.3 31.3 0 0 1 4.2 1.3 11.8 11.8 0 0 1 3.7 2.2 6.2 6.2 0 0 1 1.9 3.4 7.5 7.5 0 0 1-1 4.9 8.8 8.8 0 0 1-3.6 4 7.5 7.5 0 0 1-4.2.8 11.7 11.7 0 0 1-4.3-1.3 28.8 28.8 0 0 1-3.8-2.3 27 27 0 0 1-2.8-2.3l-1.2-1.2a.9.9 0 0 1-.2-.5.8.8 0 0 1 .1-.5l.4-.2a1.2 1.2 0 0 1 .7.5z" class="m"/><rect width="115" height="546" x="932.1" y="127.4" class="x" rx="12" ry="12"/><rect width="526" height="95" x="726.6" y="352.9" class="y" rx="2" ry="2" transform="rotate(90 989.6 400.4)"/><rect width="73.4" height="40.91" x="952.9" y="180.2" class="z" rx="7.3" ry="7.3"/><path d="M972.1 165.4v-11.7h2.3v9.6h4.9v2h-7.2zm8.6-4.4a4.9 4.9 0 0 1 1.1-3.4 4.1 4.1 0 0 1 5.9 0 5.7 5.7 0 0 1 0 6.7 4.1 4.1 0 0 1-5.9 0 4.9 4.9 0 0 1-1.1-3.3zm4-2.7a1.5 1.5 0 0 0-1.3.7 4.6 4.6 0 0 0 0 4 1.5 1.5 0 0 0 2.6 0 4.6 4.6 0 0 0 0-4 1.5 1.5 0 0 0-1.2-.7zm5.7 2.7a4.9 4.9 0 0 1 1.1-3.4 4.1 4.1 0 0 1 5.9 0 5.7 5.7 0 0 1 0 6.7 4.1 4.1 0 0 1-5.9 0 4.9 4.9 0 0 1-1.1-3.3zm4-2.7a1.5 1.5 0 0 0-1.3.7 4.6 4.6 0 0 0 0 4 1.5 1.5 0 0 0 2.6 0 4.6 4.6 0 0 0 0-4 1.5 1.5 0 0 0-1.3-.7zm8.3 5.9v4.6h-2.3v-12.2h2.3v1.3a2.7 2.7 0 0 1 .9-1.1 2.5 2.5 0 0 1 1.4-.4 2.7 2.7 0 0 1 2.3 1.2 5.9 5.9 0 0 1 .8 3.4 5.9 5.9 0 0 1-.8 3.4 2.8 2.8 0 0 1-2.4 1.2 2.3 2.3 0 0 1-1.3-.4 3.1 3.1 0 0 1-.9-1zm3.2-3.1a3.9 3.9 0 0 0-.4-2 1.3 1.3 0 0 0-1.2-.7 1.3 1.3 0 0 0-1.2.7 4.8 4.8 0 0 0 0 4 1.3 1.3 0 0 0 1.2.7 1.3 1.3 0 0 0 1.2-.7 3.9 3.9 0 0 0 .4-2.1zm-36.3 33.8h1.5l1.5 7.2 1.4-7.2h1.1l-1.7 8.7H972l-1.5-7.2-1.4 7.2H968zm6.4 6.2l.8-4.1h1.1l-.8 4.1v.8a.9.9 0 0 0 .3.7 1.1 1.1 0 0 0 .8.2 1.7 1.7 0 0 0 1.3-.5 3 3 0 0 0 .7-1.5l.7-3.7h1.1l-1.3 6.6h-1.1l.2-1a3 3 0 0 1-.9.9 2.3 2.3 0 0 1-1.1.3 1.7 1.7 0 0 1-1.2-.4 1.6 1.6 0 0 1-.4-1.2v-1.1zm10.8-3.4a1.6 1.6 0 0 1 .6-.6l.8-.2a1.1 1.1 0 0 1 .8.3 1.2 1.2 0 0 1 .3.9 5.5 5.5 0 0 1-.1.7l-.2 1-.7 3.8h-1l.7-3.8.2-.9v-.5a.8.8 0 0 0-.1-.5l-.4-.2a.8.8 0 0 0-.7.4 5.6 5.6 0 0 0-.5 1.7l-.7 3.8h-1l.7-3.8.2-.9v-.5a.8.8 0 0 0-.1-.5l-.4-.2a.8.8 0 0 0-.7.3 5.7 5.7 0 0 0-.5 1.7l-.7 3.8h-1l1.3-6.6h1v.6l.6-.5.7-.2.7.2a.9.9 0 0 1 .2.7zm5.4.2a2.5 2.5 0 0 1 .8-.7l1.1-.3a1.9 1.9 0 0 1 1.5.6 2.5 2.5 0 0 1 .5 1.7 6.2 6.2 0 0 1-.2 1.7 5.2 5.2 0 0 1-.7 1.5 3.3 3.3 0 0 1-1.1 1 2.7 2.7 0 0 1-1.4.4 1.7 1.7 0 0 1-1-.3 1.5 1.5 0 0 1-.6-.7l-.2.8h-.9l1.8-9.1h1.1zm.6 5l.9-.3a2.1 2.1 0 0 0 .7-.8 5.9 5.9 0 0 0 .6-2.5 1.8 1.8 0 0 0-.3-1.1 1.1 1.1 0 0 0-.9-.4l-.9.3a2.3 2.3 0 0 0-.7.8 4.8 4.8 0 0 0-.5 1.2 5.5 5.5 0 0 0-.2 1.3 1.7 1.7 0 0 0 .3 1.1 1.1 1.1 0 0 0 1 .4zm9.7.4l-1.2.4h-1.2a2.8 2.8 0 0 1-2-.7 2.5 2.5 0 0 1-.7-1.9 4.8 4.8 0 0 1 .4-1.8 4.6 4.6 0 0 1 1-1.5 3.4 3.4 0 0 1 1.1-.8l1.2-.3a2.3 2.3 0 0 1 1.7.7 2.5 2.5 0 0 1 .7 1.8v1.3h-4.7v.6a1.6 1.6 0 0 0 .5 1.2 1.8 1.8 0 0 0 1.3.4l1.1-.2 1.3-.5zm-.1-3.5v-.5a1.5 1.5 0 0 0-.4-1.1 1.4 1.4 0 0 0-1.1-.4 1.9 1.9 0 0 0-1.3.5 2.9 2.9 0 0 0-.9 1.4h3.6zm8.6-1.4l-.6-.4h-.8a2.3 2.3 0 0 0-1.6.7 3.4 3.4 0 0 0-.9 1.8l-.6 3.2h-1.1l1.3-6.6h1.1l-.2 1.3a2.8 2.8 0 0 1 1-1.1 2.7 2.7 0 0 1 1.4-.4h.8l.6.3z" class="aa"/><path d="M1041.9 385.6h-57.6a12 12 0 0 0-12 12v91a12 12 0 0 0 12 12h57.6" class="x"/><path d="M1041.9 385.6h-.5" class="ab"/><path d="M1036.5 385.6h-52.2a12 12 0 0 0-12 12v91a12 12 0 0 0 12 12h54.6" class="ac"/><path d="M1041.4 500.6h.5" class="ab"/><path d="M958 444.8h4.9v2h-7.4v-2l1.3-1.3 2.7-2.9a5.9 5.9 0 0 0 .8-1.2 2.3 2.3 0 0 0 .3-1 1.5 1.5 0 0 0-.5-1.2 1.9 1.9 0 0 0-1.3-.4l-1.4.2-1.6.7v-2.1l1.6-.5 1.5-.2a4.5 4.5 0 0 1 2.9.9 2.9 2.9 0 0 1 1.1 2.4 3.6 3.6 0 0 1-.2 1.3 5.5 5.5 0 0 1-.8 1.3l-2.3 2.4z" class="aa"/><path d="M1041.9 245.6h-57.6a12 12 0 0 0-12 12v91a12 12 0 0 0 12 12h57.6" class="x"/><path d="M1041.9 245.6h-.5" class="ab"/><path d="M1036.5 245.6h-52.2a12 12 0 0 0-12 12v91a12 12 0 0 0 12 12h54.6" class="ac"/><path d="M1041.4 360.6h.5" class="ab"/><path d="M956 304.8h2.6v-7.6l-2.4.6v-2.1l2.4-.6h2.2v9.6h2.6v2H956v-2z" class="aa"/><path d="M1041.9 525.6h-57.6a12 12 0 0 0-12 12v91a12 12 0 0 0 12 12h57.6" class="x"/><path d="M1041.9 525.6h-.5" class="ab"/><path d="M1036.5 525.6h-52.2a12 12 0 0 0-12 12v91a12 12 0 0 0 12 12h54.6" class="ac"/><path d="M1041.4 640.6h.5" class="ab"/><path d="M958.9 581.6h-1.2v-2h1.2a2.3 2.3 0 0 0 1.3-.3 1.1 1.1 0 0 0 .5-1 1.2 1.2 0 0 0-.5-1 2.1 2.1 0 0 0-1.3-.4l-1.4.2-1.6.5v-2.1l1.6-.4h1.5a4.6 4.6 0 0 1 2.9.8 2.7 2.7 0 0 1 1 2.2 2.4 2.4 0 0 1-.6 1.7 2.9 2.9 0 0 1-1.7.9 3.1 3.1 0 0 1 1.9 1 3.1 3.1 0 0 1 .7 2 3.2 3.2 0 0 1-1.1 2.6 4.9 4.9 0 0 1-3.2.9h-1.7l-1.6-.4v-2.1l1.6.6 1.8.2a2.3 2.3 0 0 0 1.5-.4 1.4 1.4 0 0 0 .5-1.2 1.8 1.8 0 0 0-.5-1.4 2.2 2.2 0 0 0-1.6-.9z" class="aa"/><rect width="115" height="115" x="972.6" y="245.6" class="s" rx="12" ry="12"/><rect width="95" height="95" x="982.6" y="255.6" class="t" rx="2" ry="2" transform="rotate(90 1030.1 303.1)"/><path d="M1011.5 285.6h2.8l1.4 5.1 1.4-5.1h2.8v11.7h-2V288l-1.2 5.1h-1.8l-1.2-5.1v9.3h-2v-11.7zm9.7 7.3a4.9 4.9 0 0 1 1.1-3.4 4.1 4.1 0 0 1 5.9 0 5.7 5.7 0 0 1 0 6.7 4.1 4.1 0 0 1-5.9 0 4.9 4.9 0 0 1-1.1-3.3zm4-2.7a1.5 1.5 0 0 0-1.3.7 4.6 4.6 0 0 0 0 4 1.5 1.5 0 0 0 2.6 0 4.6 4.6 0 0 0 0-4 1.5 1.5 0 0 0-1.2-.8zm13.9-1.7l-2.8 8.8h-2.8l-2.8-8.7h2.3l1.9 6.8 1.9-6.8h2.3zm9.2 8.3l-1.6.5-1.7.2a4.5 4.5 0 0 1-3.4-1.2 4.6 4.6 0 0 1-1.2-3.4 4.9 4.9 0 0 1 1.1-3.4 4.4 4.4 0 0 1 6.1-.1 4.6 4.6 0 0 1 1.1 3.2v.9h-5.9a1.9 1.9 0 0 0 .6 1.5 2.7 2.7 0 0 0 1.8.5l1.6-.2 1.6-.7v2.1zm-1.9-4.9a2 2 0 0 0-.5-1.4 1.8 1.8 0 0 0-1.3-.5 1.7 1.7 0 0 0-1.3.5 2.2 2.2 0 0 0-.6 1.4h3.6zm-44.2 15v.8h2.7v1.8h-2.7v7h-2.3v-7h-2.1v-1.8h2.1v-.6a2.9 2.9 0 0 1 .7-2.2 3.6 3.6 0 0 1 2.4-.6h1.9v1.7h-1.8l-.7.2a1.1 1.1 0 0 0-.2.7zm4.6 5.2a4.9 4.9 0 0 1 1.1-3.4 4.1 4.1 0 0 1 5.9 0 5.7 5.7 0 0 1 0 6.7 4.1 4.1 0 0 1-5.9 0 4.9 4.9 0 0 1-1.1-3.3zm4-2.7a1.5 1.5 0 0 0-1.3.7 4.6 4.6 0 0 0 0 4 1.5 1.5 0 0 0 2.6 0 4.6 4.6 0 0 0 0-4 1.5 1.5 0 0 0-1.3-.8zm13.8.7l-.9-.5-1.1-.2-1.3.3a1.9 1.9 0 0 0-.8.7 2 2 0 0 0-.3.7 8 8 0 0 0-.1 1.3v4h-2.3v-8.7h2.3v1.3a2.5 2.5 0 0 1 1-1.2 3.1 3.1 0 0 1 1.6-.4h.9l.9.3v2.2zm.7-2.4h1.9l1 6.7.9-4.4h1.9l.9 4.4 1.1-6.7h1.9l-1.6 8.8h-2.2l-1.1-4.5-1.1 4.5h-2.2zm18.3 3.7v5h-2.3v-1a2.8 2.8 0 0 1-1.1.9 3.7 3.7 0 0 1-3.8-.5 2.9 2.9 0 0 1-.8-2.2 2.6 2.6 0 0 1 1-2.3 5.2 5.2 0 0 1 3.1-.7h1.6v-.4a1 1 0 0 0-.4-.8 2 2 0 0 0-1.2-.3l-1.6.2-1.6.7v-2l1.5-.5h1.7a4.2 4.2 0 0 1 3 .9 4.4 4.4 0 0 1 .9 3zm-3.2.9a3.5 3.5 0 0 0-1.8.3 1.2 1.2 0 0 0-.5 1.1 1.2 1.2 0 0 0 1.3 1.3 1.6 1.6 0 0 0 1.4-.7 3.2 3.2 0 0 0 .5-1.9v-.2h-.9zm13.1-2.2l-.9-.5-1.1-.2-1.3.3a1.9 1.9 0 0 0-.8.7 2 2 0 0 0-.3.7 8 8 0 0 0-.1 1.3v4h-2.3v-8.7h2.3v1.3a2.5 2.5 0 0 1 1-1.2 3.1 3.1 0 0 1 1.6-.4h.9l.9.3v2.2zm6.9-1.2v-4.6h2.3v12.2h-2.3v-1.3a2.8 2.8 0 0 1-.9 1.1 2.4 2.4 0 0 1-1.4.4 2.7 2.7 0 0 1-2.3-1.2 5.9 5.9 0 0 1-.8-3.4 5.9 5.9 0 0 1 .8-3.4 2.8 2.8 0 0 1 2.4-1.2 2.3 2.3 0 0 1 1.3.4 3.2 3.2 0 0 1 .9 1zm-3.2 3.2a3.9 3.9 0 0 0 .4 2 1.3 1.3 0 0 0 1.2.7 1.3 1.3 0 0 0 1.2-.7 4.8 4.8 0 0 0 0-4 1.3 1.3 0 0 0-1.2-.7 1.3 1.3 0 0 0-1.2.7 3.9 3.9 0 0 0-.4 2z" class="u"/><path d="M959.8 222.7c1.8 0 1.9-2.6 0-6.6 1.7-2 1.7-4.3 1.2-6.7s-.5-2.5-.8-3.8a19.6 19.6 0 0 1-.5-3.9c2.3-1.8 5.7-3.5 2-5.2s-5.2-3.3-2-4.9c1.1-1.6 4.2-3-1.8-4.3 8.8-1.3-4.9-2.5 1.8-3.5 11.8-2-1.7-3.1 0-3.1h59.1c12.3 0 4.8.6 1 1.8-.5.6-7.4 1.3-5.6 2.1-.9.8 13.8 1.7 4.6 2.7s7.9 2-.7 3.2c8.3 1.1-2.9 2.3.7 3.5-13.1 1.3-2.8 2.5 1.2 3.8s.3 2.6-1.2 3.9-3.2 2.6-3.6 3.9a5.4 5.4 0 0 0 .4 3.8c1.1 2.5 3.2 4.8 3.2 6.7 1.5 3.9-5.4 6.6 0 6.6h-59z" class="w"/><path d="M978.7 205.9l1.1.7 2 1 2.7.9a13.2 13.2 0 0 0 3.2.4 4.5 4.5 0 0 0 3-1.1 4.7 4.7 0 0 0 1.7-2.7 4.5 4.5 0 0 0-.7-3.3 7.5 7.5 0 0 0-3.9-2.8l-2.8-.9-2.6-.7-2.1-.4-1.4-.3a.8.8 0 0 1-.3-.8 12.7 12.7 0 0 1 .1-1.8q.1-1.1.4-2.3t.6-2.3a18.1 18.1 0 0 1 .6-1.8 1.2 1.2 0 0 1 .6-.8h12l2.9.2 1.4.3.7 1.1a10.4 10.4 0 0 1 .6 1.5 5.7 5.7 0 0 1 .3 1.5.9.9 0 0 1-.3.9 4.4 4.4 0 0 1-1.8.2h-11.3a.9.9 0 0 0-.7.5 4.8 4.8 0 0 0-.6 1.1l-.3 1.1v.7a2.8 2.8 0 0 0 1.5.4l3.5.7a31.3 31.3 0 0 1 4.2 1.3 11.8 11.8 0 0 1 3.7 2.2 6.2 6.2 0 0 1 1.9 3.4 7.5 7.5 0 0 1-1 4.9 8.8 8.8 0 0 1-3.6 4 7.5 7.5 0 0 1-4.2.8 11.7 11.7 0 0 1-4.3-1.3 28.9 28.9 0 0 1-3.8-2.3 27 27 0 0 1-2.8-2.3l-1.2-1.2a.9.9 0 0 1-.2-.5.8.8 0 0 1 .1-.5l.4-.2a1.2 1.2 0 0 1 .7.5z" class="m"/></svg>