<svg xmlns="http://www.w3.org/2000/svg" width="612" height="792" viewBox="0 0 612 792"><defs><style>.a{fill:#e6e7e8}.a,.b,.g,.i,.k{stroke:#bcbec0}.a,.b,.k{stroke-linecap:round;stroke-linejoin:round;stroke-width:3px;stroke-dasharray:1 5}.b,.i{fill:#fff}.c{fill:#231f20}.d{fill:#2865b0}.e,.f,.g,.k{fill:none}.e{stroke:#253979}.e,.f,.g,.i{stroke-miterlimit:10}.e,.f,.g{stroke-width:2.5px}.f{stroke:#72c6ef}.h{fill:#579577}.i{stroke-width:8px}.j{fill:#58595b}.l{fill:#939598}</style></defs><path d="M254.9 651.7h102.3v102.29H254.9z" class="a"/><path d="M254.9 549.4h102.3v102.29H254.9zm0-102.3h102.3v102.29H254.9zm0-102.2h102.3v102.29H254.9zm0-102.3h102.3v102.29H254.9zm0-102.3h102.3v102.29H254.9zm0-102.3h102.3v102.29H254.9zm204.5 613.7h102.3v102.29H459.4zm0-102.3h102.3v102.29H459.4zm0-102.3h102.3v102.29H459.4zm0-102.2h102.3v102.29H459.4zm0-102.3h102.3v102.29H459.4zm0-102.3h102.3v102.29H459.4zm0-102.3h102.3v102.29H459.4zm-102.3 0h102.3v102.29H357.1zm0 613.7h102.3v102.29H357.1zM152.6 447.1h102.3v102.29H152.6z" class="b"/><path d="M285.1 695.5l-.4 2.2a6.9 6.9 0 0 0-1.8-1 5.9 5.9 0 0 0-1.9-.3 4.6 4.6 0 0 0-2.9.9 2.8 2.8 0 0 0-1.1 2.3 1.6 1.6 0 0 0 .5 1.2 5.4 5.4 0 0 0 1.9.9l1.3.4a5.6 5.6 0 0 1 2.6 1.4 3.3 3.3 0 0 1 .8 2.3 4.9 4.9 0 0 1-1.8 4 7.4 7.4 0 0 1-4.9 1.5l-2.2-.2-2.2-.7.4-2.3a8.1 8.1 0 0 0 2.1 1.1 7.3 7.3 0 0 0 2.3.4 4.3 4.3 0 0 0 2.9-1 3 3 0 0 0 1.1-2.4 1.9 1.9 0 0 0-.5-1.4 4.8 4.8 0 0 0-1.9-.9l-1.1-.4a7 7 0 0 1-2.8-1.4 2.8 2.8 0 0 1-.8-2.1 4.9 4.9 0 0 1 1.8-3.9 6.9 6.9 0 0 1 4.7-1.5l1.8.2zm9.2 0l-.7 3.4h4.5l-.3 1.5h-4.5L292 707v.6a4.3 4.3 0 0 0 0 .5 1.1 1.1 0 0 0 .4 1 2.9 2.9 0 0 0 1.5.3h2.2l-.3 1.6h-2.4a4.6 4.6 0 0 1-2.7-.6 2.1 2.1 0 0 1-.8-1.9 5.6 5.6 0 0 1 0-.6v-.9l1.3-6.6H288l.3-1.5h3.2l.7-3.4h2zm16.5 8.6l-1.4 6.9h-2l.3-1.8a5.4 5.4 0 0 1-1.8 1.6 4.8 4.8 0 0 1-2.2.5 3.8 3.8 0 0 1-2.6-.9 3.1 3.1 0 0 1-1-2.4 4 4 0 0 1 1.7-3.4 7.3 7.3 0 0 1 4.5-1.3h2.7v-.9a3 3 0 0 0 0-.3 1.6 1.6 0 0 0-.7-1.4 3.3 3.3 0 0 0-1.9-.5l-2 .3-2.3.8.4-1.9 2.2-.6 2-.2a4.9 4.9 0 0 1 3.1.9 3 3 0 0 1 1.1 2.5 8.3 8.3 0 0 1-.1.9zm-4 .8h-1.9l-1.1.3a2.5 2.5 0 0 0-1.2 1 2.6 2.6 0 0 0-.4 1.5 1.9 1.9 0 0 0 .6 1.4 2.1 2.1 0 0 0 1.5.5 3.8 3.8 0 0 0 2.8-1.1 6 6 0 0 0 1.6-3.1v-.4h-1.9zm18.6-3.5a3.2 3.2 0 0 0-1.1-.7l-1.5-.2a4.2 4.2 0 0 0-3 1.2 6.2 6.2 0 0 0-1.7 3.4L317 711h-2l2.3-12.1h2l-.4 2.4a5.2 5.2 0 0 1 1.9-2 5 5 0 0 1 2.6-.7l1.4.2 1.1.6zm8.9-5.9l-.7 3.4h4.5l-.3 1.5h-4.5L332 707v.6a4.4 4.4 0 0 0 0 .5 1.1 1.1 0 0 0 .4 1 2.9 2.9 0 0 0 1.5.3h2.2l-.3 1.6h-2.4a4.6 4.6 0 0 1-2.7-.6 2.1 2.1 0 0 1-.8-1.9 5.5 5.5 0 0 1 0-.6v-.9l1.3-6.6H328l.3-1.5h3.2l.7-3.4h2z" class="c"/><path d="M537.3 492.1H483a1.3 1.3 0 0 1 0-2.5h54.4a1.3 1.3 0 1 1-.1 2.5zm2.3-1.3a1.2 1.2 0 0 0-.1-.7l-9.7-17.8h-38l-9.9 17.7v.3a1.2 1.2 0 0 0 .1 1.5l27.8 32.8h1.9l27.8-32.8a1.3 1.3 0 0 0 .1-1zm-29 31l-26.3-31.1 9.3-16.6h34.3l9 16.5zM499.3 491h-.5a1.3 1.3 0 0 1-.6-1.7l7.4-16.4a1.3 1.3 0 1 1 2.3 1l-7.4 16.4a1.3 1.3 0 0 1-1.2.7zm23 0a1.2 1.2 0 0 1-1.1-.7l-7.4-16.5a1.3 1.3 0 1 1 2.3-1l7.4 16.5a1.3 1.3 0 0 1-.6 1.7h-.5zm.4-.4a1.3 1.3 0 0 0-1.6.8c-1.5 4.3-3.2 8.5-4.8 12.6s-3.9 10-5.7 15l-10.2-27.8a1.3 1.3 0 0 0-2.3.9l10.9 29.8a16.1 16.1 0 0 0 1.5 1.4h.4a1.3 1.3 0 0 0 1.2-.9c1.9-5.8 4.2-11.5 6.5-17.6 1.6-4.1 3.3-8.4 4.9-12.7a1.3 1.3 0 0 0-.8-1.5zm14.6 103.8H483a1.3 1.3 0 0 1 0-2.5h54.4a1.3 1.3 0 0 1-.1 2.5zm2.3-1.4a1.2 1.2 0 0 0-.1-.7l-9.7-17.8h-38l-9.9 17.7v.3a1.2 1.2 0 0 0 .1 1.5l27.8 32.8h1.9l27.6-32.8a1.3 1.3 0 0 0 .3-1zm-29 31l-26.3-31 9.3-16.6h34.3l9 16.5zm-11.3-30.7h-.5a1.3 1.3 0 0 1-.6-1.7l7.4-16.4a1.3 1.3 0 1 1 2.3 1l-7.4 16.4a1.3 1.3 0 0 1-1.2.7zm23 0a1.2 1.2 0 0 1-1.1-.7l-7.4-16.5a1.3 1.3 0 1 1 2.3-1l7.4 16.5a1.3 1.3 0 0 1-.6 1.7h-.5zm.4-.4a1.3 1.3 0 0 0-1.6.8c-1.5 4.3-3.2 8.5-4.8 12.6s-3.9 10-5.7 15l-10.2-27.8a1.3 1.3 0 0 0-2.3.9l10.9 29.8a16.1 16.1 0 0 0 1.5 1.4h.4a1.3 1.3 0 0 0 1.2-.9c1.9-5.8 4.2-11.5 6.5-17.6 1.6-4.1 3.3-8.4 4.9-12.7a1.3 1.3 0 0 0-.8-1.5zm14.6 103.8H483a1.3 1.3 0 0 1 0-2.5h54.4a1.3 1.3 0 1 1-.1 2.5zm2.3-1.4a1.2 1.2 0 0 0-.1-.7l-9.7-17.8h-38l-9.9 17.7v.3a1.2 1.2 0 0 0 .1 1.5l27.8 32.8h1.9l27.8-32.8a1.3 1.3 0 0 0 .1-1zm-29 31l-26.3-31.1 9.3-16.6h34.3l9 16.5zm-11.3-30.7h-.5a1.3 1.3 0 0 1-.6-1.7l7.4-16.4a1.3 1.3 0 1 1 2.3 1l-7.4 16.4a1.3 1.3 0 0 1-1.2.7zm23 0a1.2 1.2 0 0 1-1.1-.7l-7.4-16.5a1.3 1.3 0 1 1 2.3-1l7.4 16.5a1.3 1.3 0 0 1-.6 1.7h-.5zm.4-.4a1.3 1.3 0 0 0-1.6.8c-1.5 4.3-3.2 8.5-4.8 12.6s-3.9 10-5.7 15l-10.2-27.8a1.3 1.3 0 0 0-2.3.9l10.9 29.8a16.1 16.1 0 0 0 1.5 1.4h.4a1.3 1.3 0 0 0 1.2-.9c1.9-5.8 4.2-11.5 6.5-17.6 1.6-4.1 3.3-8.4 4.9-12.7a1.3 1.3 0 0 0-.8-1.5zm14.6-305.4H483a1.3 1.3 0 0 1 0-2.5h54.4a1.3 1.3 0 1 1-.1 2.5zm2.3-1.3a1.2 1.2 0 0 0-.1-.7l-9.8-17.8h-38l-9.9 17.7v.3a1.2 1.2 0 0 0 .1 1.5l27.8 32.8h1.9l27.8-32.8a1.3 1.3 0 0 0 .2-1zm-29 31l-26.3-31.1 9.3-16.6h34.3l9 16.5zm-11.3-30.8h-.5a1.3 1.3 0 0 1-.6-1.7l7.4-16.4a1.3 1.3 0 1 1 2.3 1l-7.5 16.4a1.3 1.3 0 0 1-1.1.7zm23 0a1.2 1.2 0 0 1-1.1-.7l-7.4-16.5a1.3 1.3 0 1 1 2.3-1l7.4 16.5a1.3 1.3 0 0 1-.6 1.7h-.5zm.4-.4a1.3 1.3 0 0 0-1.6.8c-1.5 4.3-3.2 8.5-4.8 12.6s-3.9 10-5.7 15L500.4 389a1.3 1.3 0 0 0-2.3.9l10.9 29.7a16.1 16.1 0 0 0 1.5 1.4h.4a1.3 1.3 0 0 0 1.2-.9c1.9-5.8 4.2-11.5 6.5-17.6 1.6-4.1 3.3-8.4 4.9-12.7a1.3 1.3 0 0 0-.8-1.5z" class="d"/><path d="M184.5 516.1l-15.3-17.8 15.3-17.8h38.4l15.4 17.8-15.4 17.8h-38.4zm-10.8-12.5l10.6-12.1" class="e"/><path d="M286.8 413.8L271.4 396l15.4-17.8h38.4l15.4 17.8-15.4 17.8h-38.4zm31.8-22.4h17.5" class="f"/><path d="M330.8 193l-10.6-12.1m-33.4 28.3l-15.4-17.8 15.4-17.8h38.4l15.4 17.8-15.4 17.8h-38.4z" class="g"/><path d="M510.6 162.9a28.6 28.6 0 1 0 28.6 28.6 28.6 28.6 0 0 0-28.6-28.6zm16 27.8l-4.1-10 6.6-6.6a25.1 25.1 0 0 1 6.9 16.6h-9.3zm-26.7 12.6l10 4.1v9.4a25.4 25.4 0 0 1-16.6-6.9zm11.6 4.1l10-4.1 6.6 6.6a25.1 25.1 0 0 1-16.6 6.9v-9.3zm9.5-5.6l-10.4 4.2-10.3-4.3-4.3-10.3 4.3-10.3 10.3-4.3 10.3 4.3 4.3 10.3zm.4-22.2l-10-4.1V166a25.4 25.4 0 0 1 16.6 6.9zm-11.5-4.1l-10 4.1-6.7-6.6a25.1 25.1 0 0 1 16.6-6.9v9.3h.1zm-17.8-1.5l6.6 6.6-4.1 10h-9.4a25.3 25.3 0 0 1 6.9-16.6zm-6.9 18.2h9.4l4.1 10-6.6 6.6a25.3 25.3 0 0 1-6.9-16.5zm43.8 16.6l-6.6-6.7 4.1-10h9.5a25.3 25.3 0 0 1-7 16.7z" class="h"/><rect width="95" height="95" x="43.6" y="32.4" class="i" rx="2" ry="2" transform="rotate(90 91.1 79.9)"/><path d="M57.3 58.5l2.1-9.7h2.3l-2.8 11.6h-3.2L53 48.7h2.3zm13.5-3.1v5h-2.3v-1a2.8 2.8 0 0 1-1.1.9 3.7 3.7 0 0 1-3.8-.5 2.9 2.9 0 0 1-.8-2.2 2.6 2.6 0 0 1 1-2.3 5.2 5.2 0 0 1 3.1-.7h1.6v-.3a1 1 0 0 0-.4-.8 2 2 0 0 0-1.2-.3l-1.6.2-1.6.7v-2l1.5-.5H67a4.2 4.2 0 0 1 3 .9 4.4 4.4 0 0 1 .8 2.9zm-3.2.9a3.5 3.5 0 0 0-1.8.3 1.2 1.2 0 0 0-.5 1.1 1.2 1.2 0 0 0 1.3 1.3 1.6 1.6 0 0 0 1.4-.7 3.2 3.2 0 0 0 .5-1.9v-.1h-.9zm13.2-2.2l-.9-.5-1.1-.2-1.3.3a1.9 1.9 0 0 0-.8.7 2 2 0 0 0-.3.7 8 8 0 0 0-.1 1.3v4h-2.2v-8.7h2.3V53a2.5 2.5 0 0 1 1-1.2 3.1 3.1 0 0 1 1.6-.4h.9l.9.3v2.2zm2.4-2.4h4.5v7h2.8v1.8h-8v-1.9h2.9v-5.2h-2.2v-1.7zm2.2-4.3h2.3v2.7h-2.3v-2.7zm14.3 8v5h-2.3v-1a2.8 2.8 0 0 1-1.1.9 3.7 3.7 0 0 1-3.8-.5 2.9 2.9 0 0 1-.8-2.2 2.6 2.6 0 0 1 1-2.3 5.2 5.2 0 0 1 3.1-.7h1.6v-.3a1 1 0 0 0-.4-.8 2 2 0 0 0-1.2-.3l-1.6.2-1.6.7v-2l1.5-.5h1.7a4.2 4.2 0 0 1 3 .9 4.4 4.4 0 0 1 .9 2.9zm-3.2.9a3.5 3.5 0 0 0-1.8.3 1.2 1.2 0 0 0-.5 1.1 1.2 1.2 0 0 0 1.3 1.3 1.6 1.6 0 0 0 1.4-.7 3.2 3.2 0 0 0 .5-1.9v-.1h-.9zm7.6-3.4a3.1 3.1 0 0 1 1-1.1 2.3 2.3 0 0 1 1.3-.4 2.8 2.8 0 0 1 2.4 1.2 5.9 5.9 0 0 1 .8 3.4 5.9 5.9 0 0 1-.8 3.4 2.7 2.7 0 0 1-2.3 1.2 2.5 2.5 0 0 1-1.4-.4 2.7 2.7 0 0 1-.9-1.1v1.3h-2.3V48.3h2.3v4.6zm3.2 3.2a3.9 3.9 0 0 0-.4-2 1.3 1.3 0 0 0-1.2-.7 1.3 1.3 0 0 0-1.2.7 4.8 4.8 0 0 0 0 4 1.3 1.3 0 0 0 1.2.7 1.3 1.3 0 0 0 1.2-.7 3.9 3.9 0 0 0 .4-2zm6.1.7V50H111v-1.7h4.6v8.5a2.5 2.5 0 0 0 .3 1.5 1.3 1.3 0 0 0 1.1.4h1.8v1.8h-2.5a2.9 2.9 0 0 1-2.3-.8 4.4 4.4 0 0 1-.6-2.9zm15.2 3.2l-1.6.5-1.7.2a4.5 4.5 0 0 1-3.4-1.2 4.6 4.6 0 0 1-1.2-3.4 4.9 4.9 0 0 1 1.1-3.4 4.4 4.4 0 0 1 6.1-.1 4.6 4.6 0 0 1 1.1 3.2v.9h-6a1.9 1.9 0 0 0 .6 1.5 2.7 2.7 0 0 0 1.8.5l1.6-.2 1.6-.7V60zm-1.9-4.9a2 2 0 0 0-.5-1.4 1.8 1.8 0 0 0-1.3-.5 1.7 1.7 0 0 0-1.3.5 2.2 2.2 0 0 0-.6 1.4h3.6z" class="j"/><rect width="73.4" height="40.91" x="54.4" y="75.2" class="k" rx="7.3" ry="7.3"/><path d="M76 97.5l3.5-7.6h1.3l-4.2 8.7H75l-.9-8.7h1.2zm10.5-2.6l-.7 3.7h-1.1l.2-1a3 3 0 0 1-1 .8 2.6 2.6 0 0 1-1.2.3 2 2 0 0 1-1.4-.5 1.7 1.7 0 0 1-.5-1.3 2.2 2.2 0 0 1 .9-1.8 4 4 0 0 1 2.5-.7h1.4v-.5a.9.9 0 0 0-.4-.8 1.8 1.8 0 0 0-1.1-.3H83l-1.2.4.2-.8 1.2-.3h1.1a2.7 2.7 0 0 1 1.7.5 1.6 1.6 0 0 1 .6 1.3 4.5 4.5 0 0 1 0 .5v.7zm-2.2.4h-1.6a1.4 1.4 0 0 0-.6.5 1.4 1.4 0 0 0-.2.8 1 1 0 0 0 .3.8 1.1 1.1 0 0 0 .8.3 2.1 2.1 0 0 0 1.5-.6 3.2 3.2 0 0 0 .9-1.7v-.1h-1zm6.7.9v.6a.8.8 0 0 0 .3.6l.7.3h1.2l-.2.9h-1.2a2.5 2.5 0 0 1-1.5-.4 1.3 1.3 0 0 1-.5-1.1 3.3 3.3 0 0 1 0-.4v-.5l1.2-5.9h-1.7l.2-.8h2.9zm4.5-.1l.8-4.1h1.1l-.8 4.1v.8a.9.9 0 0 0 .3.7 1.1 1.1 0 0 0 .8.2 1.7 1.7 0 0 0 1.3-.5 3 3 0 0 0 .7-1.5l.7-3.7h1.1l-1.3 6.6H99l.2-1a3 3 0 0 1-.9.9 2.3 2.3 0 0 1-1.1.3 1.7 1.7 0 0 1-1.2-.4 1.6 1.6 0 0 1-.4-1.2v-1.2zm12 2.2l-1.2.4h-1.2a2.8 2.8 0 0 1-2-.7 2.5 2.5 0 0 1-.7-1.9 4.8 4.8 0 0 1 .4-1.8 4.6 4.6 0 0 1 1-1.5 3.5 3.5 0 0 1 1.1-.8l1.2-.3a2.3 2.3 0 0 1 1.7.7 2.5 2.5 0 0 1 .7 1.8v1.3h-4.7v.6a1.6 1.6 0 0 0 .5 1.2 1.8 1.8 0 0 0 1.3.4l1.1-.2 1.3-.5zm-.1-3.5v-.5a1.5 1.5 0 0 0-.4-1.1 1.4 1.4 0 0 0-1.1-.4 1.9 1.9 0 0 0-1.3.5 2.9 2.9 0 0 0-.9 1.4h3.6z" class="l"/><rect width="248" height="95" x="-32.9" y="233.4" class="i" rx="2" ry="2" transform="rotate(90 91.05 280.95)"/><path d="M70.4 173.3h2.8l3.1 11.7H74l-.7-2.9h-3.1l-.7 2.9h-2.3zm1.4 2.1l-1.1 4.8h2.2zm13.8 3.2l-.9-.5-1.1-.2-1.3.3a1.9 1.9 0 0 0-.8.7 2 2 0 0 0-.3.7 8 8 0 0 0-.1 1.3v4h-2.2v-8.7h2.3v1.4a2.5 2.5 0 0 1 1-1.2 3.1 3.1 0 0 1 1.6-.4h.9l.9.3v2.2zm9.6 0l-.9-.5-1.1-.2-1.3.3a1.9 1.9 0 0 0-.8.7 2 2 0 0 0-.3.7 8 8 0 0 0-.1 1.3v4h-2.2v-8.7h2.3v1.4a2.5 2.5 0 0 1 1-1.2 3.1 3.1 0 0 1 1.6-.4h.9l.9.3v2.2zm9.3 1.3v5h-2.3v-1a2.8 2.8 0 0 1-1.1.9 3.7 3.7 0 0 1-3.8-.5 2.9 2.9 0 0 1-.8-2.2 2.6 2.6 0 0 1 1-2.3 5.2 5.2 0 0 1 3.1-.7h1.6v-.4a1 1 0 0 0-.4-.8 2 2 0 0 0-1.2-.3l-1.6.2-1.6.7v-2l1.5-.5h1.7a4.2 4.2 0 0 1 3 .9 4.4 4.4 0 0 1 .9 3zm-3.2.9a3.5 3.5 0 0 0-1.8.3 1.2 1.2 0 0 0-.5 1.1 1.2 1.2 0 0 0 1.3 1.3 1.6 1.6 0 0 0 1.4-.7 3.2 3.2 0 0 0 .5-1.9v-.2h-.9zm9.8 5.1a4.4 4.4 0 0 1-1.1 1.8 2.3 2.3 0 0 1-1.6.6h-1.9v-1.7h.9a1.8 1.8 0 0 0 1-.2 2.6 2.6 0 0 0 .7-1.1l.2-.5-3.3-8.5h2.4l2 5.7 1.9-5.7h2.4z" class="j"/><rect width="73.4" height="40.91" x="54.4" y="199.8" class="k" rx="7.3" ry="7.3"/><path d="M78.7 214.4h4.9l-.2 1h-1.9l-1.3 6.8H82l-.2 1H77l.2-1H79l1.3-6.8h-1.8zm9.7.3l-.4 1.9h2.4l-.2.8h-2.4l-.7 3.6v.6a.6.6 0 0 0 .2.5l.8.2h1.2l-.2.9h-1.2a2.5 2.5 0 0 1-1.4-.3 1.2 1.2 0 0 1-.5-1v-.9l.7-3.6H85l.2-.8H87l.4-1.9h1.1zm8.3 8.1l-1.2.4h-1.2a2.8 2.8 0 0 1-2-.7 2.5 2.5 0 0 1-.7-1.9 4.8 4.8 0 0 1 .4-1.6 4.6 4.6 0 0 1 1-1.5 3.5 3.5 0 0 1 1.1-.8l1.2-.3a2.3 2.3 0 0 1 1.7.7 2.5 2.5 0 0 1 .7 1.8v1.3h-4.9v.6a1.6 1.6 0 0 0 .5 1.2 1.8 1.8 0 0 0 1.3.4l1.1-.2 1.3-.5zm-.1-3.5v-.5a1.5 1.5 0 0 0-.4-1.1 1.4 1.4 0 0 0-1.1-.4 1.9 1.9 0 0 0-1.3.5 2.9 2.9 0 0 0-.9 1.4h3.6zm6.1-2a1.6 1.6 0 0 1 .6-.6l.8-.2a1.1 1.1 0 0 1 .8.3 1.2 1.2 0 0 1 .3.9 5.5 5.5 0 0 1-.1.7l-.2 1-.7 3.8h-1l.7-3.8.2-.9v-.5a.8.8 0 0 0-.1-.5l-.4-.2a.8.8 0 0 0-.7.4 5.6 5.6 0 0 0-.5 1.7l-.7 3.8h-1l.7-3.8.2-.9v-.5a.8.8 0 0 0-.1-.5l-.4-.2a.8.8 0 0 0-.7.3 5.7 5.7 0 0 0-.5 1.7l-.7 3.8h-1l1.3-6.6h1v.6l.6-.5.7-.2.7.2a.9.9 0 0 1 .2.7z" class="l"/><rect width="73.4" height="40.91" x="54.4" y="250.7" class="k" rx="7.3" ry="7.3"/><path d="M78.7 265.3h4.9l-.2 1h-1.9l-1.3 6.8H82l-.2 1H77l.2-1H79l1.3-6.8h-1.8zm9.7.4l-.4 1.8h2.4l-.2.8h-2.4l-.7 3.6v.6a.6.6 0 0 0 .2.5l.8.2h1.2l-.2.9h-1.2a2.5 2.5 0 0 1-1.4-.3 1.2 1.2 0 0 1-.5-1v-.8l.7-3.6H85l.2-.8H87l.4-1.9h1.1zm8.3 8l-1.2.4h-1.2a2.8 2.8 0 0 1-2-.7 2.5 2.5 0 0 1-.7-1.9 4.8 4.8 0 0 1 .4-1.8 4.6 4.6 0 0 1 1-1.5 3.5 3.5 0 0 1 1.1-.8l1.2-.3a2.3 2.3 0 0 1 1.7.7 2.5 2.5 0 0 1 .7 1.8v1.3h-4.9v.6a1.6 1.6 0 0 0 .5 1.2 1.8 1.8 0 0 0 1.3.4l1.1-.2 1.3-.5zm-.1-3.5v-.5a1.5 1.5 0 0 0-.4-1.1 1.4 1.4 0 0 0-1.1-.4 1.9 1.9 0 0 0-1.3.5 2.9 2.9 0 0 0-.9 1.4h3.6zm6.1-2a1.6 1.6 0 0 1 .6-.6l.8-.2a1.1 1.1 0 0 1 .8.3 1.2 1.2 0 0 1 .3.9 5.5 5.5 0 0 1-.1.7l-.2 1-.7 3.8h-1l.7-3.8.2-.9v-.4a.8.8 0 0 0-.1-.5l-.4-.2a.8.8 0 0 0-.7.4 5.6 5.6 0 0 0-.5 1.7l-.7 3.8h-1l.7-3.8.2-.9v-.5a.8.8 0 0 0-.1-.5l-.4-.2a.8.8 0 0 0-.7.3 5.7 5.7 0 0 0-.5 1.7l-.7 3.8h-1l1.3-6.6h1v.6l.6-.5.7-.2.7.2a.9.9 0 0 1 .2.6z" class="l"/><rect width="73.4" height="40.91" x="54.4" y="301.6" class="k" rx="7.3" ry="7.3"/><path d="M78.7 316.2h4.9l-.2 1h-1.9l-1.3 6.8H82l-.2 1H77l.2-1H79l1.3-6.8h-1.8zm9.7.4l-.4 1.8h2.4l-.2.8h-2.4l-.7 3.6v.6a.6.6 0 0 0 .2.5l.8.2h1.2l-.2.9h-1.2a2.5 2.5 0 0 1-1.4-.3 1.2 1.2 0 0 1-.5-1v-.8l.7-3.6H85l.2-.8H87l.4-1.9h1.1zm8.3 8.1l-1.2.4h-1.2a2.8 2.8 0 0 1-2-.7 2.5 2.5 0 0 1-.7-1.9 4.8 4.8 0 0 1 .4-1.8 4.6 4.6 0 0 1 1-1.5 3.5 3.5 0 0 1 1.1-.8l1.2-.3a2.3 2.3 0 0 1 1.7.7 2.5 2.5 0 0 1 .7 1.8v1.4h-4.9v.6a1.6 1.6 0 0 0 .5 1.2 1.8 1.8 0 0 0 1.3.4l1.1-.2 1.3-.5zm-.1-3.5v-.5a1.5 1.5 0 0 0-.4-1.1 1.4 1.4 0 0 0-1.1-.4 1.9 1.9 0 0 0-1.3.5 2.9 2.9 0 0 0-.9 1.4h3.6zm6.1-2.1a1.6 1.6 0 0 1 .6-.6l.8-.2a1.1 1.1 0 0 1 .8.3 1.2 1.2 0 0 1 .3.9 5.5 5.5 0 0 1-.1.7l-.2 1-.7 3.8h-1l.7-3.8.2-.9v-.5a.8.8 0 0 0-.1-.5l-.4-.2a.8.8 0 0 0-.7.4 5.6 5.6 0 0 0-.5 1.7l-.7 3.8h-1l.7-3.8.2-.9v-.5a.8.8 0 0 0-.1-.5l-.4-.2a.8.8 0 0 0-.7.3 5.7 5.7 0 0 0-.5 1.7l-.7 3.9h-1l1.3-6.6h1v.6l.6-.5.7-.2.7.2a.9.9 0 0 1 .2.6z" class="l"/><rect width="73.4" height="40.91" x="54.4" y="352.5" class="k" rx="7.3" ry="7.3"/><path d="M78.7 367.2h4.9l-.2 1h-1.9l-1.3 6.8H82l-.2 1H77l.2-1H79l1.3-6.8h-1.8zm9.7.3l-.4 1.8h2.4l-.2.8h-2.4l-.7 3.6v.6a.6.6 0 0 0 .2.5l.8.2h1.2l-.2.9h-1.2a2.5 2.5 0 0 1-1.4-.3 1.2 1.2 0 0 1-.5-1v-.8l.7-3.6H85l.2-.8H87l.4-1.9h1.1zm8.3 8.1l-1.2.4h-1.2a2.8 2.8 0 0 1-2-.7 2.5 2.5 0 0 1-.7-1.9 4.8 4.8 0 0 1 .4-1.8 4.6 4.6 0 0 1 1-1.5 3.5 3.5 0 0 1 1.1-.8l1.2-.3a2.3 2.3 0 0 1 1.7.7 2.5 2.5 0 0 1 .7 1.8v1.3h-4.9v.6a1.6 1.6 0 0 0 .5 1.2 1.8 1.8 0 0 0 1.3.4l1.1-.2 1.3-.5zm-.1-3.6v-.5a1.5 1.5 0 0 0-.4-1.1 1.4 1.4 0 0 0-1.1-.4 1.9 1.9 0 0 0-1.3.5 2.9 2.9 0 0 0-.8 1.5h3.6zm6.1-2a1.6 1.6 0 0 1 .6-.6l.8-.2a1.1 1.1 0 0 1 .8.3 1.2 1.2 0 0 1 .3.9 5.5 5.5 0 0 1-.1.7l-.2 1-.7 3.8h-1l.7-3.8.2-.9v-.5a.8.8 0 0 0-.1-.5l-.4-.2a.8.8 0 0 0-.7.4 5.6 5.6 0 0 0-.5 1.7l-.7 3.8h-1l.7-3.8.2-.9v-.5a.8.8 0 0 0-.1-.5l-.4-.2a.8.8 0 0 0-.7.3 5.7 5.7 0 0 0-.5 1.7l-.7 3.8h-1l1.3-6.6h1v.6l.6-.5.7-.2.7.2a.9.9 0 0 1 .2.7z" class="l"/><path d="M561.7 38v716H254.9V549.4H152.6V447.1h102.3V38h306.8M357.1 651.7h102.3V140.3H357.1v511.4M571.7 28H244.9v409.1H142.6v122.3h102.3V764h326.8V28zM367.1 150.3h82.3v491.4h-82.3V150.3z" class="c"/></svg>