<svg xmlns="http://www.w3.org/2000/svg" width="612" height="792" data-name="Layer 1" viewBox="0 0 612 792"><path fill="#e6e7e8" stroke="#bcbec0" stroke-dasharray="1 5" stroke-linecap="round" stroke-linejoin="round" stroke-width="3" d="M254.9 651.7h102.3v102.29H254.9z"/><path fill="#fff" stroke="#bcbec0" stroke-dasharray="1 5" stroke-linecap="round" stroke-linejoin="round" stroke-width="3" d="M254.9 549.4h102.3v102.29H254.9zm0-102.3h102.3v102.29H254.9z"/><path fill="#fff" stroke="#bcbec0" stroke-dasharray="1 5" stroke-linecap="round" stroke-linejoin="round" stroke-width="3" d="M254.9 344.9h102.3v102.29H254.9zm0-102.3h102.3v102.29H254.9zm0-102.3h102.3v102.29H254.9zm0-102.3h102.3v102.29H254.9zm204.5 613.7h102.3v102.29H459.4zm0-102.3h102.3v102.29H459.4zm0-102.3h102.3v102.29H459.4z"/><path fill="#fff" stroke="#bcbec0" stroke-dasharray="1 5" stroke-linecap="round" stroke-linejoin="round" stroke-width="3" d="M459.4 344.9h102.3v102.29H459.4zm0-102.3h102.3v102.29H459.4zm0-102.3h102.3v102.29H459.4zm0-102.3h102.3v102.29H459.4z"/><path fill="#fff" stroke="#bcbec0" stroke-dasharray="1 5" stroke-linecap="round" stroke-linejoin="round" stroke-width="3" d="M357.1 38h102.3v102.29H357.1zm0 613.7h102.3v102.29H357.1zM152.6 447.1h102.3v102.29H152.6z"/><path fill="#231f20" d="M273.6 708.7l1.2-1a4.3 4.3 0 0 0 3.8 2.1c1.8 0 3.2-1 3.2-2.7s-.7-1.8-1.8-2.4l-1.7-1a4.1 4.1 0 0 1-2.3-3.5c0-2.2 1.9-3.9 4.4-3.9a5.3 5.3 0 0 1 4.3 2.1l-1.1 1a4.1 4.1 0 0 0-3.2-1.6 2.4 2.4 0 0 0-2.6 2.3 2.7 2.7 0 0 0 1.7 2.3l1.7 1c1.4.9 2.4 1.9 2.4 3.6s-2.2 4.3-4.9 4.3a5.5 5.5 0 0 1-5.1-2.6zm16-.5a8 8 0 0 1 .2-1.4l1.1-5.2h-3.1l.2-1.3h3.2l.9-3.4h1.4l-.7 3.4h5.3l-.3 1.4h-5.3l-1.1 5.2a4.3 4.3 0 0 0-.1 1 1.8 1.8 0 0 0 2 2 5.9 5.9 0 0 0 2.8-.8l.6 1.2a7.4 7.4 0 0 1-3.8 1c-2.3 0-3.3-1.2-3.3-3.1zm10.9-1c0-3.8 2.6-7.2 5.9-7.2a3.7 3.7 0 0 1 3.3 1.6h.1l.4-1.3h1.4l-2.2 10.7H308l.2-1.6h-.1a5.8 5.8 0 0 1-3.9 1.9c-2.2 0-3.7-1.4-3.7-4.1zm7.9.6l1-4.8a3.2 3.2 0 0 0-2.8-1.6c-2.5 0-4.4 2.6-4.4 5.5s1 3 2.5 3a5.2 5.2 0 0 0 3.7-2.1zm8.5-7.5h1.4l-.5 3.1h.1c1.2-1.8 2.9-3.3 4.8-3.3a3.7 3.7 0 0 1 2.2.6l-.7 1.5a3.1 3.1 0 0 0-1.8-.5c-1.7 0-3.4 1.6-4.9 3.9l-1.1 5.6h-1.7zm12.5 7.9a8 8 0 0 1 .2-1.4l1.1-5.2h-3.1l.2-1.3h3.2l.9-3.4h1.4l-.7 3.4h5.3l-.3 1.4h-5.3l-1.1 5.2a4.2 4.2 0 0 0-.1 1 1.8 1.8 0 0 0 2 2 5.9 5.9 0 0 0 2.8-.8l.6 1.2a7.4 7.4 0 0 1-3.8 1c-2.3 0-3.3-1.2-3.3-3.1z"/><path fill="#2865b0" d="M537.3 492.1H483a1.3 1.3 0 0 1 0-2.5h54.4a1.3 1.3 0 1 1 0 2.5z"/><path fill="#2865b0" d="M539.6 490.8a1.2 1.2 0 0 0-.1-.7l-9.7-17.8h-38l-9.9 17.7v.3a1.2 1.2 0 0 0 .1 1.5l27.8 32.8h1.9l27.8-32.8a1.3 1.3 0 0 0 .1-1zm-29 31l-26.3-31.1 9.3-16.6h34.3l9 16.5z"/><path fill="#2865b0" d="M499.3 491h-.5a1.3 1.3 0 0 1-.6-1.7l7.4-16.4a1.3 1.3 0 1 1 2.3 1l-7.4 16.4a1.3 1.3 0 0 1-1.2.7zm23 0a1.2 1.2 0 0 1-1.1-.7l-7.4-16.5a1.3 1.3 0 1 1 2.3-1l7.4 16.5a1.3 1.3 0 0 1-.6 1.7z"/><path fill="#2865b0" d="M522.7 490.6a1.3 1.3 0 0 0-1.6.8c-1.5 4.3-3.2 8.5-4.8 12.6s-3.9 10-5.7 15l-10.2-27.8a1.3 1.3 0 0 0-2.3.9l10.9 29.8a16.1 16.1 0 0 0 1.5 1.4h.4a1.3 1.3 0 0 0 1.2-.9c1.9-5.8 4.2-11.5 6.5-17.6 1.6-4.1 3.3-8.4 4.9-12.7a1.3 1.3 0 0 0-.8-1.5zm14.6 103.8H483a1.3 1.3 0 0 1 0-2.5h54.4a1.3 1.3 0 0 1 0 2.5z"/><path fill="#2865b0" d="M539.6 593a1.2 1.2 0 0 0-.1-.7l-9.7-17.8h-38l-9.9 17.7v.3a1.2 1.2 0 0 0 .1 1.5l27.8 32.8h1.9l27.6-32.8a1.3 1.3 0 0 0 .3-1zm-29 31l-26.3-31 9.3-16.6h34.3l9 16.5z"/><path fill="#2865b0" d="M499.3 593.3h-.5a1.3 1.3 0 0 1-.6-1.7l7.4-16.4a1.3 1.3 0 1 1 2.3 1l-7.4 16.4a1.3 1.3 0 0 1-1.2.7zm23 0a1.2 1.2 0 0 1-1.1-.7l-7.4-16.5a1.3 1.3 0 1 1 2.3-1l7.4 16.5a1.3 1.3 0 0 1-.6 1.7z"/><path fill="#2865b0" d="M522.7 592.9a1.3 1.3 0 0 0-1.6.8c-1.5 4.3-3.2 8.5-4.8 12.6s-3.9 10-5.7 15l-10.2-27.8a1.3 1.3 0 0 0-2.3.9l10.9 29.8a16.1 16.1 0 0 0 1.5 1.4h.4a1.3 1.3 0 0 0 1.2-.9c1.9-5.8 4.2-11.5 6.5-17.6 1.6-4.1 3.3-8.4 4.9-12.7a1.3 1.3 0 0 0-.8-1.5zm14.6 103.8H483a1.3 1.3 0 0 1 0-2.5h54.4a1.3 1.3 0 1 1 0 2.5z"/><path fill="#2865b0" d="M539.6 695.3a1.2 1.2 0 0 0-.1-.7l-9.7-17.8h-38l-9.9 17.7v.3a1.2 1.2 0 0 0 .1 1.5l27.8 32.8h1.9l27.8-32.8a1.3 1.3 0 0 0 .1-1zm-29 31l-26.3-31.1 9.3-16.6h34.3l9 16.5z"/><path fill="#2865b0" d="M499.3 695.6h-.5a1.3 1.3 0 0 1-.6-1.7l7.4-16.4a1.3 1.3 0 1 1 2.3 1l-7.4 16.4a1.3 1.3 0 0 1-1.2.7zm23 0a1.2 1.2 0 0 1-1.1-.7l-7.4-16.5a1.3 1.3 0 1 1 2.3-1l7.4 16.5a1.3 1.3 0 0 1-.6 1.7z"/><path fill="#2865b0" d="M522.7 695.2a1.3 1.3 0 0 0-1.6.8c-1.5 4.3-3.2 8.5-4.8 12.6s-3.9 10-5.7 15l-10.2-27.8a1.3 1.3 0 0 0-2.3.9l10.9 29.8a16.1 16.1 0 0 0 1.5 1.4h.4a1.3 1.3 0 0 0 1.2-.9c1.9-5.8 4.2-11.5 6.5-17.6 1.6-4.1 3.3-8.4 4.9-12.7a1.3 1.3 0 0 0-.8-1.5zm14.6-305.4H483a1.3 1.3 0 0 1 0-2.5h54.4a1.3 1.3 0 1 1 0 2.5z"/><path fill="#2865b0" d="M539.6 388.5a1.2 1.2 0 0 0-.1-.7l-9.8-17.8h-38l-9.9 17.7v.3a1.2 1.2 0 0 0 .1 1.5l27.8 32.8h1.9l27.8-32.8a1.3 1.3 0 0 0 .2-1zm-29 31l-26.3-31.1 9.3-16.6h34.3l9 16.5z"/><path fill="#2865b0" d="M499.3 388.7h-.5a1.3 1.3 0 0 1-.6-1.7l7.4-16.4a1.3 1.3 0 1 1 2.3 1l-7.5 16.4a1.3 1.3 0 0 1-1.1.7zm23 0a1.2 1.2 0 0 1-1.1-.7l-7.4-16.5a1.3 1.3 0 1 1 2.3-1l7.4 16.5a1.3 1.3 0 0 1-.6 1.7z"/><path fill="#2865b0" d="M522.7 388.3a1.3 1.3 0 0 0-1.6.8c-1.5 4.3-3.2 8.5-4.8 12.6s-3.9 10-5.7 15L500.4 389a1.3 1.3 0 0 0-2.3.9l10.9 29.7a16.1 16.1 0 0 0 1.5 1.4h.4a1.3 1.3 0 0 0 1.2-.9c1.9-5.8 4.2-11.5 6.5-17.6 1.6-4.1 3.3-8.4 4.9-12.7a1.3 1.3 0 0 0-.8-1.5z"/><path fill="none" stroke="#253979" stroke-miterlimit="10" stroke-width="2.5" d="M184.5 516.1l-15.3-17.8 15.3-17.8h38.4l15.4 17.8-15.4 17.8h-38.4zm-10.8-12.5l10.6-12.1"/><path fill="none" stroke="#72c6ef" stroke-miterlimit="10" stroke-width="2.5" d="M286.8 413.8L271.4 396l15.4-17.8h38.4l15.4 17.8-15.4 17.8h-38.4zm31.8-22.4h17.5"/><path fill="none" stroke="#bcbec0" stroke-miterlimit="10" stroke-width="2.5" d="M330.8 193l-10.6-12.1m-33.4 28.3l-15.4-17.8 15.4-17.8h38.4l15.4 17.8-15.4 17.8h-38.4z"/><path fill="#579577" d="M510.6 162.9a28.6 28.6 0 1 0 28.6 28.6 28.6 28.6 0 0 0-28.6-28.6zm16 27.8l-4.1-10 6.6-6.6a25.1 25.1 0 0 1 6.9 16.6zm-26.7 12.6l10 4.1v9.4a25.4 25.4 0 0 1-16.6-6.9zm11.6 4.1l10-4.1 6.6 6.6a25.1 25.1 0 0 1-16.6 6.9zm9.5-5.6l-10.4 4.2-10.3-4.3-4.3-10.3 4.3-10.3 10.3-4.3 10.3 4.3 4.3 10.3zm.4-22.2l-10-4.1V166a25.4 25.4 0 0 1 16.6 6.9zm-11.5-4.1l-10 4.1-6.7-6.6a25.1 25.1 0 0 1 16.6-6.9v9.3zm-17.8-1.5l6.6 6.6-4.1 10h-9.4a25.3 25.3 0 0 1 6.9-16.6zm-6.9 18.2h9.4l4.1 10-6.6 6.6a25.3 25.3 0 0 1-6.9-16.5zm43.8 16.6l-6.6-6.7 4.1-10h9.5a25.3 25.3 0 0 1-7 16.7z"/><rect width="95" height="95" x="43.6" y="32.4" fill="#fff" stroke="#bcbec0" stroke-miterlimit="10" stroke-width="8" rx="2" ry="2" transform="rotate(90 91.1 79.9)"/><path fill="#58595b" d="M52.9 50h2.5l1.2 4.9c.3 1.1.5 2.2.8 3.3h.1c.3-1.2.5-2.2.8-3.3l1.3-4.9H62l-3.1 10.4h-2.8zm15.6 5.3c-.1-.7-.6-1.2-1.7-1.2a5.5 5.5 0 0 0-2.4.7l-.8-1.5a7.5 7.5 0 0 1 3.7-1.1c2.2 0 3.6 1.2 3.6 3.6v4.5h-2l-.2-.9h-.1a4.8 4.8 0 0 1-2.8 1.1 2.4 2.4 0 0 1-2.6-2.4c0-1.7 1.5-2.6 5.3-2.8zm-1.9 3.5a3.1 3.1 0 0 0 1.9-.8v-1.3c-2.3.1-3 .6-3 1.3s.4.8 1.1.8zm7.1-6.3h1.9l.2 1.7a3.7 3.7 0 0 1 3.2-1.9 3.3 3.3 0 0 1 1.5.3l-.5 2-1.4-.2a2.9 2.9 0 0 0-2.7 1.9v4.1h-2.2zm9 0h5.5v7.9h-2.3v-6.1h-3.2zm2.7-2.6a1.6 1.6 0 0 1 3.1 0 1.6 1.6 0 0 1-3.1 0zm11.9 5.4c-.1-.7-.6-1.2-1.7-1.2a5.5 5.5 0 0 0-2.4.7l-.8-1.5a7.5 7.5 0 0 1 3.6-1c2.2 0 3.6 1.2 3.6 3.6v4.5h-1.9l-.2-.9h-.1a4.8 4.8 0 0 1-2.8 1.1 2.4 2.4 0 0 1-2.6-2.4c0-1.8 1.5-2.7 5.3-2.9zm-1.9 3.5a3.1 3.1 0 0 0 1.9-.8v-1.3c-2.3.1-3 .6-3 1.3s.4.8 1.1.8zm6.4-9.6h2.4v4a3.3 3.3 0 0 1 2.2-.9c2 0 3.2 1.6 3.2 4s-1.7 4.3-3.4 4.3a3.1 3.1 0 0 1-2.2-1.1h-.1l-.2.9h-1.8zm3.7 9.5c.9 0 1.6-.7 1.6-2.3s-.5-2.1-1.5-2.1a2 2 0 0 0-1.5.7v3.2a2.1 2.1 0 0 0 1.4.5zm5.8-9.5h4.7v8.2a1.2 1.2 0 0 0 1.3 1.3l1.2-.3.5 1.7a7 7 0 0 1-2.4.4c-2 0-3-1.3-3-3.3V51h-2.3zm13.6 3.1a3.5 3.5 0 0 1 3.7 3.8 6.1 6.1 0 0 1-.1 1h-5.3a2.1 2.1 0 0 0 2.3 1.7 4.4 4.4 0 0 0 2-.5l.8 1.4a6.1 6.1 0 0 1-3.1.9 4.2 4.2 0 1 1-.3-8.3zm1.6 3.3a1.4 1.4 0 0 0-1.6-1.6 1.8 1.8 0 0 0-1.8 1.6z"/><rect width="73.4" height="40.91" x="54.4" y="75.2" fill="none" stroke="#bcbec0" stroke-dasharray="1 5" stroke-linecap="round" stroke-linejoin="round" stroke-width="3" rx="7.3" ry="7.3"/><path fill="#939598" d="M74.5 90.8h1l.4 4.4.2 2.6 1.3-2.6 2.2-4.4h1l-4.2 7.9h-1.1zm6.4 5.7c0-2.1 1.4-3.9 3.2-3.9a2 2 0 0 1 1.8.9l.2-.7h.7l-1.2 5.8H85v-.9a3.1 3.1 0 0 1-2.1 1c-1.2.1-2-.7-2-2.2zm4.3.3l.5-2.6a1.7 1.7 0 0 0-1.5-.9c-1.3 0-2.4 1.4-2.4 3s.5 1.6 1.3 1.6a2.8 2.8 0 0 0 2.1-1zm4.6.4a2.7 2.7 0 0 1 .1-.6l1.2-5.7h-1.9l.2-.7h2.8l-1.4 6.5a2.7 2.7 0 0 0-.1.5.8.8 0 0 0 .9.9 2.4 2.4 0 0 0 1.1-.3l.2.7a3.6 3.6 0 0 1-1.6.4 1.4 1.4 0 0 1-1.5-1.7zm5.6.1a5.1 5.1 0 0 1 .1-1l.7-3.6h.9l-.7 3.5a4.2 4.2 0 0 0-.1.8.8.8 0 0 0 .9.9 3.4 3.4 0 0 0 2.4-1.4l.8-3.8h.9l-1.2 5.8h-.8l.2-1.2a3.9 3.9 0 0 1-2.6 1.3 1.3 1.3 0 0 1-1.5-1.3zm7.2-1a3.4 3.4 0 0 1 3.3-3.6 2.1 2.1 0 0 1 2.2 2.2 3.8 3.8 0 0 1-.2 1h-4.5a1.8 1.8 0 0 0 0 .3 1.7 1.7 0 0 0 1.8 1.8 3.2 3.2 0 0 0 2-.8l.3.6a4.1 4.1 0 0 1-2.5.9 2.3 2.3 0 0 1-2.4-2.4zm1.1-1h3.6a1.8 1.8 0 0 0 0-.4 1.3 1.3 0 0 0-1.4-1.5 2.5 2.5 0 0 0-2.2 1.8z"/><rect width="248" height="95" x="-32.9" y="233.4" fill="#fff" stroke="#bcbec0" stroke-miterlimit="10" stroke-width="8" rx="2" ry="2" transform="rotate(90 91.05 280.95)"/><path fill="#58595b" d="M73.4 182.5h-3.2l-.6 2.5h-2.4l3.2-10.4h2.8l3.2 10.4H74zm-.5-1.8l-.2-1-.8-3.4h-.1l-.8 3.4-.2 1zm5.6-3.7h1.9l.2 1.7a3.7 3.7 0 0 1 3.2-1.9 3.3 3.3 0 0 1 1.5.3l-.5 2-1.4-.2a2.9 2.9 0 0 0-2.7 1.9v4.1h-2.2zm9.6 0H90l.2 1.7a3.7 3.7 0 0 1 3.2-1.9 3.3 3.3 0 0 1 1.5.3l-.5 2-1.4-.2a2.9 2.9 0 0 0-2.7 1.9v4.1h-2.2zm14 2.8c-.1-.7-.6-1.2-1.7-1.2a5.5 5.5 0 0 0-2.4.7l-.8-1.5a7.5 7.5 0 0 1 3.7-1.1c2.2 0 3.6 1.2 3.6 3.6v4.5h-1.9l-.2-.9h-.1a4.8 4.8 0 0 1-2.8 1.1 2.4 2.4 0 0 1-2.6-2.4c-.1-1.6 1.4-2.5 5.2-2.8zm-1.9 3.5a3.1 3.1 0 0 0 1.9-.8v-1.3c-2.3.1-3 .6-3 1.3s.4.8 1.1.8zm7.4 2.9a1.6 1.6 0 0 0 1.7-1l.2-.4-3.5-7.8h2.3l1.3 3.4c.3.8.5 1.6.8 2.4h.1l.7-2.4 1.2-3.4h2.2l-3.1 8c-.8 2-1.7 3-3.7 3l-1.2-.2.4-1.8z"/><rect width="73.4" height="40.91" x="54.4" y="199.8" fill="none" stroke="#bcbec0" stroke-dasharray="1 5" stroke-linecap="round" stroke-linejoin="round" stroke-width="3" rx="7.3" ry="7.3"/><path fill="#939598" d="M77.3 222.4h1.9l1.3-6.3h-2l.2-.8h4.9l-.2.8h-2l-1.3 6.3h2l-.2.8h-4.8zm8.5-.8a4.3 4.3 0 0 1 .1-.8l.6-2.8h-1.7v-.7h1.8l.5-1.9h.8l-.4 1.9h2.9l-.2.7h-2.8l-.6 2.8a2.3 2.3 0 0 0-.1.5 1 1 0 0 0 1.1 1.1 3.2 3.2 0 0 0 1.5-.4l.3.7a4 4 0 0 1-2.1.5 1.6 1.6 0 0 1-1.7-1.6zm6-.8a3.4 3.4 0 0 1 3.3-3.6 2.1 2.1 0 0 1 2.2 2.2 3.8 3.8 0 0 1-.2 1h-4.3a1.8 1.8 0 0 0 0 .3 1.7 1.7 0 0 0 1.8 1.8 3.2 3.2 0 0 0 2-.8l.3.6a4.1 4.1 0 0 1-2.5.9 2.3 2.3 0 0 1-2.6-2.4zm1.1-1h3.6a1.8 1.8 0 0 0 0-.4 1.3 1.3 0 0 0-1.4-1.5 2.5 2.5 0 0 0-2.2 1.9zm6.5-2.5h.7v.8a2 2 0 0 1 1.6-.9c.5 0 .9.3.9.9a2.1 2.1 0 0 1 1.6-.9c.6 0 .9.3.9 1a2.9 2.9 0 0 1-.1.7l-.9 4.3h-.9l.8-4.2a2.3 2.3 0 0 0 0-.5c0-.4-.1-.6-.4-.6s-.8.3-1.2 1l-.9 4.2h-.9l.9-4.2a2.3 2.3 0 0 0 0-.5c0-.4-.2-.6-.4-.6s-.8.3-1.2 1l-.8 4.2h-.9z"/><rect width="73.4" height="40.91" x="54.4" y="250.7" fill="none" stroke="#bcbec0" stroke-dasharray="1 5" stroke-linecap="round" stroke-linejoin="round" stroke-width="3" rx="7.3" ry="7.3"/><path fill="#939598" d="M77.3 273.3h1.9l1.3-6.3h-2l.2-.8h4.9l-.2.8h-2l-1.3 6.3h2l-.2.8h-4.8zm8.5-.7a4.3 4.3 0 0 1 .1-.8l.6-2.8h-1.7v-.7h1.8l.5-1.9h.8l-.4 1.9h2.9l-.2.7h-2.8l-.6 2.8a2.3 2.3 0 0 0-.1.5 1 1 0 0 0 1.1 1.1 3.2 3.2 0 0 0 1.5-.4l.3.7a4 4 0 0 1-2.1.5 1.6 1.6 0 0 1-1.7-1.6zm6-.9a3.4 3.4 0 0 1 3.3-3.6 2.1 2.1 0 0 1 2.2 2.2 3.8 3.8 0 0 1-.2 1h-4.3a1.8 1.8 0 0 0 0 .3 1.7 1.7 0 0 0 1.8 1.8 3.2 3.2 0 0 0 2-.8l.3.6a4.1 4.1 0 0 1-2.5.9 2.3 2.3 0 0 1-2.6-2.4zm1.1-1h3.6a1.8 1.8 0 0 0 0-.4 1.3 1.3 0 0 0-1.4-1.5 2.5 2.5 0 0 0-2.2 1.9zm6.5-2.4h.7v.8a2 2 0 0 1 1.6-.9c.5 0 .9.3.9.9a2.1 2.1 0 0 1 1.6-.9c.6 0 .9.3.9 1a2.9 2.9 0 0 1-.1.7l-.9 4.3h-.9l.8-4.2a2.3 2.3 0 0 0 0-.5c0-.4-.1-.6-.4-.6s-.8.3-1.2 1l-.9 4.2h-.9l.9-4.2a2.3 2.3 0 0 0 0-.5c0-.4-.2-.6-.4-.6s-.8.3-1.2 1l-.8 4.2h-.9z"/><rect width="73.4" height="40.91" x="54.4" y="301.6" fill="none" stroke="#bcbec0" stroke-dasharray="1 5" stroke-linecap="round" stroke-linejoin="round" stroke-width="3" rx="7.3" ry="7.3"/><path fill="#939598" d="M77.3 324.2h1.9l1.3-6.3h-2l.2-.8h4.9l-.2.8h-2l-1.3 6.3h2l-.2.8h-4.8zm8.5-.7a4.3 4.3 0 0 1 .1-.8l.6-2.8h-1.7v-.7h1.8l.5-1.9h.8l-.4 1.9h2.9l-.2.7h-2.8l-.6 2.8a2.3 2.3 0 0 0-.1.5 1 1 0 0 0 1.1 1.1 3.2 3.2 0 0 0 1.5-.4l.3.7a4 4 0 0 1-2.1.5 1.6 1.6 0 0 1-1.7-1.6zm6-.9a3.4 3.4 0 0 1 3.3-3.6 2.1 2.1 0 0 1 2.2 2.2 3.8 3.8 0 0 1-.2 1h-4.3a1.8 1.8 0 0 0 0 .3 1.7 1.7 0 0 0 1.8 1.8 3.2 3.2 0 0 0 2-.8l.3.6a4.1 4.1 0 0 1-2.5.9 2.3 2.3 0 0 1-2.6-2.4zm1.1-1h3.6a1.8 1.8 0 0 0 0-.4 1.3 1.3 0 0 0-1.4-1.5 2.5 2.5 0 0 0-2.2 1.9zm6.5-2.4h.7v.8a2 2 0 0 1 1.6-.9c.5 0 .9.3.9.9a2.1 2.1 0 0 1 1.6-.9c.6 0 .9.3.9 1a2.9 2.9 0 0 1-.1.7l-.9 4.3h-.9l.8-4.2a2.3 2.3 0 0 0 0-.5c0-.4-.1-.6-.4-.6s-.8.3-1.2 1l-.9 4.2h-.9l.9-4.2a2.3 2.3 0 0 0 0-.5c0-.4-.2-.6-.4-.6s-.8.3-1.2 1l-.8 4.2h-.9z"/><rect width="73.4" height="40.91" x="54.4" y="352.5" fill="none" stroke="#bcbec0" stroke-dasharray="1 5" stroke-linecap="round" stroke-linejoin="round" stroke-width="3" rx="7.3" ry="7.3"/><path fill="#939598" d="M77.3 375.1h1.9l1.3-6.3h-2l.2-.8h4.9l-.2.8h-2l-1.3 6.3h2l-.2.8h-4.8zm8.5-.7a4.3 4.3 0 0 1 .1-.8l.6-2.8h-1.7v-.7h1.8l.5-1.9h.8l-.4 1.9h2.9l-.2.7h-2.8l-.6 2.8a2.3 2.3 0 0 0-.1.5 1 1 0 0 0 1.1 1.1 3.2 3.2 0 0 0 1.5-.4l.3.7a4 4 0 0 1-2.1.5 1.6 1.6 0 0 1-1.7-1.6zm6-.9a3.4 3.4 0 0 1 3.3-3.6 2.1 2.1 0 0 1 2.2 2.2 3.8 3.8 0 0 1-.2 1h-4.3a1.8 1.8 0 0 0 0 .3 1.7 1.7 0 0 0 1.8 1.8 3.2 3.2 0 0 0 2-.8l.3.6a4.1 4.1 0 0 1-2.5.9 2.3 2.3 0 0 1-2.6-2.4zm1.1-1h3.6a1.8 1.8 0 0 0 0-.4 1.3 1.3 0 0 0-1.4-1.5 2.5 2.5 0 0 0-2.2 1.9zm6.5-2.4h.7v.8a2 2 0 0 1 1.6-.9c.5 0 .9.3.9.9a2.1 2.1 0 0 1 1.6-.9c.6 0 .9.3.9 1a2.9 2.9 0 0 1-.1.7l-.9 4.3h-.9l.8-4.2a2.3 2.3 0 0 0 0-.5c0-.4-.1-.6-.4-.6s-.8.3-1.2 1l-.9 4.2h-.9l.9-4.2a2.3 2.3 0 0 0 0-.5c0-.4-.2-.6-.4-.6s-.8.3-1.2 1l-.8 4.2h-.9z"/><path fill="#231f20" d="M561.7 38v716H254.9V549.4H152.6V447.1h102.3V38h306.8M357.1 651.7h102.3V140.3H357.1v511.4M571.7 28H244.9v409.1H142.6v122.3h102.3V764h326.8V28zM367.1 150.3h82.3v491.4h-82.3V150.3z"/></svg>