<svg xmlns="http://www.w3.org/2000/svg" width="792" height="612" data-name="Layer 1" viewBox="0 0 792 612"><path fill="#58595b" d="M245.7 150.8a4.3 4.3 0 0 1 1.7 3.6 5.5 5.5 0 0 1-.8 2.9 6.7 6.7 0 0 1-2.6 2.4v.2q3.9 1.1 3.9 4.8a5.8 5.8 0 0 1-1.1 3.5 7.3 7.3 0 0 1-3.2 2.4 12.3 12.3 0 0 1-4.7.8 21.7 21.7 0 0 1-3.9-.4l-.3-3.7.3-.3a11.9 11.9 0 0 0 4 .8 5.4 5.4 0 0 0 3.1-.8 2.6 2.6 0 0 0 1.1-2.2q0-2.4-3.3-2.6h-2.5l-.3-.3v-3.3h1.6a4 4 0 0 0 2.4-.9 2.6 2.6 0 0 0 1.1-2.1 1.9 1.9 0 0 0-.6-1.5 2.7 2.7 0 0 0-1.8-.5 7.6 7.6 0 0 0-4.2 1.7h-.5l-.7-3.5a11.3 11.3 0 0 1 6.5-2.1 7.1 7.1 0 0 1 4.8 1.1zm9.6 12.9a2.5 2.5 0 0 1 .6 1.8 2.7 2.7 0 0 1-.7 1.9 2.5 2.5 0 0 1-1.9.7 2.4 2.4 0 0 1-1.8-.6 2.5 2.5 0 0 1-.6-1.8 2.6 2.6 0 0 1 .7-1.9 2.6 2.6 0 0 1 1.9-.7 2.3 2.3 0 0 1 1.8.6zm25.2-17.9l-.9 4.1-.4.2a8.5 8.5 0 0 0-5-1.6q-5.7 0-5.7 7.5t5.9 8.1a9.8 9.8 0 0 0 5.3-1.5l.4.3-.4 4.1a13.6 13.6 0 0 1-5.8 1.3q-5.2 0-7.9-3t-2.7-8.7q0-5.8 2.9-8.9t8.2-3.2a13 13 0 0 1 6.1 1.3zm14.6 7.2a9 9 0 0 1 1.9 6.2q0 4.4-2.1 6.7a7.7 7.7 0 0 1-6 2.3 7.2 7.2 0 0 1-5.6-2.2 9 9 0 0 1-1.9-6.2q0-4.4 2.1-6.7a7.7 7.7 0 0 1 6-2.3 7.2 7.2 0 0 1 5.6 2.2zm-8.4 2.2a6.8 6.8 0 0 0-.8 3.7 10.2 10.2 0 0 0 .8 4.7 2.7 2.7 0 0 0 2.6 1.4 2.8 2.8 0 0 0 2.5-1.1 6.8 6.8 0 0 0 .8-3.7 10 10 0 0 0-.8-4.7 2.7 2.7 0 0 0-2.6-1.4 2.8 2.8 0 0 0-2.5 1.1zm18.6 12.7h-4.8l.3-6.9-.2-18 4.8-.4-.3 17.9zm9.5 0H310l.3-6.9-.2-18 4.8-.4-.3 17.9zm7.8-7.7q.3 4.5 4.5 4.5a10.4 10.4 0 0 0 4.8-1.3l.4.3-.6 3.5a12.7 12.7 0 0 1-5 1.1 8.2 8.2 0 0 1-6.2-2.3 8.8 8.8 0 0 1-2.2-6.3 8.9 8.9 0 0 1 2.2-6.4 8 8 0 0 1 6-2.3 6.4 6.4 0 0 1 4.8 1.7 6.7 6.7 0 0 1 1.7 4.8 14 14 0 0 1-.1 2l-.7.7zm3.7-6.2a3.1 3.1 0 0 0-2.3.9 4.9 4.9 0 0 0-1.2 2.6l6-.2v-.4q0-2.9-2.5-2.9zm21.2-2.3l-.8 3.8-.4.2a7 7 0 0 0-3.3-1 3 3 0 0 0-2.6 1.2 5.5 5.5 0 0 0-.9 3.4 6.5 6.5 0 0 0 1 3.9 3.2 3.2 0 0 0 2.8 1.3 8.8 8.8 0 0 0 3.6-.9l.4.3-.5 3.7a14.6 14.6 0 0 1-4.4.7 6.8 6.8 0 0 1-5.4-2.3 9.3 9.3 0 0 1-1.9-6.3 9.4 9.4 0 0 1 2.1-6.5 7.5 7.5 0 0 1 5.9-2.4 10.3 10.3 0 0 1 4.4.9zm11.7 12.1l.4.4-.5 2.8a10.9 10.9 0 0 1-3.7 1.2q-4.9-.5-4.9-4.8l.2-3v-6.2h-2.2l-.2-.3.3-2.6h2.1v-2.8l4.4-1.4.3.3v3.9h4.3v.3l-.2 2.6h-4.3l-.2 8.1a2.5 2.5 0 0 0 .4 1.6 1.8 1.8 0 0 0 1.4.5 5.5 5.5 0 0 0 2.4-.6zm17.6 0l.4.4-.5 2.8a10.9 10.9 0 0 1-3.7 1.2q-4.9-.5-4.9-4.8l.2-3v-6.2h-2.2l-.2-.3.3-2.6h2.1v-2.8l4.4-1.4.3.3v3.9h4.3v.3l-.2 2.6h-4.3l-.2 8.1a2.5 2.5 0 0 0 .4 1.6 1.8 1.8 0 0 0 1.4.5 5.5 5.5 0 0 0 2.4-.6zm12.9-8.3a2.1 2.1 0 0 0-1.7-.7 5.4 5.4 0 0 0-3.4 1.5v4.2l.3 7.4H380l.3-6.9-.2-18 4.8-.4-.2 10.9h.2a12.2 12.2 0 0 1 4.3-2.6 6.2 6.2 0 0 1 4.2 1.2 4.3 4.3 0 0 1 1.4 3.6v4.8l.2 7.3h-5l.3-10.4a2.8 2.8 0 0 0-.6-1.9zm12.5 4.7q.3 4.5 4.5 4.5a10.4 10.4 0 0 0 4.8-1.3l.4.3-.6 3.5a12.7 12.7 0 0 1-5 1.1 8.2 8.2 0 0 1-6.3-2.3 8.8 8.8 0 0 1-2.2-6.3 8.9 8.9 0 0 1 2.2-6.4 8 8 0 0 1 6-2.3 6.4 6.4 0 0 1 4.8 1.7 6.7 6.7 0 0 1 1.7 4.8 14 14 0 0 1-.1 2l-.7.7zm3.7-6.2a3.1 3.1 0 0 0-2.3.9 4.9 4.9 0 0 0-1.2 2.6l6-.2v-.4q0-2.9-2.5-2.9zm26.7-2.3l-.8 3.8-.4.2a7 7 0 0 0-3.3-1 3 3 0 0 0-2.6 1.2 5.5 5.5 0 0 0-.9 3.4 6.5 6.5 0 0 0 1 3.9 3.2 3.2 0 0 0 2.8 1.3 8.8 8.8 0 0 0 3.6-.9l.4.3-.5 3.7a14.6 14.6 0 0 1-4.4.7 6.8 6.8 0 0 1-5.4-2.2 9.3 9.3 0 0 1-1.9-6.3 9.4 9.4 0 0 1 2.1-6.5 7.5 7.5 0 0 1 5.9-2.4 10.3 10.3 0 0 1 4.4.8zm7.3 16.2h-4.8l.3-6.9-.2-18 4.8-.4-.3 17.9zm7.8-7.7q.3 4.5 4.5 4.5a10.4 10.4 0 0 0 4.8-1.3l.4.3-.6 3.5a12.7 12.7 0 0 1-5 1.1 8.2 8.2 0 0 1-6.2-2.3 8.8 8.8 0 0 1-2.2-6.3 8.9 8.9 0 0 1 2.2-6.4 8 8 0 0 1 6-2.3 6.4 6.4 0 0 1 4.8 1.7 6.7 6.7 0 0 1 1.7 4.8 14 14 0 0 1-.1 2l-.7.7zm3.7-6.2a3.1 3.1 0 0 0-2.3.9 4.9 4.9 0 0 0-1.2 2.6l6-.2v-.4q.1-2.9-2.5-2.9zm21-1.9a4.2 4.2 0 0 1 1.6 3.5q0 .6-.2 4.1t-.2 3.9a1.4 1.4 0 0 0 .2.8.8.8 0 0 0 .6.2h.9l.4.3-.4 2.5a5.7 5.7 0 0 1-2.6.9 2.9 2.9 0 0 1-2.8-2.6h-.3a10.5 10.5 0 0 1-3.7 2.7 6 6 0 0 1-4.1-1.4 4.7 4.7 0 0 1-1.5-3.6q0-3.5 3.7-4.2l5.5-1v-1.5a2.1 2.1 0 0 0-2.3-2.3 9.5 9.5 0 0 0-5.1 2.1l-.4-.2-.5-3.2a12.5 12.5 0 0 1 6.8-2 6.8 6.8 0 0 1 4.4 1zm-7.8 10.6a2 2 0 0 0 .5 1.5 1.9 1.9 0 0 0 1.4.5 4.3 4.3 0 0 0 3-1.7v-2.7l-3.8.8a1.4 1.4 0 0 0-1.1 1.6zm24.2-11.5v4.4l-.5.2-1.3-.3q-2.1 0-3.8 2.7v2.3l.3 7.4h-4.8l.3-6.9-.2-9.5 4.6-.4v3.3h.3q1.8-3.2 4.4-3.2zM510 154h-.1a5.7 5.7 0 0 1-1.4 6.7 8.1 8.1 0 0 1-5.3 1.6l-2.1-.2a1.5 1.5 0 0 0-.5.9q0 .6.9.9l2.7.5 3.5.6a5.8 5.8 0 0 1 2.4 1.3 3.2 3.2 0 0 1 1 2.6 4.8 4.8 0 0 1-1.1 3 7 7 0 0 1-2.9 2.1 11.3 11.3 0 0 1-4.2.8 8.2 8.2 0 0 1-5-1.3 4.2 4.2 0 0 1-1.8-3.5 10.2 10.2 0 0 1 3-2.7v-.2a3.4 3.4 0 0 1-2.6-3.3 11.5 11.5 0 0 1 2.4-2.2v-.2a4.9 4.9 0 0 1-2.6-4.6 5.4 5.4 0 0 1 1.9-4.4 8.1 8.1 0 0 1 5.3-1.6 9.3 9.3 0 0 1 3.5.6 32.9 32.9 0 0 0 5.3-1.4l.4.3v3zm-3.9 14.6a17.9 17.9 0 0 0-3.2-.6h-1.1q-1.8 1-1.8 2a1.7 1.7 0 0 0 .9 1.5 4.6 4.6 0 0 0 2.5.6 5.4 5.4 0 0 0 2.7-.6 1.8 1.8 0 0 0 1-1.6 1.3 1.3 0 0 0-1-1.3zm.2-12q0-2.7-2.8-2.7t-3 2.8q0 2.9 2.8 2.9t3-3zm11.4 3.6q.3 4.5 4.5 4.5a10.4 10.4 0 0 0 4.8-1.3l.4.3-.6 3.5a12.7 12.7 0 0 1-5 1.1 8.2 8.2 0 0 1-6.2-2.3 8.8 8.8 0 0 1-2.2-6.3 8.9 8.9 0 0 1 2.2-6.4 8 8 0 0 1 6-2.3 6.4 6.4 0 0 1 4.8 1.7 6.7 6.7 0 0 1 1.7 4.8 14 14 0 0 1-.1 2l-.7.7zm3.7-6.2a3.1 3.1 0 0 0-2.3.9 4.9 4.9 0 0 0-1.2 2.6l6-.2v-.4q.1-2.9-2.5-2.9zm28 .8a5.5 5.5 0 0 0-3.4 1.5v4.3l.2 7.3h-4.8l.3-10.4q0-2.7-2.3-2.7a5.6 5.6 0 0 0-3.5 1.5v4.2l.2 7.4h-4.8l.3-6.9-.2-9.5 4.5-.4v2.4h.2a12.3 12.3 0 0 1 4.4-2.6q4.1 0 5.2 2.7h.2a12.5 12.5 0 0 1 4.7-2.7 6.1 6.1 0 0 1 4.2 1.2 4.4 4.4 0 0 1 1.4 3.6v4.8l.2 7.3h-4.8l.3-10.4q-.1-2.6-2.5-2.6zM270.2 199a13 13 0 0 1 .4 3.2 9.6 9.6 0 0 1-.9 4.1l4.7 4.2v.3a10.4 10.4 0 0 1-2.6 2.1h-.3l-4.1-3.7a11.3 11.3 0 0 1-7.1 2.1 10.4 10.4 0 0 1-6.3-1.7 5.6 5.6 0 0 1-2.4-4.8q0-4 4.1-5.9v-.3a7.5 7.5 0 0 1-2.4-5.2 5.2 5.2 0 0 1 2-4.3 8.8 8.8 0 0 1 5.6-1.6 15.7 15.7 0 0 1 5.9 1.1l-1.1 3.5h-.6a8.6 8.6 0 0 0-4.3-1.3 3.6 3.6 0 0 0-2.4.7 2.6 2.6 0 0 0-.8 2.1 3.3 3.3 0 0 0 .4 1.7 7.1 7.1 0 0 0 1.6 1.7l7.6 6.8a7.3 7.3 0 0 0 .4-2.4 7.4 7.4 0 0 0-.6-3h-2.2l-.2-.3.3-3.1h10.4l.3.3-.3 3h-4.9zm-5.3 8l-7.1-6.4a4.2 4.2 0 0 0-2 3.6 3.5 3.5 0 0 0 1.3 3 5.9 5.9 0 0 0 3.7 1 7.1 7.1 0 0 0 4.1-1.2zm28.5-12.6v4.4l-.5.2-1.3-.3q-2.1 0-3.8 2.7v2.3l.3 7.4h-4.8l.3-6.9-.2-9.5 4.6-.4v3.3h.3q1.8-3.2 4.4-3.2zm5.4 9q.3 4.5 4.5 4.5a10.4 10.4 0 0 0 4.8-1.3l.4.3-.6 3.5a12.7 12.7 0 0 1-5 1.1 8.2 8.2 0 0 1-6.2-2.3 8.8 8.8 0 0 1-2.2-6.3 8.9 8.9 0 0 1 2.2-6.4 8 8 0 0 1 6-2.3 6.4 6.4 0 0 1 4.8 1.7 6.7 6.7 0 0 1 1.7 4.8 14 14 0 0 1-.1 2l-.7.7zm3.7-6.2a3.1 3.1 0 0 0-2.3.9 4.9 4.9 0 0 0-1.2 2.6l6-.2v-.4q0-2.9-2.5-2.9zm19.2 9.8l.4.4-.5 2.8a10.9 10.9 0 0 1-3.7 1.2q-4.9-.5-4.9-4.8l.2-3v-6.2H311l-.2-.3.3-2.6h2.1v-2.8l4.4-1.4.3.3v3.9h4.1v.3l-.2 2.6h-4.3l-.2 8.1a2.5 2.5 0 0 0 .4 1.6 1.8 1.8 0 0 0 1.4.5 5.5 5.5 0 0 0 2.6-.6zm17 .6a.8.8 0 0 0 .6.2h.9l.4.3-.4 2.5a5.7 5.7 0 0 1-2.6.9 3.1 3.1 0 0 1-2.9-2.7h-.4a10.5 10.5 0 0 1-4.2 2.6 6.2 6.2 0 0 1-4.1-1.2 4.5 4.5 0 0 1-1.4-3.6v-4.2l-.2-7.6 4.6-.4V205q0 2.6 2.2 2.6a4.9 4.9 0 0 0 3.1-1.4v-11.5l4.5-.4-.3 12.5a1.4 1.4 0 0 0 .2.8zm14.8-13.2v4.4l-.5.2-1.3-.3q-2.1 0-3.8 2.7v2.3l.3 7.4h-4.8l.3-6.9-.2-9.5 4.6-.4v3.3h.3q1.8-3.2 4.4-3.2zm12.7 6.3q0-2.7-2.3-2.7a5.5 5.5 0 0 0-3.5 1.5v4.2l.2 7.4h-4.8l.3-6.9-.2-9.5 4.6-.4v2.4h.2a12.3 12.3 0 0 1 4.4-2.6 6.1 6.1 0 0 1 4.2 1.2 4.4 4.4 0 0 1 1.4 3.6v4.8l.2 7.3h-4.8zm23.3 6.3l.4.4-.5 2.8a10.9 10.9 0 0 1-3.7 1.2q-4.9-.5-4.9-4.8l.2-3v-6.2h-2.2l-.2-.3.3-2.6h2.1v-2.8l4.4-1.4.3.3v3.9h4.3v.3l-.2 2.6h-4.3l-.2 8.1a2.5 2.5 0 0 0 .4 1.6 1.8 1.8 0 0 0 1.4.5 5.5 5.5 0 0 0 2.4-.6zm15.2-10.8a9 9 0 0 1 1.9 6.2q0 4.4-2.1 6.7a7.7 7.7 0 0 1-6 2.3 7.2 7.2 0 0 1-5.6-2.2 9 9 0 0 1-1.9-6.2q0-4.4 2.1-6.7a7.7 7.7 0 0 1 6-2.3 7.2 7.2 0 0 1 5.6 2.2zm-8.4 2.2a6.8 6.8 0 0 0-.8 3.7 10.2 10.2 0 0 0 .8 4.7 2.7 2.7 0 0 0 2.6 1.4 2.8 2.8 0 0 0 2.5-1.1 6.8 6.8 0 0 0 .8-3.7 10 10 0 0 0-.8-4.7 2.7 2.7 0 0 0-2.6-1.4 2.8 2.8 0 0 0-2.5 1.1zm28.2 8.6l.4.4-.5 2.8a10.9 10.9 0 0 1-3.7 1.2q-4.9-.5-4.9-4.8l.2-3v-6.2h-2.2l-.2-.3.3-2.6h2.1v-2.8l4.4-1.4.3.3v3.9h4.3v.3l-.2 2.6h-4.3l-.2 8.1a2.5 2.5 0 0 0 .4 1.6 1.8 1.8 0 0 0 1.4.5 5.5 5.5 0 0 0 2.4-.6zm12.9-8.3a2.1 2.1 0 0 0-1.7-.7 5.4 5.4 0 0 0-3.4 1.5v4.2l.3 7.4h-4.8l.3-6.9-.2-18 4.8-.4-.2 10.9h.2a12.2 12.2 0 0 1 4.3-2.6 6.2 6.2 0 0 1 4.2 1.2 4.3 4.3 0 0 1 1.4 3.6v4.8l.2 7.3H438l.3-10.4a2.8 2.8 0 0 0-.9-1.9zm12.5 4.7q.3 4.5 4.5 4.5a10.4 10.4 0 0 0 4.8-1.3l.4.3-.6 3.5a12.7 12.7 0 0 1-5 1.1 8.2 8.2 0 0 1-6.2-2.3 8.8 8.8 0 0 1-2.2-6.3 8.9 8.9 0 0 1 2.2-6.4 8 8 0 0 1 6-2.3 6.4 6.4 0 0 1 4.8 1.7 6.7 6.7 0 0 1 1.7 4.8 14 14 0 0 1-.1 2l-.7.7zm3.7-6.2a3.1 3.1 0 0 0-2.3.9 4.9 4.9 0 0 0-1.2 2.6l6-.2v-.4q0-2.9-2.5-2.9zm25.6-2.3l-.6 3.5-.6.2a7.4 7.4 0 0 0-3.9-1.4 2 2 0 0 0-1.4.5 1.5 1.5 0 0 0 .2 2.3l2.1 1 2.4 1.1a5 5 0 0 1 1.6 1.5 4 4 0 0 1 .7 2.4 5.2 5.2 0 0 1-.7 2.7 5.4 5.4 0 0 1-2.2 2 8.1 8.1 0 0 1-3.7.8 14.8 14.8 0 0 1-5.4-1.1l.5-3.7.5-.3a9.3 9.3 0 0 0 2.5 1.5 6.5 6.5 0 0 0 2.4.6 2.2 2.2 0 0 0 1.5-.5 1.5 1.5 0 0 0 .5-1.2 1.4 1.4 0 0 0-.7-1.2l-2.1-1-2.4-1.2a4.7 4.7 0 0 1-1.6-1.5 4.2 4.2 0 0 1-.7-2.4 4.8 4.8 0 0 1 1.8-3.8 7.2 7.2 0 0 1 4.8-1.5 12.8 12.8 0 0 1 4.5.7zM492 207l.4.4-.5 2.8a10.9 10.9 0 0 1-3.7 1.2q-4.9-.5-4.9-4.8l.2-3v-6.2h-2.2l-.2-.3.3-2.6h2.1v-2.8l4.4-1.4.3.3v3.9h4.3v.3l-.2 2.6H488l-.2 8.1a2.5 2.5 0 0 0 .4 1.6 1.9 1.9 0 0 0 1.4.5 5.5 5.5 0 0 0 2.4-.6zm13.9-11.7a4.2 4.2 0 0 1 1.6 3.5q0 .6-.2 4.1t-.2 3.9a1.4 1.4 0 0 0 .2.8.8.8 0 0 0 .6.2h.9l.4.3-.4 2.5a5.7 5.7 0 0 1-2.6.9 2.9 2.9 0 0 1-2.8-2.6h-.3a10.5 10.5 0 0 1-3.7 2.7 6 6 0 0 1-4.1-1.4 4.6 4.6 0 0 1-1.5-3.6q0-3.5 3.7-4.2l5.5-1v-1.5a2.1 2.1 0 0 0-2.3-2.3 9.5 9.5 0 0 0-5.1 2.1l-.4-.2-.5-3.2a12.5 12.5 0 0 1 6.8-2 6.8 6.8 0 0 1 4.4 1zm-7.8 10.6a2 2 0 0 0 .5 1.5 1.9 1.9 0 0 0 1.4.5 4.3 4.3 0 0 0 3-1.7v-2.7l-3.8.8a1.4 1.4 0 0 0-1.1 1.6zm24.3-11.5v4.4l-.5.2-1.3-.3q-2.1 0-3.8 2.7v2.3l.3 7.4h-4.8l.3-6.9-.2-9.5 4.6-.4v3.3h.3q1.8-3.2 4.4-3.2zm11.7 12.6l.4.4-.5 2.8a10.9 10.9 0 0 1-3.7 1.2q-4.9-.5-4.9-4.8l.2-3v-6.2h-2.2l-.2-.3.3-2.6h2.1v-2.8l4.4-1.4.3.3v3.9h4.3v.3l-.2 2.6h-4.3l-.2 8.1a2.5 2.5 0 0 0 .4 1.6 1.8 1.8 0 0 0 1.4.5 5.5 5.5 0 0 0 2.4-.6zm6.2-.1a2.5 2.5 0 0 1 .6 1.8 2.7 2.7 0 0 1-.7 1.9 2.5 2.5 0 0 1-1.9.7 2.4 2.4 0 0 1-1.8-.6 2.5 2.5 0 0 1-.6-1.8 2.6 2.6 0 0 1 .7-1.9 2.6 2.6 0 0 1 1.9-.7 2.3 2.3 0 0 1 1.8.6zM243.6 398.4l3.4-3.4-3.4-3.5 1.8-1.8 3.4 3.5 3.4-3.5 1.8 1.8-3.4 3.5 3.4 3.4-1.8 1.8-3.4-3.5-3.4 3.5zm25.3 1.1v2.9H258v-2.9h3.9v-8.8h-3.1v-2.2a11.8 11.8 0 0 0 4.1-1.4h2.6v12.4z"/><rect width="115" height="115" x="198.5" y="249" fill="#b4d44f" rx="12" ry="12"/><rect width="95" height="95" x="208.5" y="259" fill="none" stroke="#849f3a" stroke-miterlimit="10" stroke-width="8" rx="2" ry="2" transform="rotate(90 256 306.5)"/><path fill="#657d2b" d="M243.6 298.1a4.4 4.4 0 0 0 2.8 1.2c1.3 0 2-.5 2-1.3s-.7-1.1-1.8-1.5l-1.4-.6a3 3 0 0 1-2.2-2.9c0-1.7 1.5-2.9 3.6-2.9a4.9 4.9 0 0 1 3.4 1.3l-1 1.2a3.7 3.7 0 0 0-2.4-.9c-1.1 0-1.8.5-1.8 1.2s.8 1.1 1.8 1.5l1.4.6c1.3.5 2.3 1.3 2.3 2.8s-1.4 3.1-3.9 3.1a5.7 5.7 0 0 1-3.9-1.5zm12.6-5.5a3.4 3.4 0 0 1 3.6 3.7 5.3 5.3 0 0 1-.1.9H254a2.5 2.5 0 0 0 2.6 2.2 4.4 4.4 0 0 0 2.2-.6l.6 1.2a5.9 5.9 0 0 1-3.1.9 4.1 4.1 0 1 1-.3-8.2zm2 3.4a1.8 1.8 0 0 0-1.9-2 2.2 2.2 0 0 0-2.2 2zm5.6-1.7h-2.1v-1.4h2.2l.2-2.1h1.5v2.1h3.6v1.5h-3.6v3.2c0 1.3.5 1.9 1.8 1.9a4.9 4.9 0 0 0 1.7-.3l.3 1.3a7.8 7.8 0 0 1-2.5.4c-2.4 0-3.2-1.3-3.2-3.4zM218 309.4h2l1.5 5.3.9 3.4h.1c.4-1.2.6-2.2.9-3.4l1.5-5.3h1.9l-3.2 10.5h-2.2zm15.8 5.4c-.1-.9-.6-1.5-1.9-1.5a5.6 5.6 0 0 0-2.6.8l-.7-1.2a7.3 7.3 0 0 1 3.6-1.1 3.1 3.1 0 0 1 3.4 3.4v4.7h-1.5v-1a5.1 5.1 0 0 1-2.9 1.2 2.4 2.4 0 0 1-2.6-2.3c-.3-1.8 1.3-2.7 5.2-3zm-2.2 3.8a3.7 3.7 0 0 0 2.2-1V316c-2.8.2-3.6.8-3.6 1.6s.5 1 1.3 1zm7.3-6.6h1.5l.2 1.8a3.9 3.9 0 0 1 3.3-2 3.2 3.2 0 0 1 1.5.3l-.4 1.6-1.4-.2a3.3 3.3 0 0 0-2.9 2.1v4.3h-1.9zm8.8 0h5.3v7.9h-1.8v-6.4h-3.4zm2.9-2.6a1.3 1.3 0 0 1 2.6 0 1.3 1.3 0 0 1-2.6 0zm12 5.4c-.1-.9-.6-1.5-1.9-1.5a5.6 5.6 0 0 0-2.6.8l-.7-1.2a7.3 7.3 0 0 1 3.6-1.1 3.1 3.1 0 0 1 3.4 3.4v4.7h-1.5v-1a5.1 5.1 0 0 1-2.9 1.2 2.4 2.4 0 0 1-2.6-2.3c-.3-1.8 1.3-2.7 5.2-3zm-2.2 3.8a3.7 3.7 0 0 0 2.2-1V316c-2.8.2-3.6.8-3.6 1.6s.5 1 1.3 1zm6.5-10h1.9v4.3a3.7 3.7 0 0 1 2.4-1c2 0 3.2 1.6 3.2 4s-1.7 4.3-3.5 4.3a3.5 3.5 0 0 1-2.3-1.1l-.2.9h-1.5zm3.6 10c1.1 0 2-.9 2-2.7s-.5-2.5-1.8-2.5a2.6 2.6 0 0 0-1.9.9v3.5a2.6 2.6 0 0 0 1.7.7zm5.8-10h4.3v8.5a1.3 1.3 0 0 0 1.4 1.5l1.3-.3.4 1.4a6.1 6.1 0 0 1-2.2.4c-1.8 0-2.8-1.1-2.8-3.1v-7h-2.5zm13.5 3.2a3.4 3.4 0 0 1 3.6 3.7 5.3 5.3 0 0 1-.1.9h-5.7a2.5 2.5 0 0 0 2.6 2.2 4.4 4.4 0 0 0 2.2-.6l.6 1.2a5.9 5.9 0 0 1-3.1.9 4.1 4.1 0 1 1-.3-8.2zm2 3.4a1.8 1.8 0 0 0-1.9-2 2.2 2.2 0 0 0-2.2 2z"/><path fill="#58595b" d="M383.6 398.4l3.4-3.4-3.4-3.5 1.8-1.8 3.4 3.5 3.4-3.5 1.8 1.8-3.4 3.5 3.4 3.4-1.8 1.8-3.4-3.5-3.4 3.5zm15-.1a5.8 5.8 0 0 0 3.7 1.5c1.7 0 2.9-.6 2.9-1.8s-1-2.2-4.6-2.2v-2.5c3 0 4.1-.8 4.1-2s-.9-1.7-2.3-1.7a5.1 5.1 0 0 0-3.2 1.3l-1.8-2.2a8.2 8.2 0 0 1 5.2-1.9c3.3 0 5.6 1.5 5.6 4.2s-1.1 2.7-2.9 3.4c1.9.5 3.4 1.8 3.4 3.7s-2.8 4.4-6 4.4a7.4 7.4 0 0 1-5.7-2.2z"/><rect width="115" height="115" x="338.5" y="249" fill="#fbef4b" rx="12" ry="12"/><rect width="95" height="95" x="348.5" y="259" fill="none" stroke="#b4ae39" stroke-miterlimit="10" stroke-width="8" rx="2" ry="2" transform="rotate(90 396 306.5)"/><path fill="#807d24" d="M378 290.2h1.9l1.3 4.1.4 1.6.4-1.6 1.2-4.1h1.9v10.5h-1.5V296c0-1 .1-3 .2-4l-.8 2.6-1.1 3.2h-.9l-1.1-3.2-.7-2.6c.1 1 .2 3 .2 4v4.6H378zm13.2 2.4a4.1 4.1 0 1 1-4 4.1 3.9 3.9 0 0 1 4-4.1zm0 6.7c1.3 0 2-1 2-2.6s-.8-2.6-2-2.6-2 1-2 2.6.7 2.7 2 2.7zm5.5-6.5h1.9l1.5 4.1.8 2.4h.1l.8-2.4 1.5-4.1h1.8l-3.1 7.9h-2.1zm13.9-.2a3.4 3.4 0 0 1 3.7 3.7 5.4 5.4 0 0 1-.1.9h-5.7a2.5 2.5 0 0 0 2.6 2.2 4.4 4.4 0 0 0 2.2-.6l.6 1.2a5.9 5.9 0 0 1-3.1.9 4.1 4.1 0 1 1-.3-8.2zm2 3.4a1.8 1.8 0 0 0-1.9-2 2.2 2.2 0 0 0-2.2 2zm-41.3 14.2a4.5 4.5 0 0 0-1.7-.3 1.5 1.5 0 0 0-1.7 1.7v.5h3v1.5h-3v6.4H366v-6.4h-2.2v-1.4h2.2v-.4a3 3 0 0 1 3.3-3.2 6.5 6.5 0 0 1 2.3.4zm5.5 1.6a4.1 4.1 0 1 1-4 4.1 3.9 3.9 0 0 1 4-4.1zm0 6.7c1.3 0 2-1 2-2.6s-.8-2.6-2-2.6-2 1-2 2.6.7 2.7 2 2.7zm6.9-6.5h1.5l.2 1.8a3.9 3.9 0 0 1 3.3-2 3.2 3.2 0 0 1 1.5.3l-.4 1.6-1.4-.2a3.3 3.3 0 0 0-2.9 2.1v4.3h-1.9zm7.6 0h1.8l.7 4.1c.1.8.2 1.5.3 2.3h.1c.1-.8.2-1.5.4-2.3l.7-3.3h1.4l.8 3.3c.2.8.3 1.5.4 2.3h.1c.1-.8.2-1.5.3-2.3l.7-4.1h1.7l-1.5 7.9H397l-.7-3.3-.4-2.3h.1c-.1.6-.2 1.3-.4 2.3l-.7 3.3h-2.1zm16.1 2.8c-.1-.9-.6-1.5-1.9-1.5a5.6 5.6 0 0 0-2.6.8l-.7-1.2a7.3 7.3 0 0 1 3.6-1.1 3.1 3.1 0 0 1 3.4 3.4v4.7h-1.5v-1a5.1 5.1 0 0 1-2.9 1.2 2.4 2.4 0 0 1-2.6-2.3c-.3-1.8 1.3-2.7 5.2-3zm-2.2 3.8a3.7 3.7 0 0 0 2.2-1V316c-2.8.2-3.6.8-3.6 1.6s.5 1 1.3 1zm7.3-6.6h1.5l.2 1.8a3.9 3.9 0 0 1 3.3-2 3.2 3.2 0 0 1 1.5.3l-.4 1.6-1.4-.2a3.3 3.3 0 0 0-2.9 2.1v4.3h-1.9zm11.8-.2a3.1 3.1 0 0 1 2.2.9v-4.2h1.9v11.3h-1.5v-.8a3.5 3.5 0 0 1-2.4 1.1c-2 0-3.4-1.5-3.4-4.1s1.4-4.2 3.2-4.2zm.3 6.7a2.3 2.3 0 0 0 1.8-.9v-3.5a2.3 2.3 0 0 0-1.7-.7c-1.1 0-2 .9-2 2.6s.8 2.5 2 2.5z"/><path fill="#58595b" d="M523.6 398.4l3.4-3.4-3.4-3.5 1.8-1.8 3.4 3.5 3.4-3.5 1.8 1.8-3.4 3.5 3.4 3.4-1.8 1.8-3.4-3.5-3.4 3.5zm25.3 1.1v2.9H538v-2.9h3.9v-8.8h-3.1v-2.2a11.8 11.8 0 0 0 4.1-1.4h2.6v12.4z"/><rect width="115" height="115" x="478.5" y="249" fill="#fbef4b" rx="12" ry="12"/><rect width="95" height="95" x="488.5" y="259" fill="none" stroke="#b4ae39" stroke-miterlimit="10" stroke-width="8" rx="2" ry="2" transform="rotate(90 536 306.5)"/><path fill="#807d24" d="M520.7 301.4h-3.3v-1.6h8.5v1.6h-3.3v8.9h-1.9zm13.9 8.9h-1.5V309h-.1a3.6 3.6 0 0 1-2.8 1.4c-1.8 0-2.6-1.2-2.6-3.2v-4.9h1.8v4.7c0 1.3.4 1.8 1.5 1.8a2.4 2.4 0 0 0 2-1.2v-5.3h1.8zm3.5-7.9h1.5l.2 1.8a3.9 3.9 0 0 1 3.3-2 3.2 3.2 0 0 1 1.5.3l-.4 1.6-1.4-.2a3.3 3.3 0 0 0-2.9 2.1v4.3H538zm8.8 0h1.5v1.2h.1a3.9 3.9 0 0 1 2.8-1.4c1.8 0 2.6 1.2 2.6 3.2v4.9H552v-4.6c0-1.3-.4-1.8-1.5-1.8a2.7 2.7 0 0 0-2 1.1v5.4h-1.9z"/><path fill="#58595b" d="M383.6 576.9l3.4-3.4-3.4-3.5 1.8-1.8 3.4 3.5 3.4-3.5 1.8 1.8-3.4 3.5 3.4 3.4-1.8 1.8-3.4-3.5-3.4 3.5zm13.8 2c4.4-3.7 7.3-6.3 7.3-8.4a2.2 2.2 0 0 0-2.5-2.3 4.6 4.6 0 0 0-3.1 1.6l-1.9-1.9a7 7 0 0 1 5.4-2.4c3.2 0 5.4 1.9 5.4 4.8s-2.6 5.3-5.6 7.9l2.8-.2h3.6v3h-11.4z"/><rect width="115" height="115" x="338.5" y="427.5" fill="#f9a11b" rx="12" ry="12"/><rect width="95" height="95" x="348.5" y="437.5" fill="none" stroke="#b97810" stroke-miterlimit="10" stroke-width="8" rx="2" ry="2" transform="rotate(90 396 485)"/><path fill="#905d00" d="M378.7 478.3h1.8v8.9h4.9v1.6h-6.8zm12.5 2.4a4.1 4.1 0 1 1-4 4.1 3.9 3.9 0 0 1 4-4.1zm0 6.7c1.3 0 2-1 2-2.6s-.8-2.6-2-2.6-2 1-2 2.6.7 2.6 2 2.6zm9.6-6.7a4.1 4.1 0 1 1-4 4.1 3.9 3.9 0 0 1 4-4.1zm0 6.7c1.3 0 2-1 2-2.6s-.8-2.6-2-2.6-2 1-2 2.6.7 2.6 2 2.6zm8 2v2.5h-1.9v-11h1.5v.9a3.9 3.9 0 0 1 2.5-1.1c2 0 3.2 1.6 3.2 4s-1.7 4.2-3.5 4.2a3.3 3.3 0 0 1-2.2-.9zm1.7-2c1.1 0 2-.9 2-2.7s-.5-2.5-1.8-2.5a2.6 2.6 0 0 0-1.9.9v3.5a2.6 2.6 0 0 0 1.7.8z"/><path fill="none" stroke="#bcbec0" stroke-linecap="round" stroke-miterlimit="10" stroke-width="11" d="M438.6 72.3l-18.3-20.6m-57.2 48.6l-26.3-30.6 26.3-30.5h65.8l26.3 30.5-26.3 30.6h-65.8z"/></svg>