<svg xmlns="http://www.w3.org/2000/svg" width="792" height="612" data-name="Layer 1" viewBox="0 0 792 612"><path fill="#58595b" d="M206.7 160.4l.3 7.5h-4.9l.2-7v-6l-4.1 1.1-.4-.3v-3.9l8.4-2.4.7.5zm9.8 3.3a2.5 2.5 0 0 1 .6 1.8 2.7 2.7 0 0 1-.7 1.9 2.5 2.5 0 0 1-1.9.7 2.4 2.4 0 0 1-1.8-.6 2.5 2.5 0 0 1-.6-1.8 2.6 2.6 0 0 1 .7-1.9 2.6 2.6 0 0 1 1.9-.7 2.3 2.3 0 0 1 1.8.6zm25.2-17.9l-.9 4.1-.4.2a8.5 8.5 0 0 0-5-1.6q-5.7 0-5.7 7.5t5.9 8.1a9.8 9.8 0 0 0 5.3-1.5l.4.3-.4 4.1a13.6 13.6 0 0 1-5.8 1.3q-5.2 0-7.9-3t-2.7-8.7q0-5.8 2.9-8.9t8.2-3.2a13 13 0 0 1 6.1 1.3zm14.7 7.2a9 9 0 0 1 1.9 6.2q0 4.4-2.1 6.7a7.7 7.7 0 0 1-6 2.3 7.2 7.2 0 0 1-5.6-2.2 9 9 0 0 1-1.9-6.2q0-4.4 2.1-6.7a7.7 7.7 0 0 1 6-2.3 7.2 7.2 0 0 1 5.6 2.2zm-8.4 2.2a6.8 6.8 0 0 0-.8 3.7 10.2 10.2 0 0 0 .8 4.7 2.7 2.7 0 0 0 2.6 1.4 2.8 2.8 0 0 0 2.5-1.1 6.8 6.8 0 0 0 .8-3.7 10 10 0 0 0-.8-4.7 2.7 2.7 0 0 0-2.6-1.4 2.8 2.8 0 0 0-2.6 1.1zm18.5 12.7h-4.8l.3-6.9-.2-18 4.8-.4-.3 17.9zm9.5 0h-4.8l.3-6.9-.2-18 4.8-.4-.3 17.9zm7.8-7.7q.3 4.5 4.5 4.5a10.4 10.4 0 0 0 4.8-1.3l.4.3-.6 3.5a12.7 12.7 0 0 1-5 1.1 8.2 8.2 0 0 1-6.2-2.3 8.8 8.8 0 0 1-2.2-6.3 8.9 8.9 0 0 1 2.2-6.4 8 8 0 0 1 6-2.3 6.4 6.4 0 0 1 4.8 1.7 6.7 6.7 0 0 1 1.7 4.8 14 14 0 0 1-.1 2l-.7.7zm3.7-6.2a3.1 3.1 0 0 0-2.3.9 4.9 4.9 0 0 0-1.2 2.6l6-.2v-.4q0-2.9-2.5-2.9zm21.2-2.3l-.8 3.8-.4.2a7 7 0 0 0-3.3-1 3 3 0 0 0-2.6 1.2 5.5 5.5 0 0 0-.9 3.4 6.5 6.5 0 0 0 1 3.9 3.2 3.2 0 0 0 2.8 1.3 8.8 8.8 0 0 0 3.6-.9l.4.3-.5 3.7a14.6 14.6 0 0 1-4.4.7 6.8 6.8 0 0 1-5.4-2.2 9.3 9.3 0 0 1-1.9-6.3 9.4 9.4 0 0 1 2.1-6.5 7.5 7.5 0 0 1 5.9-2.4 10.3 10.3 0 0 1 4.4.8zm11.8 12.1l.4.4-.5 2.8a10.9 10.9 0 0 1-3.7 1.2q-4.9-.5-4.9-4.8l.2-3v-6.2h-2.2l-.2-.3.3-2.6h2.1v-2.8l4.4-1.4.3.3v3.9h4.3v.3l-.2 2.6h-4.3l-.2 8.1a2.5 2.5 0 0 0 .4 1.6 1.8 1.8 0 0 0 1.4.5 5.5 5.5 0 0 0 2.4-.6zm17.6 0l.4.4-.5 2.8a10.9 10.9 0 0 1-3.7 1.2q-4.9-.5-4.9-4.8l.2-3v-6.2h-2.2l-.2-.3.3-2.6h2.1v-2.8l4.4-1.4.3.3v3.9h4.3v.3l-.2 2.6H334l-.2 8.1a2.5 2.5 0 0 0 .4 1.6 1.8 1.8 0 0 0 1.4.5 5.5 5.5 0 0 0 2.5-.6zm12.8-8.3a2.1 2.1 0 0 0-1.7-.7 5.4 5.4 0 0 0-3.4 1.5v4.2l.3 7.4h-4.8l.3-6.9-.2-18 4.8-.4-.2 10.9h.2a12.2 12.2 0 0 1 4.3-2.6 6.2 6.2 0 0 1 4.2 1.2 4.3 4.3 0 0 1 1.4 3.6v4.8l.2 7.3h-4.8l.3-10.4a2.8 2.8 0 0 0-.9-1.9zm12.5 4.7q.3 4.5 4.5 4.5a10.4 10.4 0 0 0 4.8-1.3l.4.3-.6 3.5a12.7 12.7 0 0 1-5 1.1 8.2 8.2 0 0 1-6.2-2.3 8.8 8.8 0 0 1-2.2-6.3 8.9 8.9 0 0 1 2.2-6.4 8 8 0 0 1 6-2.3 6.4 6.4 0 0 1 4.8 1.7 6.7 6.7 0 0 1 1.7 4.8 14 14 0 0 1-.1 2l-.7.7zm3.7-6.2a3.1 3.1 0 0 0-2.3.9 4.9 4.9 0 0 0-1.2 2.6l6-.2v-.4q.1-2.9-2.5-2.9zm20.4 13.9h-4.8l.3-6.9-.2-18 4.8-.4-.3 17.9zm8.8-24.3a2.5 2.5 0 0 1 .6 1.8 2.7 2.7 0 0 1-.7 1.9 2.5 2.5 0 0 1-1.9.7 2.4 2.4 0 0 1-1.8-.6 2.5 2.5 0 0 1-.6-1.8 2.6 2.6 0 0 1 .7-1.9 2.6 2.6 0 0 1 1.9-.7 2.3 2.3 0 0 1 1.8.6zm.5 24.3H392l.3-6.9-.2-9.5 4.8-.4-.3 9.4zm17.7-13.9h-.1a5.7 5.7 0 0 1-1.4 6.7 8.1 8.1 0 0 1-5.3 1.6l-2.1-.2a1.5 1.5 0 0 0-.5.9q0 .6.9.9l2.7.5 3.5.6a5.8 5.8 0 0 1 2.4 1.3 3.2 3.2 0 0 1 1 2.6 4.8 4.8 0 0 1-1.1 3 6.9 6.9 0 0 1-2.9 2.1 11.3 11.3 0 0 1-4.2.8 8.2 8.2 0 0 1-5-1.3 4.2 4.2 0 0 1-1.8-3.5 10.2 10.2 0 0 1 3-2.7v-.2a3.4 3.4 0 0 1-2.6-3.3 11.5 11.5 0 0 1 2.4-2.2v-.2a4.9 4.9 0 0 1-2.6-4.6 5.4 5.4 0 0 1 1.9-4.4 8.1 8.1 0 0 1 5.3-1.6 9.2 9.2 0 0 1 3.5.6 32.9 32.9 0 0 0 5.3-1.4l.4.3v3zm-3.9 14.6a17.9 17.9 0 0 0-3.2-.6h-1.1q-1.7 1.2-1.7 2.3a1.7 1.7 0 0 0 .9 1.5 4.6 4.6 0 0 0 2.5.6 5.4 5.4 0 0 0 2.7-.6 1.8 1.8 0 0 0 1-1.6 1.3 1.3 0 0 0-1.1-1.6zm.2-12q0-2.7-2.8-2.7t-3 2.8q0 2.9 2.8 2.9t3-3zm18.2-1.1a2.1 2.1 0 0 0-1.7-.7 5.4 5.4 0 0 0-3.4 1.5v4.2l.3 7.4h-4.8l.3-6.9-.2-18 4.8-.4-.2 10.9h.2a12.2 12.2 0 0 1 4.3-2.6 6.2 6.2 0 0 1 4.2 1.2 4.3 4.3 0 0 1 1.4 3.6v4.8l.2 7.3h-4.8l.3-10.4a2.8 2.8 0 0 0-.9-1.9zm18.5 8.3l.4.4-.5 2.8a10.9 10.9 0 0 1-3.7 1.2q-4.9-.5-4.9-4.8l.2-3v-6.2h-2.2l-.2-.3.3-2.6h2.1v-2.8l4.4-1.4.3.3v3.9h4.3v.3l-.2 2.6h-4.3l-.2 8.1a2.5 2.5 0 0 0 .4 1.6 1.8 1.8 0 0 0 1.4.5 5.5 5.5 0 0 0 2.4-.6zm22.2-10.7a9.4 9.4 0 0 1 1.7 6q0 4.4-2.2 6.8a7.9 7.9 0 0 1-6.1 2.4 11.5 11.5 0 0 1-4-.8l-2.6.9-.6-.5.3-6.8-.3-18 4.8-.4v10.9h.2a12.2 12.2 0 0 1 4-2.6 5.8 5.8 0 0 1 4.8 2.1zm-2.8 6.8q0-5.1-3.2-5.1a4.7 4.7 0 0 0-3.1 1.5v8.2a5.7 5.7 0 0 0 2.5.6q3.8 0 3.8-5.2zm12.7 8h-4.8l.3-6.9-.2-18 4.8-.4-.3 17.9zm18.6-3.5a.8.8 0 0 0 .6.2h.9l.4.3-.4 2.5a5.7 5.7 0 0 1-2.6.9 3.1 3.1 0 0 1-2.9-2.7h-.4a10.5 10.5 0 0 1-4.2 2.6 6.2 6.2 0 0 1-4.1-1.2 4.5 4.5 0 0 1-1.4-3.6v-4.2l-.2-7.6 4.6-.4v10.6q0 2.6 2.2 2.6a4.9 4.9 0 0 0 3.1-1.4v-11.5l4.5-.4-.3 12.5a1.4 1.4 0 0 0 .2.8zm8-4.2q.3 4.5 4.5 4.5a10.4 10.4 0 0 0 4.8-1.3l.4.3-.6 3.5a12.7 12.7 0 0 1-5 1.1 8.2 8.2 0 0 1-6.3-2.3 8.8 8.8 0 0 1-2.2-6.3 8.9 8.9 0 0 1 2.2-6.4 8 8 0 0 1 6-2.3 6.4 6.4 0 0 1 4.8 1.7 6.7 6.7 0 0 1 1.7 4.8 14 14 0 0 1-.1 2l-.7.7zm3.7-6.2a3.1 3.1 0 0 0-2.3.9 4.9 4.9 0 0 0-1.2 2.6l6-.2v-.4q0-2.9-2.5-2.9zm28.7 0h-.1a5.7 5.7 0 0 1-1.4 6.7 8.1 8.1 0 0 1-5.3 1.6l-2.1-.2a1.5 1.5 0 0 0-.5.9q0 .6.9.9l2.7.5 3.5.6a5.8 5.8 0 0 1 2.4 1.3 3.2 3.2 0 0 1 1 2.6 4.8 4.8 0 0 1-1.1 3 6.9 6.9 0 0 1-2.9 2.1 11.3 11.3 0 0 1-4.2.8 8.2 8.2 0 0 1-5-1.3 4.2 4.2 0 0 1-1.8-3.5 10.2 10.2 0 0 1 3-2.7v-.2a3.4 3.4 0 0 1-2.6-3.3 11.5 11.5 0 0 1 2.4-2.2v-.2a4.9 4.9 0 0 1-2.6-4.6 5.4 5.4 0 0 1 1.9-4.4 8.1 8.1 0 0 1 5.3-1.6 9.2 9.2 0 0 1 3.5.6 32.8 32.8 0 0 0 5.3-1.4l.4.3v3zm-3.9 14.6a17.9 17.9 0 0 0-3.2-.6h-1.1q-1.7 1.2-1.7 2.3a1.7 1.7 0 0 0 .9 1.5 4.6 4.6 0 0 0 2.5.6 5.4 5.4 0 0 0 2.7-.6 1.8 1.8 0 0 0 1-1.6 1.3 1.3 0 0 0-1-1.6zm.2-12q0-2.7-2.8-2.7t-3 2.8q0 2.9 2.8 2.9t3.1-3zm11.5 3.6q.3 4.5 4.5 4.5a10.4 10.4 0 0 0 4.8-1.3l.4.3-.6 3.5a12.7 12.7 0 0 1-5 1.1 8.2 8.2 0 0 1-6.2-2.3 8.8 8.8 0 0 1-2.2-6.3 8.9 8.9 0 0 1 2.2-6.4 8 8 0 0 1 6-2.3 6.4 6.4 0 0 1 4.8 1.7 6.7 6.7 0 0 1 1.7 4.8 14 14 0 0 1-.1 2l-.7.7zm3.7-6.2a3.1 3.1 0 0 0-2.3.9 4.9 4.9 0 0 0-1.2 2.6l6-.2v-.4q.1-2.9-2.5-2.9zm28 .8a5.5 5.5 0 0 0-3.4 1.5v4.3l.2 7.3h-4.8l.3-10.4q0-2.7-2.3-2.7a5.6 5.6 0 0 0-3.5 1.5v4.2l.2 7.4H560l.3-6.9-.2-9.5 4.5-.4v2.4h.2a12.3 12.3 0 0 1 4.4-2.6q4.1 0 5.2 2.7h.2a12.5 12.5 0 0 1 4.7-2.7 6.1 6.1 0 0 1 4.2 1.2 4.4 4.4 0 0 1 1.4 3.6v4.8l.2 7.3h-4.8l.3-10.4q-.2-2.6-2.5-2.6zm14.7 8.9a2.5 2.5 0 0 1 .6 1.8 2.7 2.7 0 0 1-.7 1.9 2.5 2.5 0 0 1-1.9.7 2.4 2.4 0 0 1-1.8-.6 2.5 2.5 0 0 1-.6-1.8 2.6 2.6 0 0 1 .7-1.9 2.6 2.6 0 0 1 1.9-.7 2.3 2.3 0 0 1 1.8.6z"/><path fill="none" stroke="#72c6ef" stroke-linecap="round" stroke-miterlimit="10" stroke-width="11" d="M363.1 100.3l-26.3-30.6 26.3-30.5h65.8l26.3 30.5-26.3 30.6h-65.8zm54.5-38.5h30"/><path fill="#58595b" d="M313.6 398.4l3.4-3.4-3.4-3.5 1.8-1.8 3.4 3.5 3.4-3.5 1.8 1.8-3.4 3.5 3.4 3.4-1.8 1.8-3.4-3.5-3.4 3.5zm25.3 1.1v2.9H328v-2.9h3.9v-8.8h-3.1v-2.2a11.8 11.8 0 0 0 4.1-1.4h2.6v12.4z"/><rect width="115" height="115" x="268.5" y="249" fill="#b4d44f" rx="12" ry="12"/><rect width="95" height="95" x="278.5" y="259" fill="none" stroke="#849f3a" stroke-miterlimit="10" stroke-width="8" rx="2" ry="2" transform="rotate(90 326 306.5)"/><path fill="#657d2b" d="M313.6 298.1a4.4 4.4 0 0 0 2.8 1.2c1.3 0 2-.5 2-1.3s-.7-1.1-1.8-1.5l-1.4-.6a3 3 0 0 1-2.2-2.9c0-1.7 1.5-2.9 3.6-2.9a4.9 4.9 0 0 1 3.4 1.3l-1 1.2a3.7 3.7 0 0 0-2.4-.9c-1.1 0-1.8.5-1.8 1.2s.8 1.1 1.8 1.5l1.4.6c1.3.5 2.3 1.3 2.3 2.8s-1.4 3.1-3.9 3.1a5.7 5.7 0 0 1-3.9-1.5zm12.6-5.5a3.4 3.4 0 0 1 3.6 3.7 5.3 5.3 0 0 1-.1.9H324a2.5 2.5 0 0 0 2.6 2.2 4.4 4.4 0 0 0 2.2-.6l.6 1.2a5.9 5.9 0 0 1-3.1.9 4.1 4.1 0 1 1-.3-8.2zm2 3.4a1.8 1.8 0 0 0-1.9-2 2.2 2.2 0 0 0-2.2 2zm5.6-1.7h-2.1v-1.4h2.2l.2-2.1h1.5v2.1h3.6v1.5h-3.6v3.2c0 1.3.5 1.9 1.8 1.9a4.8 4.8 0 0 0 1.7-.3l.3 1.3a7.8 7.8 0 0 1-2.5.4c-2.4 0-3.2-1.3-3.2-3.4zM288 309.4h2l1.5 5.3.9 3.4h.1c.4-1.2.6-2.2.9-3.4l1.5-5.3h1.9l-3.2 10.5h-2.2zm15.8 5.4c-.1-.9-.6-1.5-1.9-1.5a5.6 5.6 0 0 0-2.6.8l-.7-1.2a7.3 7.3 0 0 1 3.6-1.1 3.1 3.1 0 0 1 3.4 3.4v4.7h-1.5v-1a5.1 5.1 0 0 1-2.9 1.2 2.4 2.4 0 0 1-2.6-2.3c-.3-1.8 1.3-2.7 5.2-3zm-2.2 3.8a3.7 3.7 0 0 0 2.2-1V316c-2.8.2-3.6.8-3.6 1.6s.5 1 1.3 1zm7.3-6.6h1.5l.2 1.8a3.9 3.9 0 0 1 3.3-2 3.2 3.2 0 0 1 1.5.3l-.4 1.6-1.4-.2a3.3 3.3 0 0 0-2.9 2.1v4.3h-1.9zm8.8 0h5.3v7.9h-1.8v-6.4h-3.4zm2.9-2.6a1.3 1.3 0 0 1 2.6 0 1.3 1.3 0 0 1-2.6 0zm12 5.4c-.1-.9-.6-1.5-1.9-1.5a5.6 5.6 0 0 0-2.6.8l-.7-1.2a7.3 7.3 0 0 1 3.6-1.1 3.1 3.1 0 0 1 3.4 3.4v4.7h-1.5v-1a5.1 5.1 0 0 1-2.9 1.2 2.4 2.4 0 0 1-2.6-2.3c-.3-1.8 1.3-2.7 5.2-3zm-2.2 3.8a3.7 3.7 0 0 0 2.2-1V316c-2.8.2-3.6.8-3.6 1.6s.5 1 1.3 1zm6.5-10h1.9v4.3a3.7 3.7 0 0 1 2.4-1c2 0 3.2 1.6 3.2 4s-1.7 4.3-3.5 4.3a3.5 3.5 0 0 1-2.3-1.1l-.2.9h-1.5zm3.6 10c1.1 0 2-.9 2-2.7s-.5-2.5-1.8-2.5a2.6 2.6 0 0 0-1.9.9v3.5a2.6 2.6 0 0 0 1.7.7zm5.8-10h4.3v8.5a1.3 1.3 0 0 0 1.4 1.5l1.3-.3.4 1.4a6.1 6.1 0 0 1-2.2.4c-1.8 0-2.8-1.1-2.8-3.1v-7h-2.5zm13.5 3.2a3.4 3.4 0 0 1 3.6 3.7 5.3 5.3 0 0 1-.1.9h-5.7a2.5 2.5 0 0 0 2.6 2.2 4.4 4.4 0 0 0 2.2-.6l.6 1.2a5.9 5.9 0 0 1-3.1.9 4.1 4.1 0 1 1-.3-8.2zm2 3.4a1.8 1.8 0 0 0-1.9-2 2.2 2.2 0 0 0-2.2 2z"/><path fill="#58595b" d="M453.6 398.4l3.4-3.4-3.4-3.5 1.8-1.8 3.4 3.5 3.4-3.5 1.8 1.8-3.4 3.5 3.4 3.4-1.8 1.8-3.4-3.5-3.4 3.5zm15-.1a5.8 5.8 0 0 0 3.7 1.5c1.7 0 2.9-.6 2.9-1.8s-1-2.2-4.6-2.2v-2.5c3 0 4.1-.8 4.1-2s-.9-1.7-2.3-1.7a5.1 5.1 0 0 0-3.2 1.3l-1.8-2.2a8.2 8.2 0 0 1 5.2-1.9c3.3 0 5.6 1.5 5.6 4.2s-1.1 2.7-2.9 3.4c1.9.5 3.4 1.8 3.4 3.7s-2.8 4.4-6 4.4a7.4 7.4 0 0 1-5.7-2.2z"/><rect width="115" height="115" x="408.5" y="249" fill="#fbef4b" rx="12" ry="12"/><rect width="95" height="95" x="418.5" y="259" fill="none" stroke="#b4ae39" stroke-miterlimit="10" stroke-width="8" rx="2" ry="2" transform="rotate(90 466 306.5)"/><path fill="#807d24" d="M448 290.2h1.9l1.3 4.1.4 1.6.4-1.6 1.2-4.1h1.9v10.5h-1.5V296c0-1 .1-3 .2-4l-.8 2.6-1.1 3.2h-.9l-1.1-3.2-.7-2.6c.1 1 .2 3 .2 4v4.6H448zm13.2 2.4a4.1 4.1 0 1 1-4 4.1 3.9 3.9 0 0 1 4-4.1zm0 6.7c1.3 0 2-1 2-2.6s-.8-2.6-2-2.6-2 1-2 2.6.7 2.7 2 2.7zm5.5-6.5h1.9l1.5 4.1.8 2.4h.1l.8-2.4 1.5-4.1h1.8l-3.1 7.9h-2.1zm13.9-.2a3.4 3.4 0 0 1 3.6 3.7 5.3 5.3 0 0 1-.1.9h-5.7a2.5 2.5 0 0 0 2.6 2.2 4.4 4.4 0 0 0 2.2-.6l.6 1.2a5.9 5.9 0 0 1-3.1.9 4.1 4.1 0 1 1-.3-8.2zm2 3.4a1.8 1.8 0 0 0-1.9-2 2.2 2.2 0 0 0-2.2 2zm-41.3 14.2a4.5 4.5 0 0 0-1.7-.3 1.5 1.5 0 0 0-1.7 1.7v.5h3v1.5h-3v6.4H436v-6.4h-2.2v-1.4h2.2v-.4a3 3 0 0 1 3.3-3.2 6.5 6.5 0 0 1 2.3.4zm5.5 1.6a4.1 4.1 0 1 1-4 4.1 3.9 3.9 0 0 1 4-4.1zm0 6.7c1.3 0 2-1 2-2.6s-.8-2.6-2-2.6-2 1-2 2.6.7 2.7 2 2.7zm6.9-6.5h1.5l.2 1.8a3.9 3.9 0 0 1 3.3-2 3.2 3.2 0 0 1 1.5.3l-.4 1.6-1.4-.2a3.3 3.3 0 0 0-2.9 2.1v4.3h-1.9zm7.6 0h1.8l.7 4.1c.1.8.2 1.5.3 2.3h.1c.1-.8.2-1.5.4-2.3l.7-3.3h1.4l.8 3.3c.2.8.3 1.5.4 2.3h.1c.1-.8.2-1.5.3-2.3l.7-4.1h1.7l-1.5 7.9H467l-.7-3.3-.4-2.3h.1c-.1.6-.2 1.3-.4 2.3l-.7 3.3h-2.1zm16.1 2.8c-.1-.9-.6-1.5-1.9-1.5a5.6 5.6 0 0 0-2.6.8l-.7-1.2a7.3 7.3 0 0 1 3.6-1.1 3.1 3.1 0 0 1 3.4 3.4v4.7h-1.5v-1a5.1 5.1 0 0 1-2.9 1.2 2.4 2.4 0 0 1-2.6-2.3c-.3-1.8 1.3-2.7 5.2-3zm-2.2 3.8a3.7 3.7 0 0 0 2.2-1V316c-2.8.2-3.6.8-3.6 1.6s.5 1 1.3 1zm7.3-6.6h1.5l.2 1.8a3.9 3.9 0 0 1 3.3-2 3.2 3.2 0 0 1 1.5.3l-.4 1.6-1.4-.2a3.3 3.3 0 0 0-2.9 2.1v4.3h-1.9zm11.8-.2a3.1 3.1 0 0 1 2.2.9v-4.2h1.9v11.3h-1.5v-.8a3.5 3.5 0 0 1-2.4 1.1c-2 0-3.4-1.5-3.4-4.1s1.4-4.2 3.2-4.2zm.3 6.7a2.3 2.3 0 0 0 1.8-.9v-3.5a2.3 2.3 0 0 0-1.7-.7c-1.1 0-2 .9-2 2.6s.8 2.5 2 2.5z"/></svg>